<svg width="234" height="133" viewBox="0 0 234 133" fill="none" xmlns="http://www.w3.org/2000/svg">
<path d="M0.0605469 35.4038H4.52356L8.73748 42.6067L12.9514 35.4038H17.4152V52.9121H13.8741V40.4563L9.98442 46.9082H7.49129L3.60163 40.4563V52.9121H0.0605469V35.4038Z" fill="#040606"/>
<path d="M22.2783 35.404H25.8194V52.9124H22.2783V35.404Z" fill="#040606"/>
<path d="M30.7061 35.4038H35.2442L43.0486 47.9342V35.4038H46.5897V52.9121H42.0515L34.2464 40.3314V52.9121H30.7061V35.4038Z" fill="#040606"/>
<path d="M51.4775 35.404H55.0186V52.9124H51.4775V35.404Z" fill="#040606"/>
<path d="M60.9033 48.1097C61.9505 49.4595 63.3463 50.2601 64.7679 50.2601C66.1644 50.2601 67.0119 49.5105 67.0119 48.2346C67.0119 45.1078 59.0329 45.8085 59.0329 39.9806C59.0329 37.2048 61.302 34.9036 64.6183 34.9036C67.2367 34.9036 69.2559 36.0797 70.7276 37.8553L68.1343 40.1809C67.1121 38.8547 65.9647 38.0046 64.6433 38.0046C63.4214 38.0046 62.6233 38.8052 62.6233 39.8313C62.6233 42.9567 70.6031 42.2322 70.6031 48.1592C70.553 51.4111 68.0097 53.4121 64.818 53.4121C61.8753 53.4121 59.8811 52.3366 58.335 50.4856L60.9033 48.1097Z" fill="#040606"/>
<path d="M72.3984 35.4038H86.7109V38.6305H81.3252V52.9121H77.7849V38.6305H72.3984V35.4038Z" fill="#040606"/>
<path d="M90.1273 30.5267H93.7679L96.5853 33.9027H93.3441L90.1273 30.5267ZM89.8281 35.4041H100.001V38.4297H93.3685V42.482H99.004V45.5084H93.3685V49.8845H100.001V52.9116H89.8281V35.4041Z" fill="#040606"/>
<path d="M107.656 38.4299V42.8068H109.651C111.147 42.8068 112.02 42.007 112.02 40.581C112.02 39.2556 111.147 38.4299 109.651 38.4299H107.656ZM104.115 35.4036H109.452C113.291 35.4036 115.66 37.3795 115.66 40.6313C115.66 42.7321 114.638 44.3074 112.868 45.1582L118.353 52.9119H114.115L109.477 45.8339H107.656V52.9119H104.115V35.4036Z" fill="#040606"/>
<path d="M120.549 35.4038H130.722V38.4301H124.089V42.4818H129.725V45.5081H124.089V49.885H130.722V52.9121H120.549V35.4038Z" fill="#040606"/>
<path d="M3.60163 63.8758V74.9301H6.96731C10.2092 74.9301 12.5527 72.5047 12.5527 69.4037C12.5527 66.2768 10.2092 63.8758 6.96731 63.8758H3.60163ZM0.0605469 60.6492H6.91794C12.4532 60.6492 16.1933 64.6757 16.1933 69.4037C16.1933 74.1302 12.4532 78.1567 6.91794 78.1567H0.0605469V60.6492Z" fill="#040606"/>
<path d="M19.6104 60.6489H29.784V63.676H23.1514V67.7269H28.7862V70.754H23.1514V75.1309H29.784V78.1572H19.6104V60.6489Z" fill="#040606"/>
<path d="M40.3809 60.6489H43.9212V74.9298H50.5538V78.1572H40.3809V60.6489Z" fill="#040606"/>
<path d="M63.546 70.5788L61.1524 64.0013L58.7587 70.5788H63.546ZM58.8331 60.6489H63.4708L70.0791 78.1572H66.314L64.6433 73.6051H57.6614L55.9907 78.1572H52.2256L58.8331 60.6489Z" fill="#040606"/>
<path d="M91.5984 72.9298L94.3914 75.0802C92.7952 77.2572 90.2018 78.6572 87.0351 78.6572C81.5249 78.6572 77.7598 74.4053 77.7598 69.403C77.7598 64.4007 81.5249 60.1488 87.0351 60.1488C90.2018 60.1488 92.7952 61.5747 94.3914 63.7007L91.5984 65.8762C90.6005 64.451 89.0301 63.4752 87.0351 63.4752C83.7439 63.4752 81.4003 66.0514 81.4003 69.403C81.4003 72.7546 83.7439 75.3308 87.0351 75.3308C89.0301 75.3308 90.6005 74.3557 91.5984 72.9298" fill="#040606"/>
<path d="M107.557 60.649H111.098V71.304C111.098 75.9064 108.404 78.657 104.016 78.657C99.6521 78.657 96.96 75.9064 96.96 71.304V60.649H100.5V71.6034C100.5 73.9556 101.822 75.3305 104.041 75.3305C106.21 75.3305 107.557 73.9556 107.557 71.6034V60.649Z" fill="#040606"/>
<path d="M115.486 60.6489H119.027V74.9298H125.659V78.1572H115.486V60.6489Z" fill="#040606"/>
<path d="M124.937 60.6489H139.249V63.8756H133.863V78.1572H130.323V63.8756H124.937V60.6489Z" fill="#040606"/>
<path d="M152.664 60.649H156.205V71.304C156.205 75.9064 153.512 78.657 149.124 78.657C144.759 78.657 142.067 75.9064 142.067 71.304V60.649H145.608V71.6034C145.608 73.9556 146.929 75.3305 149.149 75.3305C151.318 75.3305 152.664 73.9556 152.664 71.6034V60.649Z" fill="#040606"/>
<path d="M164.135 63.676V68.0529H166.129C167.625 68.0529 168.498 67.2523 168.498 65.8264C168.498 64.501 167.625 63.676 166.129 63.676H164.135ZM160.594 60.6489H165.93C169.77 60.6489 172.138 62.6248 172.138 65.8766C172.138 67.9775 171.117 69.5528 169.346 70.4043L174.832 78.1572H170.593L165.955 71.0792H164.135V78.1572H160.594V60.6489Z" fill="#040606"/>
<path d="M177.026 60.6489H187.2V63.676H180.567V67.7269H186.202V70.754H180.567V75.1309H187.2V78.1572H177.026V60.6489Z" fill="#040606"/>
<path d="M5.09207 132.276L5.2203 131.879C3.51793 131.557 3.30052 131.557 3.97853 129.697L4.66979 127.783H6.55124C7.3958 127.783 7.40833 128.131 7.28083 129.055H7.76649L8.8933 125.961H8.4069C7.98463 126.692 7.65152 127.232 6.73033 127.232H4.87467L5.85998 124.524C6.16729 123.663 6.34637 123.483 7.49823 123.483H8.31699C9.50718 123.483 9.64794 123.804 9.64794 125.011H10.1218L10.5183 122.905H3.45381L3.32632 123.304C4.69559 123.586 4.82308 123.715 4.1834 125.485L2.64832 129.697C2.0079 131.455 1.73965 131.596 0.16477 131.879L0.0498047 132.276H5.09207ZM14.8951 127.117C15.1375 126.282 15.01 125.55 14.3704 125.55C13.615 125.55 13.4234 126.128 12.6555 127.783V126.834C12.6555 126.154 12.4373 125.55 11.8234 125.55C11.1071 125.55 10.4542 126.667 9.95525 127.771H10.2876C10.6333 127.27 10.9531 126.975 11.2088 126.975C11.5161 126.975 11.6827 127.45 11.2088 128.503L9.82702 131.584C9.5713 132.161 9.83955 132.534 10.4033 132.534C10.7482 132.534 10.9022 132.444 11.043 132.072L12.3997 128.464C12.7837 127.989 13.1286 127.579 13.5641 127.117H14.8951ZM21.1143 125.255L20.5763 125.216L19.9749 125.807H19.8467C16.9291 125.807 14.4087 129.093 14.4087 131.481C14.4087 132.148 14.8177 132.534 15.4574 132.534C16.2128 132.534 16.9549 131.455 17.7869 130.3L17.7486 130.711C17.6461 131.891 18.0043 132.534 18.6182 132.534C19.3352 132.534 19.9882 131.417 20.4871 130.312H20.154C19.8091 130.814 19.4893 131.108 19.2328 131.108C18.9638 131.108 18.7722 130.621 19.2328 129.581L21.1143 125.255ZM15.7264 130.531C15.7264 128.952 17.4796 126.808 18.4649 126.808C18.6823 126.808 18.8872 126.834 19.0663 126.885L18.0426 129.619C17.4538 130.338 16.5459 131.211 16.1228 131.211C15.8804 131.211 15.7264 131.006 15.7264 130.531ZM22.1887 126.539H23.3664L21.4982 131.661C21.3317 132.097 21.5616 132.534 22.0097 132.534C23.0716 132.534 24.7865 131.481 25.3886 130.043H25.0555C24.5816 130.544 23.673 131.211 22.8925 131.352L24.6074 126.539H26.3607L26.5781 125.807H24.8764L25.5286 123.958H24.8506L23.6354 125.807L22.1887 126.012V126.539ZM30.5458 130.056H30.1103C29.5605 130.711 28.9717 131.224 28.3829 131.224C27.7815 131.224 27.4742 130.865 27.4742 130.056C27.4742 129.722 27.5125 129.388 27.5766 129.08L31.1214 127.912C31.8127 126.269 30.9806 125.55 30.0079 125.55C28.332 125.55 26.4248 128.362 26.4248 130.826C26.4248 131.93 26.9495 132.534 27.769 132.534C28.7285 132.534 29.7263 131.596 30.5458 130.056V130.056ZM29.3299 126.5C29.803 126.5 30.2127 126.859 29.9953 127.771L27.794 128.285C28.178 127.257 28.8177 126.5 29.3299 126.5V126.5ZM37.1873 127.117C37.4305 126.282 37.303 125.55 36.6626 125.55C35.9072 125.55 35.7156 126.128 34.9477 127.783V126.834C34.9477 126.154 34.7303 125.55 34.1157 125.55C33.3993 125.55 32.7464 126.667 32.2475 127.771H32.5806C32.9262 127.27 33.2461 126.975 33.5018 126.975C33.8091 126.975 33.9749 127.45 33.5018 128.503L32.12 131.584C31.8635 132.161 32.1325 132.534 32.6956 132.534C33.0412 132.534 33.1945 132.444 33.3352 132.072L34.692 128.464C35.0759 127.989 35.4216 127.579 35.8564 127.117H37.1873ZM37.2124 131.584C36.9566 132.161 37.2256 132.534 37.7887 132.534C38.1343 132.534 38.2876 132.444 38.4283 132.072L39.7851 128.464C40.4122 127.694 41.7049 126.872 42.2163 126.872C42.5877 126.872 42.5369 127.18 42.2929 127.642L40.2074 131.661C40.0025 132.058 40.2715 132.534 40.7195 132.534C41.7432 132.534 42.9592 131.609 43.4448 130.312H43.1124C42.7801 130.787 42.2163 131.313 41.6923 131.403L43.4839 127.771C43.7138 127.309 43.8288 126.872 43.8288 126.526C43.8288 125.935 43.4964 125.55 42.8818 125.55C41.9989 125.55 41.1035 126.551 40.0408 127.783V126.834C40.0408 126.154 39.8234 125.55 39.2088 125.55C38.8248 125.55 38.4541 125.884 38.1085 126.359V126.487C38.774 126.448 39.0688 127.45 38.5949 128.503L37.2124 131.584ZM48.4871 123.727C48.9477 123.727 49.3316 123.356 49.3316 122.88C49.3316 122.418 48.9477 122.033 48.4871 122.033C48.0139 122.033 47.6425 122.418 47.6425 122.88C47.6425 123.356 48.0139 123.727 48.4871 123.727ZM48.1289 126.295C48.2697 125.82 47.9498 125.55 47.7066 125.55C46.683 125.55 45.467 126.474 44.9806 127.771H45.3137C45.6461 127.296 46.2091 126.77 46.7339 126.68L44.7758 131.789C44.5967 132.263 44.9548 132.534 45.198 132.534C46.1708 132.534 47.3102 131.596 47.7958 130.312H47.4634C47.1303 130.787 46.5673 131.313 46.0426 131.403L48.1289 126.295ZM49.7156 126.539H50.8925L49.0243 131.661C48.8585 132.097 49.0884 132.534 49.5365 132.534C50.5985 132.534 52.3134 131.481 52.9147 130.043H52.5824C52.1085 130.544 51.1998 131.211 50.4194 131.352L52.1343 126.539H53.8875L54.1049 125.807H52.4033L53.0555 123.958H52.3775L51.1615 125.807L49.7156 126.012V126.539ZM57.3682 124.896L59.8635 122.559V122.29H58.52L56.9842 124.896H57.3682ZM58.0719 130.056H57.6371C57.0866 130.711 56.4978 131.224 55.9097 131.224C55.3076 131.224 55.001 130.865 55.001 130.056C55.001 129.722 55.0386 129.388 55.1027 129.08L58.6475 127.912C59.3388 126.269 58.5068 125.55 57.5347 125.55C55.8581 125.55 53.9509 128.362 53.9509 130.826C53.9509 131.93 54.4763 132.534 55.2951 132.534C56.2546 132.534 57.2532 131.596 58.0719 130.056V130.056ZM56.856 126.5C57.3298 126.5 57.7388 126.859 57.5222 127.771L55.3209 128.285C55.7048 127.257 56.3445 126.5 56.856 126.5" fill="#040606"/>
<path d="M7.6267 106.231L10.122 104.511V104.241H8.61202L7.22948 106.231H7.6267ZM6.60307 111.609C7.44762 111.609 7.46015 111.956 7.33266 112.881H7.81831L8.94512 109.787H8.45799C8.03645 110.519 7.70335 111.058 6.78215 111.058H4.92649L5.86095 108.478C6.16827 107.617 6.34661 107.45 7.49847 107.45H8.31723C9.50816 107.45 9.64892 107.772 9.64892 108.965H10.122L10.5185 106.86H3.45479L3.32656 107.258C4.69582 107.541 4.82405 107.668 4.18438 109.44L2.64856 113.651C2.00814 115.409 1.73989 115.55 0.165747 115.833L0.0507812 116.231H7.90822L9.31581 113.998H8.77857C7.88243 114.844 6.75636 115.653 5.18222 115.653C3.09663 115.653 3.28824 115.563 3.9795 113.651L4.72162 111.609H6.60307ZM15.5483 117.104C15.5483 116.283 14.8187 115.987 13.6285 115.628C12.6049 115.319 12.1443 115.23 12.1443 114.896C12.1443 114.626 12.3617 114.305 12.7972 114.074C14.473 113.984 15.5608 112.47 15.5608 111.199C15.5608 110.929 15.5099 110.698 15.42 110.493H16.8409L17.0583 109.761H14.8061C14.5372 109.595 14.2173 109.505 13.8975 109.505C12.1185 109.505 10.9666 111.07 10.9666 112.342C10.9666 113.303 11.5812 113.907 12.3233 114.049C11.4913 114.421 11.0307 114.857 11.0307 115.37C11.0307 115.666 11.1331 115.872 11.3763 116.064C9.45657 116.628 8.70119 117.271 8.70119 118.182C8.70119 119.068 9.86632 119.44 11.2481 119.44C13.5902 119.44 15.5483 118.169 15.5483 117.104V117.104ZM12.7707 113.587C12.3491 113.587 12.1826 113.227 12.1826 112.816C12.1826 111.674 12.7972 109.993 13.7567 109.993C14.179 109.993 14.3455 110.352 14.3455 110.763C14.3455 111.905 13.7309 113.587 12.7707 113.587ZM10.122 117.733C10.122 117.053 10.775 116.628 11.7094 116.257C12.016 116.411 12.4774 116.577 13.0912 116.782C14.0633 117.104 14.4347 117.232 14.4347 117.527C14.4347 118.156 13.3728 118.631 11.9261 118.631C10.7109 118.631 10.122 118.374 10.122 117.733V117.733ZM23.1492 109.209L22.612 109.171L22.0106 109.761H21.8824C18.9648 109.761 16.4437 113.048 16.4437 115.435C16.4437 116.103 16.8534 116.487 17.4931 116.487C18.2485 116.487 18.9906 115.409 19.8226 114.254L19.7843 114.664C19.6811 115.846 20.04 116.487 20.6539 116.487C21.371 116.487 22.0239 115.37 22.5228 114.267H22.1897C21.8441 114.768 21.5242 115.063 21.2685 115.063C20.9995 115.063 20.8079 114.575 21.2685 113.536L23.1492 109.209ZM17.7621 114.485C17.7621 112.906 19.5153 110.763 20.5006 110.763C20.718 110.763 20.9229 110.788 21.102 110.839L20.0783 113.574C19.4895 114.293 18.5808 115.166 18.1586 115.166C17.9154 115.166 17.7621 114.96 17.7621 114.485V114.485ZM24.5443 115.358L28.1149 105.974L27.9999 105.833L25.7603 106.09V106.36L26.1951 106.693C26.5916 107.002 26.4641 107.297 26.1059 108.247L23.3158 115.614C23.1109 116.012 23.3799 116.487 23.828 116.487C24.8516 116.487 25.9394 115.563 26.4258 114.267H26.0926C25.7603 114.742 25.069 115.268 24.5443 115.358V115.358ZM31.3523 107.682C31.8129 107.682 32.1969 107.309 32.1969 106.834C32.1969 106.372 31.8129 105.987 31.3523 105.987C30.8792 105.987 30.5078 106.372 30.5078 106.834C30.5078 107.309 30.8792 107.682 31.3523 107.682ZM30.9942 110.249C31.1349 109.774 30.8151 109.505 30.5719 109.505C29.5482 109.505 28.3323 110.429 27.8466 111.725H28.179C28.5113 111.25 29.0751 110.724 29.5991 110.634L27.6417 115.743C27.4627 116.218 27.8208 116.487 28.0633 116.487C29.0361 116.487 30.1754 115.55 30.6618 114.267H30.3287C29.9963 114.742 29.4333 115.268 28.9078 115.358L30.9942 110.249ZM32.5808 110.493H33.7585L31.8896 115.614C31.7237 116.051 31.9537 116.487 32.4017 116.487C33.4644 116.487 35.1786 115.435 35.7807 113.998H35.4476C34.9737 114.498 34.0651 115.166 33.2846 115.306L34.9995 110.493H36.7527L36.9701 109.761H35.2685L35.9214 107.912H35.2427L34.0275 109.761L32.5808 109.967V110.493ZM40.2334 108.85L42.7287 106.514V106.244H41.3853L39.8502 108.85H40.2334ZM40.9372 114.01H40.5024C39.9519 114.664 39.363 115.179 38.7749 115.179C38.1736 115.179 37.8663 114.819 37.8663 114.01C37.8663 113.676 37.9046 113.343 37.9687 113.034L41.5135 111.866C42.204 110.223 41.3727 109.505 40.3999 109.505C38.7234 109.505 36.8169 112.315 36.8169 114.78C36.8169 115.885 37.3416 116.487 38.1603 116.487C39.1198 116.487 40.1184 115.55 40.9372 114.01ZM39.7219 110.455C40.1951 110.455 40.6048 110.814 40.3874 111.725L38.1861 112.239C38.5701 111.211 39.2098 110.455 39.7219 110.455" fill="#040606"/>
<path d="M8.0873 90.8146H3.42899L3.30076 91.2123C4.67077 91.4947 4.79826 91.6233 4.15858 93.3945L2.64856 97.605C2.00814 99.3629 1.73989 99.5048 0.165747 99.7872L0.0507812 100.185H7.14031L8.67613 97.438H8.13815C7.26854 98.4012 6.24491 99.6076 4.67077 99.6076C3.48058 99.6076 3.33982 99.4021 3.9795 97.605L5.48953 93.3945C6.11668 91.6359 6.3982 91.4947 7.97234 91.2123L8.0873 90.8146ZM13.2445 91.6359C13.7051 91.6359 14.0891 91.2633 14.0891 90.7887C14.0891 90.3267 13.7051 89.9416 13.2445 89.9416C12.7707 89.9416 12.4 90.3267 12.4 90.7887C12.4 91.2633 12.7707 91.6359 13.2445 91.6359ZM12.8864 94.2032C13.0271 93.7279 12.7073 93.4588 12.4641 93.4588C11.4397 93.4588 10.2245 94.3828 9.73809 95.6794H10.0705C10.4036 95.2041 10.9666 94.6785 11.4913 94.5883L9.53321 99.6978C9.35413 100.172 9.71229 100.441 9.95549 100.441C10.9283 100.441 12.0669 99.5048 12.5533 98.2215H12.2209C11.8878 98.6961 11.3248 99.2224 10.8 99.3119L12.8864 94.2032ZM19.8477 94.884C19.8477 93.8439 19.4637 93.4588 18.7474 93.4588C17.8513 93.4588 17.0067 94.4087 16.1621 95.5641L18.2993 89.929L18.1844 89.7871L15.9447 90.0443V90.3134L16.3795 90.6475C16.7768 90.9551 16.6485 91.2766 16.2904 92.2006L13.9866 98.1572C13.8201 98.5926 13.6152 99.1071 13.6152 99.2476C13.6152 99.8641 14.4472 100.441 15.2026 100.441C16.9426 100.441 19.8477 97.2975 19.8477 94.884V94.884ZM15.8165 99.4021C15.4716 99.4021 14.972 99.0813 14.972 98.7989C14.972 98.7094 15.1252 98.311 15.3176 97.8105L15.8932 96.2826C16.5078 95.5508 17.4415 94.7679 17.9662 94.7679C18.2868 94.7679 18.5293 94.9734 18.5293 95.4487C18.5293 96.8473 17.2241 99.4021 15.8165 99.4021ZM24.506 97.9643H24.0704C23.5207 98.6192 22.9318 99.1323 22.343 99.1323C21.7417 99.1323 21.4343 98.773 21.4343 97.9643C21.4343 97.6309 21.4727 97.2975 21.5368 96.9893L25.0815 95.8206C25.7728 94.178 24.9408 93.4588 23.968 93.4588C22.2922 93.4588 20.3849 96.27 20.3849 98.7346C20.3849 99.8382 20.9096 100.441 21.7291 100.441C22.6886 100.441 23.6865 99.5048 24.506 97.9643V97.9643ZM23.29 94.4087C23.7631 94.4087 24.1729 94.7679 23.9555 95.6794L21.7542 96.1924C22.1381 95.1664 22.7786 94.4087 23.29 94.4087V94.4087ZM31.1482 95.0244C31.3906 94.1899 31.2631 93.4588 30.6235 93.4588C29.8681 93.4588 29.6757 94.0361 28.9078 95.6927V94.7421C28.9078 94.062 28.6904 93.4588 28.0765 93.4588C27.3595 93.4588 26.7073 94.5757 26.2076 95.6794H26.5407C26.8864 95.1789 27.2062 94.884 27.4619 94.884C27.7692 94.884 27.9358 95.3578 27.4619 96.4112L26.0801 99.4915C25.8237 100.07 26.0926 100.441 26.6557 100.441C27.0013 100.441 27.1553 100.352 27.2954 99.9794L28.6521 96.3728C29.0361 95.8975 29.3817 95.4864 29.8165 95.0244H31.1482ZM32.0694 94.4471H33.0031L31.1349 99.5691C30.9684 100.005 31.1983 100.441 31.6464 100.441C32.7091 100.441 34.424 99.3895 35.0253 97.951H34.6922C34.2191 98.4522 33.3104 99.1197 32.53 99.2609L34.2449 94.4471H35.9981L36.2148 93.7153H34.5131L35.1661 91.8673H34.4873L33.2721 93.7153L32.0694 93.9208V94.4471ZM39.4014 92.8038L41.8967 90.4679V90.1981H40.5532L39.0174 92.8038H39.4014ZM40.1052 97.9643H39.6704C39.1198 98.6192 38.5318 99.1323 37.9429 99.1323C37.3416 99.1323 37.0343 98.773 37.0343 97.9643C37.0343 97.6309 37.0726 97.2975 37.1367 96.9893L40.6815 95.8206C41.3727 94.178 40.5407 93.4588 39.5679 93.4588C37.8913 93.4588 35.9848 96.27 35.9848 98.7346C35.9848 99.8382 36.5095 100.441 37.3283 100.441C38.2878 100.441 39.2864 99.5048 40.1052 97.9643V97.9643ZM38.8899 94.4087C39.363 94.4087 39.7728 94.7679 39.5554 95.6794L37.3541 96.1924C37.7381 95.1664 38.3777 94.4087 38.8899 94.4087" fill="#040606"/>
<path d="M18.6944 17.1899C18.6502 17.1456 18.8256 17.1899 18.8698 17.1019H18.519C18.4755 17.1019 18.4755 17.0583 18.4755 17.0147C18.2566 17.0583 17.9936 17.1456 17.7747 17.1899C17.4681 17.2779 17.205 17.4974 16.855 17.5854C16.3737 17.7606 15.9787 18.1568 15.454 18.332C15.4098 18.332 15.4098 18.2884 15.4098 18.2448C15.454 18.1125 15.6287 18.0681 15.7164 17.9373C15.7164 17.8929 15.7164 17.8493 15.6721 17.8493C16.0229 17.3658 16.5049 17.1019 16.9427 16.7072V16.5749C17.0738 16.3997 17.2927 16.3117 17.3804 16.0922C17.4246 15.9599 17.5993 15.7847 17.8189 15.696C17.7747 15.6523 17.687 15.6523 17.687 15.5651C17.5123 15.5651 17.3369 15.6523 17.1615 15.5208C17.2433 15.4387 17.3369 15.3936 17.4357 15.3641C17.3981 15.3574 17.3642 15.3382 17.3369 15.3005C17.2927 15.2133 17.4209 15.1149 17.5558 15.0809C17.7312 15.0373 17.9501 15.0373 18.0813 14.9057C17.7747 14.8621 17.4246 14.993 17.1173 14.8178C17.3369 14.2471 17.687 13.7629 18.2124 13.4998C18.2567 13.4998 18.3436 13.4998 18.3436 13.5434C18.3436 13.7629 18.2124 13.9396 17.9936 13.9832C18.3436 14.0704 18.6944 14.0704 19.0452 14.2471C19.001 14.3351 18.9133 14.2907 18.8698 14.2907C19.0887 14.4223 19.3518 14.3351 19.5699 14.5103C19.4387 14.6426 19.3076 14.5103 19.1764 14.5103C20.5338 14.9057 21.979 15.2133 23.1176 16.0922C22.1544 16.5749 21.147 16.7944 20.0961 17.0147C19.9649 17.0147 19.8765 17.0147 19.7453 16.9704C19.7453 17.0147 19.7453 17.1019 19.7018 17.1019C19.5264 17.1019 19.3952 17.1019 19.2641 17.1899C19.0887 17.2779 18.8256 17.3222 18.6944 17.1899ZM17.7975 20.2458C17.7938 20.2488 17.7902 20.251 17.7865 20.254C17.6229 20.3693 17.4593 20.4876 17.2868 20.5881C17.0989 20.6968 16.9029 20.7795 16.709 20.8727C16.7076 20.869 16.7054 20.8653 16.7031 20.8623C16.6884 20.8409 16.6575 20.8291 16.6294 20.8439C16.4636 20.934 16.3221 21.0531 16.1887 21.1809C16.1681 21.2009 16.1475 21.2201 16.1276 21.2401C16.1261 21.2408 16.1254 21.2423 16.1239 21.243C16.1232 21.2445 16.1217 21.2452 16.1202 21.2467C16.0996 21.2674 16.0789 21.2881 16.0583 21.3088C16.0554 21.311 16.0531 21.314 16.0509 21.3162C16.0495 21.3177 16.0495 21.3192 16.048 21.3206C16.017 21.3517 15.9868 21.3827 15.9529 21.4234C15.9308 21.4493 15.9234 21.4648 15.8947 21.4848C15.8674 21.5025 15.7923 21.5025 15.7989 21.4522C15.7996 21.4493 15.7989 21.4463 15.7996 21.4434C15.7738 21.4567 15.7473 21.4707 15.7215 21.4833C15.6979 21.4944 15.6758 21.5077 15.6537 21.5202C15.6434 21.5173 15.6338 21.5158 15.6235 21.5165C15.6117 21.5173 15.6007 21.5195 15.5918 21.5269C15.538 21.569 15.485 21.6134 15.4334 21.6607C15.342 21.7435 15.2558 21.8344 15.1791 21.932C15.1776 21.9327 15.1769 21.9342 15.1754 21.9357C15.1725 21.9401 15.1695 21.9438 15.1666 21.9482C15.1622 21.9534 15.1577 21.9593 15.1533 21.9652C15.1489 21.9712 15.1445 21.9771 15.1393 21.983C15.1386 21.9845 15.1364 21.9867 15.1356 21.9882C15.1253 22.0029 15.1157 22.0177 15.1054 22.0325C15.1047 22.0333 15.1047 22.034 15.1039 22.0347C15.0966 22.0429 15.084 22.0488 15.0678 22.0517C15.0619 22.0429 15.056 22.0355 15.0501 22.0259C15.0465 22.0192 15.042 22.0118 15.0384 22.0052C15.0251 21.9815 15.0126 21.9586 15.0008 21.9342C15.0008 21.9335 15 21.9327 14.9993 21.932C14.9956 21.9246 14.9927 21.9179 14.989 21.9098C15.0369 21.8588 15.0826 21.8056 15.1268 21.7516C15.1297 21.7479 15.1327 21.7442 15.1356 21.7413C15.1504 21.7228 15.1659 21.7036 15.1806 21.6843C15.2056 21.6533 15.23 21.6222 15.2543 21.5905L15.2816 21.5557C15.3295 21.4929 15.3751 21.4315 15.4179 21.3702C15.4194 21.3687 15.4201 21.3672 15.4216 21.365C15.4275 21.3569 15.4341 21.3473 15.44 21.3376C15.4614 21.3066 15.4813 21.2756 15.5004 21.243C15.5174 21.2149 15.5329 21.1854 15.5483 21.1558C15.5491 21.1536 15.5505 21.1514 15.5513 21.1491C15.5535 21.1469 15.555 21.144 15.5564 21.1403C15.5594 21.1351 15.5609 21.1292 15.5631 21.124C15.5785 21.0908 15.5925 21.056 15.6051 21.022C15.6066 21.0183 15.608 21.0139 15.6088 21.0102C15.6124 21.0006 15.6154 20.9917 15.6191 20.9813C15.6235 20.9651 15.6279 20.9496 15.6323 20.9326C15.6338 20.9296 15.6338 20.9259 15.6353 20.9222C15.6404 20.9015 15.6463 20.8801 15.65 20.8579C15.6522 20.8461 15.6493 20.8365 15.6449 20.8283C15.692 20.7455 15.751 20.6664 15.8188 20.591C15.8122 20.5947 15.8048 20.5977 15.7982 20.6021C15.7355 20.6428 15.6942 20.6997 15.636 20.7433C15.5881 20.7788 15.5004 20.7197 15.5572 20.6775C15.5948 20.6487 15.6242 20.6169 15.6559 20.5873C15.6581 20.5844 15.6589 20.5822 15.6611 20.58C15.7333 20.5083 15.8018 20.4166 15.8844 20.3567C15.9345 20.3198 15.978 20.2887 16.0192 20.254C16.0259 20.248 16.0318 20.2421 16.0384 20.2362C16.0686 20.1956 16.1018 20.1593 16.1364 20.1253C16.1379 20.1239 16.1394 20.1224 16.1408 20.1209C16.5602 19.7151 17.2662 19.7328 17.8189 19.4748C18.037 19.3869 18.3001 19.5177 18.519 19.4748C18.6502 19.4748 18.7821 19.4748 18.9133 19.5621C18.5197 19.7772 18.1564 20.0204 17.7975 20.2458V20.2458ZM18.5824 20.6088C18.5625 20.6568 18.5183 20.699 18.4748 20.7374C18.5293 20.7478 18.5676 20.7729 18.5323 20.8054C18.4306 20.8993 18.334 20.9924 18.2006 21.0375C18.1911 21.0405 18.1645 21.0449 18.1328 21.0471C18.0798 21.0989 18.0252 21.1499 17.97 21.2002C17.9176 21.246 17.6767 21.2127 17.7504 21.1477C17.8616 21.0486 17.9648 20.9414 18.0739 20.8409C18.1358 20.784 18.2014 20.73 18.2566 20.6657C18.2869 20.6302 18.3119 20.5955 18.3502 20.5689C18.3864 20.543 18.6178 20.523 18.5824 20.6088V20.6088ZM16.5484 14.0276C16.5049 14.1148 16.4563 14.1244 16.4172 14.2027C16.3737 14.2907 16.3295 14.3351 16.2418 14.3779C16.1983 14.3779 16.1541 14.3779 16.1541 14.3351C16.1983 14.1584 16.3295 13.9832 16.5049 13.9396C16.5484 13.9396 16.5484 13.9832 16.5484 14.0276V14.0276ZM12.913 16.9268C12.913 16.9268 12.8695 16.8824 12.8695 16.838C13.4392 16.0922 13.8769 15.3884 14.2712 14.5982C14.8409 14.2907 15.3132 13.8427 15.7606 13.3682C16.5049 12.5772 17.2927 11.875 18.2124 11.4351C18.5632 11.3035 19.001 11.3472 19.3518 11.4787C19.2199 11.6547 19.001 11.6111 18.8256 11.7426C18.7821 11.7426 18.7386 11.7426 18.6944 11.6983C18.7386 11.6547 18.7386 11.6111 18.7386 11.5674C18.3001 12.0502 17.687 12.2697 17.3369 12.8404C17.0738 13.2802 16.8984 13.8509 16.3295 13.9832C16.1541 14.0276 16.3737 13.8509 16.2853 13.8952C14.9278 14.7298 13.9646 15.7403 12.913 16.9268ZM19.6141 17.8929C19.5264 17.8929 19.3518 17.9373 19.3952 17.8493C19.4387 17.6297 19.7453 17.6297 19.9207 17.5418C20.0084 17.4974 20.1396 17.4095 20.2273 17.4531C20.315 17.5854 20.4462 17.5418 20.5338 17.6297C20.2715 17.8929 19.9207 17.7606 19.6141 17.8929V17.8929ZM26.3492 21.0397C26.5983 20.7906 26.8488 20.523 27.0987 20.254H27.0928C27.5585 19.7254 28.0147 19.222 28.5542 18.7578C28.7185 18.6107 28.8777 18.4813 29.0302 18.3756C29.0737 18.332 29.0737 18.2448 29.1179 18.2004C28.8991 18.2884 28.7671 18.4643 28.549 18.5523C28.5048 18.5523 28.4606 18.5079 28.5048 18.4643C28.661 18.346 28.8165 18.2293 28.9727 18.1117C28.9632 18.1125 28.9529 18.1125 28.9425 18.1125C28.8991 18.1125 28.8991 18.0681 28.8991 18.0245C28.3294 17.9373 27.8916 18.332 27.4974 18.6839C27.4097 18.7275 27.3227 18.6395 27.2785 18.6395C26.6219 18.8598 26.1399 19.4305 25.4825 19.6944V19.6064C25.2202 19.6944 24.9652 19.854 24.6947 19.9139C24.3004 20.0019 23.9496 19.9575 23.5996 19.9575C23.069 20.0108 22.5376 20.1283 22.007 20.2421C21.9923 20.2458 21.9768 20.2495 21.9613 20.254C21.6769 20.3316 21.4079 20.4388 21.1455 20.5837C21.1352 20.5888 21.1249 20.594 21.1153 20.6007C21.0932 20.628 21.0726 20.6546 21.0519 20.6768C20.9576 20.7803 20.8765 20.8756 20.752 20.9392C20.4823 21.0767 20.2626 21.3162 20.0253 21.5106C20.0084 21.5239 19.9826 21.5313 19.9546 21.5328C19.7202 21.759 19.4888 21.9874 19.2493 22.2099C19.2324 22.2254 19.1653 22.2343 19.1159 22.2254C19.1174 22.2247 19.1189 22.224 19.1196 22.2225C19.1277 22.2077 19.1366 22.1944 19.1447 22.1804C19.1823 22.1183 19.2191 22.0562 19.2574 21.9948C19.2994 21.9261 19.3429 21.8581 19.3871 21.7908C19.4468 21.7006 19.508 21.6097 19.5736 21.5232C19.5905 21.501 19.5861 21.4811 19.5721 21.4655C19.5581 21.4515 19.5353 21.4426 19.5117 21.4426C19.7298 21.2305 19.9892 21.0494 20.2464 20.8926V20.8852C20.217 20.8956 20.1749 20.8712 20.1971 20.8402C20.2251 20.8017 20.2464 20.7603 20.2722 20.7204C20.2774 20.7078 20.2818 20.6945 20.2862 20.682C20.2759 20.6701 20.2641 20.6583 20.2531 20.6472C20.1831 20.6931 20.1072 20.7374 20.0475 20.7914C19.9428 20.886 19.861 21.0804 19.7018 21.0782C19.6915 21.0782 19.6606 21.0767 19.6355 21.0686C19.6163 21.0649 19.6001 21.0597 19.5891 21.0531C19.5913 21.0494 19.5928 21.0464 19.595 21.0427C19.5972 21.0383 19.5994 21.0346 19.6016 21.0301C19.6038 21.0264 19.606 21.0235 19.6075 21.0198C19.6149 21.0065 19.6215 20.9939 19.6289 20.9813C19.6355 20.9688 19.6429 20.9562 19.6495 20.9436C19.6554 20.9333 19.6606 20.9237 19.6664 20.9133C19.6768 20.8949 19.6871 20.8756 19.6974 20.8572C19.7048 20.8439 19.7129 20.8313 19.7202 20.8172C19.7387 20.7847 19.7578 20.7529 19.777 20.7204C19.7858 20.7056 19.7947 20.6894 19.8035 20.6746C19.8197 20.648 19.8345 20.6206 19.8507 20.594C19.8721 20.5578 19.8492 20.5282 19.8175 20.5156C19.8986 20.4099 19.9981 20.3212 20.1175 20.254H20.1042C20.2722 20.169 20.4395 20.0662 20.6075 19.9716C20.6311 19.9501 20.6554 19.9294 20.6798 19.9087C20.4292 19.993 20.2052 20.1069 19.9833 20.254C19.9833 20.254 19.9251 20.2776 19.9089 20.2931C19.9089 20.2931 19.8588 20.3131 19.7998 20.254C19.7939 20.2458 19.7895 20.2355 19.7895 20.2214C19.833 20.1327 19.9649 20.0899 20.0519 20.0019C20.0961 20.0019 20.1396 20.0019 20.1396 20.0455C21.5413 18.947 23.4684 19.2109 25.089 18.6395C25.2202 18.5523 25.3513 18.4643 25.4825 18.3756C25.7021 18.2884 25.8768 18.0681 26.1399 17.9373C26.4907 17.6734 26.753 17.3658 26.8842 16.9268C26.8842 16.8824 26.8407 16.838 26.8407 16.838C26.2711 17.4531 25.6144 17.9373 24.9136 18.2884C23.9939 18.7718 22.9864 18.6839 22.0232 18.8154C22.0667 18.7275 22.1544 18.7275 22.2414 18.7275C22.2414 18.5959 22.3298 18.5523 22.4168 18.4643H22.5487C22.5922 18.4643 22.5922 18.3756 22.6364 18.3756C22.7233 18.3756 22.8553 18.332 22.811 18.332C22.6799 18.1568 22.4168 18.4643 22.1979 18.332C22.2856 18.2448 22.2414 18.1125 22.3298 18.0681H22.5045C22.5045 17.9809 22.5922 17.8929 22.5922 17.8929C23.2495 17.4974 23.8627 17.1899 24.4758 16.838C24.3447 16.838 24.2562 16.9704 24.125 16.8824C24.2127 16.8824 24.125 16.7508 24.2127 16.7508C24.6947 16.6192 25.089 16.3553 25.571 16.1801C25.3956 16.1801 25.2636 16.3117 25.089 16.1801C25.1759 16.1358 25.2202 16.0478 25.3513 16.0478V15.9155C25.3513 15.8719 25.3956 15.8719 25.439 15.8719C25.3956 15.8719 25.3513 15.8283 25.3513 15.8283C25.3956 15.7403 25.5267 15.7847 25.6144 15.696C25.571 15.696 25.4825 15.696 25.4825 15.6523C25.6144 15.4772 25.8333 15.4328 26.0522 15.3884C26.0087 15.3005 25.8768 15.3884 25.8768 15.3005C25.8768 15.2576 25.921 15.2576 25.9645 15.2576H25.8768C25.7891 15.2133 25.8333 15.1253 25.8333 15.0809C26.0957 14.7734 26.0957 14.3779 26.2276 14.0276C26.1834 14.0276 26.1399 14.0276 26.1399 13.9832C25.7021 14.4659 25.0013 14.6426 24.3447 14.8178H24.125C23.9062 14.9057 23.5996 14.9057 23.3807 14.7734C23.2053 14.6855 23.1176 14.5546 22.943 14.4223C22.5922 14.2027 22.2414 14.0276 21.8478 13.8952C20.7527 13.5434 19.6141 13.3682 18.4755 13.4125C18.9568 13.1486 19.4888 13.1257 20.0084 12.9727C20.7527 12.7531 21.4536 12.49 22.2414 12.5336C22.1109 12.49 21.9355 12.5336 21.8036 12.5336C21.1912 12.49 20.5773 12.6652 19.9207 12.7975C19.4829 12.8847 19.0887 13.0607 18.6502 13.1486C18.3878 13.2359 18.2566 13.4998 17.9501 13.4554V13.3246C18.3878 12.7975 18.9133 12.2697 19.6141 12.2261C20.4027 12.0938 21.147 12.2261 21.9355 12.3133C22.5045 12.3577 23.0299 12.49 23.5996 12.6208C23.8185 12.6208 23.8627 12.9727 24.0373 13.0163C24.3004 13.105 24.5628 13.0163 24.8259 13.1922C24.8259 13.105 24.7824 13.0163 24.8259 12.9283C25.0013 12.7531 25.2202 12.9727 25.3956 12.8847C25.7456 12.6652 25.089 12.2697 24.9136 11.9622C24.9136 11.9186 24.9578 11.875 24.9578 11.875C25.3079 12.1825 25.571 12.5336 26.0087 12.7531C26.2276 12.8404 26.753 12.9727 26.6653 12.7088C26.4465 12.2261 26.0087 11.8306 25.6579 11.3908V11.2156C25.571 11.2156 25.571 11.1712 25.5267 11.1276V10.9524C25.3513 10.8637 25.3956 10.6885 25.3079 10.5562C25.1759 10.3367 25.2636 10.0291 25.1759 9.76598C25.089 9.50282 25.0448 9.28253 25.0013 9.01863C24.8694 8.27276 24.6947 7.61338 24.607 6.91039C24.5193 6.07582 25.089 5.41644 25.4825 4.66983C25.7891 4.14277 26.1399 3.61571 26.7088 3.26384C26.8407 2.73678 27.1908 2.29769 27.5416 1.85859C27.8909 1.42985 28.4724 1.16817 28.8932 0.979667C29.5048 0.705418 30.0568 0.533922 30.0568 0.533922H0V23.7815H21.2855C22.1198 23.1798 22.9525 22.8937 24.1162 22.3178C24.666 22.0466 25.9232 21.467 26.3492 21.0397" fill="#29387D"/>
<path d="M63.7357 0.533677H38.8044C38.8044 0.533677 38.8516 0.541809 39.041 0.643082C39.2436 0.752486 39.506 0.892936 39.6703 0.980163C39.9916 1.14797 40.3041 1.35938 40.5053 1.68242C40.593 1.814 40.7242 2.0779 40.6365 2.25309C40.5488 2.47338 40.5053 2.82524 40.2864 2.91247C40.0233 3.04405 39.6733 3.04405 39.3667 3.00044C39.1913 3.00044 39.0159 2.95609 38.8412 2.91247C39.4979 3.17563 40.111 3.48315 40.5488 4.09817C40.593 4.18614 40.7676 4.23049 40.943 4.23049C40.9873 4.23049 40.9873 4.31846 40.9873 4.36281C40.8996 4.45004 40.8119 4.49365 40.8553 4.62597H40.9873C41.2061 4.538 41.1619 4.09817 41.4685 4.23049C41.6881 4.36281 41.7751 4.67032 41.6439 4.88987C41.4685 5.06507 41.2931 5.19738 41.1184 5.32823C41.0742 5.41619 41.0742 5.54851 41.1184 5.63574C41.2496 5.81241 41.2931 5.98761 41.3373 6.16354C41.4685 6.47105 41.5127 6.82218 41.6439 7.12969C41.8193 7.78833 41.9947 8.44771 41.9505 9.10709C41.9505 9.45822 41.7751 9.76573 41.9062 10.1176C41.9947 10.468 42.2128 10.7326 42.3882 11.0394C42.5636 11.3033 42.739 11.4792 42.8702 11.7424C43.1325 12.1822 43.6145 12.6213 43.3956 13.1484C43.2645 13.4552 42.7825 13.4123 42.4759 13.5875C42.2128 13.807 42.4324 14.1589 42.5636 14.3784C42.7825 14.7739 42.3005 15.0371 41.9947 15.1694C42.0816 15.301 42.257 15.2574 42.3005 15.3446C42.3447 15.5649 42.5636 15.6965 42.4324 15.916C42.257 16.1799 41.7316 16.3115 41.9947 16.707C42.1693 17.0145 42.0558 17.356 41.9505 17.6739C41.8193 18.0686 41.4685 18.2445 41.1619 18.3318C40.8996 18.4197 40.593 18.4197 40.3299 18.3761C40.2422 18.3318 40.1545 18.2889 40.0675 18.2889C39.3225 18.2002 38.5781 17.9814 37.8338 17.9814C37.6149 18.0242 37.3953 18.0686 37.2207 18.1566C37.0224 18.3022 36.8463 18.4604 36.6901 18.6267C36.6886 18.6289 36.6864 18.6304 36.6849 18.6319C36.6525 18.6674 36.6208 18.7028 36.5898 18.7391C36.5707 18.7612 36.5515 18.7834 36.5331 18.8063C36.5206 18.8211 36.508 18.8366 36.4962 18.8514C36.368 19.0118 36.253 19.1819 36.1513 19.3578C36.1447 19.3689 36.1381 19.38 36.1314 19.3918C36.1204 19.4118 36.1093 19.4317 36.0983 19.4531C35.9538 19.72 35.8455 19.992 35.7659 20.2589C35.4689 21.265 35.5986 22.1284 35.8079 22.3376C35.8661 22.396 37.2531 22.8254 38.2192 23.2564C38.6732 23.4597 38.9901 23.6157 39.2532 23.7812H63.7357V0.533677Z" fill="#EA1C24"/>
<path d="M40.2874 9.01525C40.4628 9.05886 40.7251 9.05886 40.7251 9.14683C40.6382 9.49795 40.112 9.58592 39.8496 9.93779H39.7177C39.5865 10.025 39.63 10.2453 39.4988 10.2453C39.3669 10.2009 39.2357 10.2453 39.1053 10.2889C39.2799 10.4648 39.4988 10.5972 39.7619 10.5521C39.8054 10.5521 39.8931 10.64 39.8931 10.728C39.8931 10.728 39.9366 10.728 39.9808 10.6844C40.025 10.6844 40.0685 10.6844 40.0685 10.728V10.9047C39.9366 11.0799 39.7177 10.9919 39.543 11.0355C39.8931 11.1242 40.2432 11.1242 40.5497 11.0355C40.8128 10.9476 40.5497 10.5092 40.7251 10.2889C40.6382 10.2889 40.7251 10.1573 40.6382 10.1573C40.7251 10.0694 40.8128 9.93779 40.9005 9.89343C40.9882 9.89343 41.1194 9.84982 41.1629 9.76185C41.1629 9.67463 40.9882 9.63027 41.0317 9.54231C41.2948 9.36711 41.5137 9.10247 41.426 8.83931C41.3825 8.70773 41.0317 8.70773 40.8128 8.61977C40.5939 8.5318 40.3308 8.61977 40.0685 8.66338C39.8496 8.66338 39.63 8.79496 39.4119 8.83931C39.1053 8.92728 38.8422 9.10247 38.5791 9.27841C38.8857 9.14683 39.1923 9.10247 39.543 9.01525C39.8054 9.01525 40.0287 8.9502 40.2874 9.01525" fill="#8E9190"/>
</svg>
