<svg width="225" height="218" viewBox="0 0 225 218" fill="none" xmlns="http://www.w3.org/2000/svg">
<path d="M151 151.667C151 151.114 150.552 150.667 150 150.667C149.448 150.667 149 151.114 149 151.667C149 152.219 149.448 152.667 150 152.667C150.552 152.667 151 152.219 151 151.667Z" fill="#E1000F"/>
<path d="M145.684 152.937C145.272 152.549 144.605 152.579 144.232 153.026L139.232 159.026L139.164 159.117C138.732 159.765 139.191 160.667 140 160.667H146L146.117 160.66C146.614 160.602 147 160.179 147 159.667L146.993 159.55C146.936 159.053 146.513 158.667 146 158.667H142.135L145 155.229L146.76 157.34L146.846 157.431C147.209 157.771 147.776 157.794 148.168 157.468C148.592 157.115 148.65 156.484 148.296 156.06L145.768 153.026L145.684 152.937Z" fill="#E1000F"/>
<path d="M154.555 182.834C154.39 182.725 154.197 182.667 154 182.667H134L133.883 182.673C133.386 182.731 133 183.154 133 183.667L133.007 183.783C133.064 184.28 133.487 184.667 134 184.667H153.705L153.805 184.732C155.846 186.015 157.915 186.667 160 186.667L160.368 186.66C162.329 186.588 164.274 185.94 166.195 184.732L166.294 184.667H186L186.117 184.66C186.614 184.602 187 184.179 187 183.667C187 183.114 186.552 182.667 186 182.667H166L165.882 182.673C165.727 182.692 165.577 182.747 165.445 182.834C163.602 184.063 161.792 184.667 160 184.667C158.208 184.667 156.398 184.063 154.555 182.834Z" fill="#E1000F"/>
<path d="M151.293 156.959C151.653 156.599 152.221 156.571 152.613 156.876L152.707 156.959L154.707 158.959C155.098 159.35 155.098 159.983 154.707 160.374C154.347 160.734 153.779 160.762 153.387 160.457L153.293 160.374L152 159.082L150.707 160.374C150.347 160.734 149.779 160.762 149.387 160.457L149.293 160.374C148.932 160.013 148.905 159.446 149.21 159.054L149.293 158.959L151.293 156.959Z" fill="#E1000F"/>
<path d="M179 143.667C179 143.114 178.552 142.667 178 142.667C176.951 142.667 175.714 142.764 174.288 142.959L173.491 143.075C173.083 143.138 172.661 143.208 172.225 143.285L171.334 143.449L170.406 143.633L169.439 143.836L168.435 144.058C168.264 144.096 168.092 144.136 167.918 144.176L166.857 144.426L165.757 144.697C165.222 144.83 164.896 145.373 165.03 145.909C165.164 146.445 165.707 146.771 166.243 146.637C166.424 146.591 166.604 146.547 166.782 146.503L167.832 146.25L168.845 146.015C169.01 145.978 169.174 145.941 169.337 145.905L170.292 145.699L171.209 145.512L172.087 145.343L172.927 145.193C173.064 145.17 173.199 145.147 173.333 145.125L174.116 145.003C174.37 144.966 174.618 144.932 174.86 144.901L175.565 144.816C176.48 144.717 177.292 144.667 178 144.667C178.552 144.667 179 144.219 179 143.667Z" fill="#000091"/>
<path d="M178 148.667C178.552 148.667 179 149.114 179 149.667C179 150.219 178.552 150.667 178 150.667C177.292 150.667 176.48 150.717 175.565 150.816L174.86 150.901C174.618 150.932 174.37 150.966 174.116 151.003L173.333 151.125C173.199 151.147 173.064 151.17 172.927 151.193L172.087 151.343L171.209 151.512L170.292 151.699L169.337 151.905C169.174 151.941 169.01 151.978 168.845 152.015L167.832 152.25L166.782 152.503C166.604 152.547 166.424 152.591 166.243 152.637C165.707 152.771 165.164 152.445 165.03 151.909C164.896 151.373 165.222 150.83 165.757 150.697L166.857 150.426L167.918 150.176C168.092 150.136 168.264 150.096 168.435 150.058L169.439 149.836L170.406 149.633L171.334 149.449L172.225 149.285C172.661 149.208 173.083 149.138 173.491 149.075L174.288 148.959C175.714 148.764 176.951 148.667 178 148.667Z" fill="#000091"/>
<path d="M179 155.667C179 155.114 178.552 154.667 178 154.667C176.951 154.667 175.714 154.764 174.288 154.959L173.491 155.075C173.083 155.138 172.661 155.208 172.225 155.285L171.334 155.449L170.406 155.633L169.439 155.836L168.435 156.058C168.264 156.096 168.092 156.136 167.918 156.176L166.857 156.426L165.757 156.697C165.222 156.83 164.896 157.373 165.03 157.909C165.164 158.445 165.707 158.771 166.243 158.637C166.424 158.591 166.604 158.547 166.782 158.503L167.832 158.25L168.845 158.015C169.01 157.978 169.174 157.941 169.337 157.905L170.292 157.699L171.209 157.512L172.087 157.343L172.927 157.193C173.064 157.17 173.199 157.147 173.333 157.125L174.116 157.003C174.37 156.966 174.618 156.932 174.86 156.901L175.565 156.816C176.48 156.717 177.292 156.667 178 156.667C178.552 156.667 179 156.219 179 155.667Z" fill="#000091"/>
<path fill-rule="evenodd" clip-rule="evenodd" d="M156.707 180.374C157.855 179.226 158.938 178.678 159.967 178.667C159.973 178.667 159.98 178.667 159.986 178.667C159.991 178.667 159.996 178.667 160 178.667H160.004C160.014 178.667 160.023 178.667 160.033 178.667C161.062 178.678 162.145 179.226 163.293 180.374C163.48 180.561 163.735 180.667 164 180.667H174L174.117 180.66C174.614 180.602 175 180.179 175 179.667L174.993 179.55C174.936 179.053 174.513 178.667 174 178.667H164.402L164.229 178.508C163.979 178.285 163.728 178.082 163.475 177.899L163.534 177.889L164.187 177.784L164.873 177.683L165.59 177.586L166.34 177.495L167.122 177.408L167.937 177.326L168.783 177.249L169.662 177.176L170.573 177.109L171.515 177.046L172.99 176.961L174.536 176.886L175.607 176.842L176.71 176.804L177.845 176.77L179.607 176.728L181.442 176.697L183.347 176.676L185.325 176.667C185.549 176.667 185.774 176.667 186 176.667C186.552 176.667 187 176.219 187 175.667V138.516L189.001 141.017L189 159.667C189 160.179 189.386 160.602 189.883 160.66L190 160.667C190.513 160.667 190.936 160.281 190.993 159.783L191 159.667V140.667C191 140.485 190.951 140.308 190.858 140.153L190.781 140.042L186.798 135.064C186.628 134.838 186.364 134.686 186.061 134.668C175.311 134.009 166.623 135.288 160 138.532C153.377 135.288 144.689 134.009 133.939 134.668C133.636 134.686 133.371 134.839 133.201 135.065L129.219 140.042L129.142 140.153C129.049 140.308 129 140.485 129 140.667V145.667L129.007 145.783C129.064 146.281 129.487 146.667 130 146.667L130.117 146.66C130.614 146.602 131 146.179 131 145.667L130.999 141.017L133 138.516V175.667C133 176.219 133.448 176.667 134 176.667C134.226 176.667 134.451 176.667 134.675 176.667L136.653 176.676L138.558 176.697L140.393 176.728L142.155 176.77L143.29 176.804L144.393 176.842L145.464 176.886L147.01 176.961L148.485 177.046L149.427 177.109L150.338 177.176L151.217 177.249L152.063 177.326L152.878 177.408L153.66 177.495L154.41 177.586L155.127 177.683L155.813 177.784L156.466 177.889L156.525 177.899C156.272 178.082 156.021 178.285 155.771 178.508L155.597 178.667H131V175.667L130.993 175.55C130.936 175.053 130.513 174.667 130 174.667C129.448 174.667 129 175.114 129 175.667V179.667L129.007 179.783C129.064 180.281 129.487 180.667 130 180.667H156L156.131 180.658C156.348 180.629 156.551 180.53 156.707 180.374ZM159 176.361V140.27L158.689 140.122C152.754 137.336 145.015 136.151 135.471 136.589L135 136.612V174.668L136.046 174.672L138.045 174.69L139.968 174.719L141.209 174.745L142.416 174.776L144.164 174.832L145.288 174.876L146.378 174.926L147.435 174.98L148.458 175.04L149.449 175.105L150.406 175.176L151.329 175.251L152.22 175.332L153.077 175.419L153.901 175.51L154.692 175.607L155.45 175.71C155.574 175.727 155.696 175.745 155.817 175.763L156.525 175.873L157.2 175.988L157.842 176.109L158.451 176.236L159 176.361ZM161.549 176.236L161 176.361V140.27L161.311 140.122C167.246 137.336 174.985 136.151 184.529 136.589L185 136.612V174.668L183.954 174.672L181.955 174.69L180.032 174.719L178.791 174.745L177.584 174.776L175.836 174.832L174.712 174.876L173.622 174.926L172.565 174.98L171.542 175.04L170.551 175.105L169.594 175.176L168.671 175.251L167.78 175.332L166.923 175.419L166.099 175.51L165.308 175.607L164.55 175.71C164.426 175.727 164.304 175.745 164.183 175.763L163.475 175.873L162.8 175.988L162.158 176.109L161.549 176.236Z" fill="#000091"/>
<path d="M190.993 165.55C190.936 165.053 190.513 164.667 190 164.667L189.883 164.673C189.386 164.731 189 165.154 189 165.667V178.667H182L181.883 178.673C181.386 178.731 181 179.154 181 179.667C181 180.219 181.448 180.667 182 180.667H190L190.117 180.66C190.614 180.602 191 180.179 191 179.667V165.667L190.993 165.55Z" fill="#000091"/>
<path d="M130 150.667C130.513 150.667 130.936 151.053 130.993 151.55L131 151.667V169.667C131 170.219 130.552 170.667 130 170.667C129.487 170.667 129.064 170.281 129.007 169.783L129 169.667V151.667C129 151.114 129.448 150.667 130 150.667Z" fill="#000091"/>
<path d="M55 45.6665C55 45.1142 54.5523 44.6665 54 44.6665C53.4477 44.6665 53 45.1142 53 45.6665C53 46.2188 53.4477 46.6665 54 46.6665C54.5523 46.6665 55 46.2188 55 45.6665Z" fill="#E1000F"/>
<path d="M49.684 46.9368C49.2717 46.5487 48.6049 46.5785 48.2318 47.0263L43.2318 53.0263L43.1639 53.1171C42.7319 53.7655 43.1907 54.6665 44 54.6665H50L50.1166 54.6598C50.614 54.602 51 54.1793 51 53.6665L50.9933 53.5499C50.9355 53.0525 50.5128 52.6665 50 52.6665H46.135L49 49.2285L50.7596 51.34L50.8459 51.4314C51.2089 51.7707 51.7763 51.7944 52.168 51.4681C52.5923 51.1145 52.6496 50.484 52.296 50.0597L49.7682 47.0263L49.684 46.9368Z" fill="#E1000F"/>
<path d="M58.5547 76.8345C58.3904 76.7249 58.1974 76.6665 58 76.6665H38L37.8834 76.6732C37.386 76.731 37 77.1537 37 77.6665L37.0067 77.7831C37.0645 78.2805 37.4872 78.6665 38 78.6665H57.705L57.8051 78.7317C59.8457 80.0154 61.9148 80.6665 64 80.6665L64.3678 80.6597C66.3286 80.5877 68.2743 79.9399 70.1949 78.7317L70.294 78.6665H90L90.1166 78.6598C90.614 78.602 91 78.1793 91 77.6665C91 77.1142 90.5523 76.6665 90 76.6665H70L69.8823 76.6735C69.7265 76.6919 69.5767 76.7468 69.4453 76.8345C67.6023 78.0631 65.7921 78.6665 64 78.6665C62.2079 78.6665 60.3977 78.0631 58.5547 76.8345Z" fill="#E1000F"/>
<path d="M55.2929 50.9594C55.6534 50.5989 56.2206 50.5712 56.6129 50.8762L56.7071 50.9594L58.7071 52.9594C59.0976 53.3499 59.0976 53.9831 58.7071 54.3736C58.3466 54.7341 57.7794 54.7618 57.3871 54.4568L57.2929 54.3736L56 53.0815L54.7071 54.3736C54.3466 54.7341 53.7794 54.7618 53.3871 54.4568L53.2929 54.3736C52.9324 54.0131 52.9047 53.4459 53.2097 53.0536L53.2929 52.9594L55.2929 50.9594Z" fill="#E1000F"/>
<path d="M83 37.6667C83 37.1144 82.5523 36.6667 82 36.6667C80.9507 36.6667 79.7138 36.7643 78.2876 36.9592L77.4908 37.0751C77.0831 37.1379 76.6612 37.208 76.2252 37.2852L75.3343 37.4494L74.4057 37.6329L73.4392 37.8356L72.4347 38.0575C72.2642 38.0961 72.092 38.1355 71.9183 38.1757L70.8569 38.4265L69.7575 38.6965C69.2217 38.8305 68.8959 39.3734 69.0299 39.9092C69.1638 40.445 69.7067 40.7708 70.2425 40.6368C70.4239 40.5915 70.6037 40.5469 70.782 40.5031L71.8324 40.2498L72.8447 40.0154C73.0102 39.9779 73.1742 39.9412 73.3366 39.9052L74.2916 39.699L75.2085 39.5116L76.0871 39.3429L76.9273 39.1931C77.0642 39.1697 77.1994 39.147 77.333 39.1252L78.1156 39.0035C78.3701 38.966 78.6181 38.9317 78.8597 38.9005L79.5652 38.8163C80.4801 38.7165 81.2919 38.6667 82 38.6667C82.5523 38.6667 83 38.2189 83 37.6667Z" fill="#000091"/>
<path d="M82 42.6667C82.5523 42.6667 83 43.1144 83 43.6667C83 44.2189 82.5523 44.6667 82 44.6667C81.2919 44.6667 80.4801 44.7165 79.5652 44.8163L78.8597 44.9005C78.6181 44.9317 78.3701 44.966 78.1156 45.0035L77.333 45.1252C77.1994 45.147 77.0642 45.1697 76.9273 45.1931L76.0871 45.3429L75.2085 45.5116L74.2916 45.699L73.3366 45.9052C73.1742 45.9412 73.0102 45.9779 72.8447 46.0154L71.8324 46.2498L70.782 46.5031C70.6037 46.5469 70.4239 46.5915 70.2425 46.6368C69.7067 46.7708 69.1638 46.445 69.0299 45.9092C68.8959 45.3734 69.2217 44.8305 69.7575 44.6965L70.8569 44.4265L71.9183 44.1757C72.092 44.1355 72.2642 44.0961 72.4347 44.0575L73.4392 43.8356L74.4057 43.6329L75.3343 43.4494L76.2252 43.2852C76.6612 43.208 77.0831 43.1379 77.4908 43.0751L78.2876 42.9592C79.7138 42.7643 80.9507 42.6667 82 42.6667Z" fill="#000091"/>
<path d="M83 49.6667C83 49.1144 82.5523 48.6667 82 48.6667C80.9507 48.6667 79.7138 48.7643 78.2876 48.9592L77.4908 49.0751C77.0831 49.1379 76.6612 49.208 76.2252 49.2852L75.3343 49.4494L74.4057 49.6329L73.4392 49.8356L72.4347 50.0575C72.2642 50.0961 72.092 50.1355 71.9183 50.1757L70.8569 50.4265L69.7575 50.6965C69.2217 50.8305 68.8959 51.3734 69.0299 51.9092C69.1638 52.445 69.7067 52.7708 70.2425 52.6368C70.4239 52.5915 70.6037 52.5469 70.782 52.5031L71.8324 52.2498L72.8447 52.0154C73.0102 51.9779 73.1742 51.9412 73.3366 51.9052L74.2916 51.699L75.2085 51.5116L76.0871 51.3429L76.9273 51.1931C77.0642 51.1697 77.1994 51.147 77.333 51.1252L78.1156 51.0035C78.3701 50.966 78.6181 50.9317 78.8597 50.9005L79.5652 50.8163C80.4801 50.7165 81.2919 50.6667 82 50.6667C82.5523 50.6667 83 50.2189 83 49.6667Z" fill="#000091"/>
<path fill-rule="evenodd" clip-rule="evenodd" d="M60.7071 74.3738C61.8549 73.2259 62.938 72.6783 63.967 72.6668C63.9734 72.667 63.9798 72.6672 63.9862 72.6673C63.9909 72.6673 63.9955 72.6674 64.0002 72.6673H64.0038C64.0135 72.6673 64.0232 72.6672 64.0329 72.6668C65.0619 72.6783 66.145 73.2259 67.2929 74.3738C67.4804 74.5613 67.7348 74.6667 68 74.6667H78L78.1166 74.6599C78.614 74.6022 79 74.1795 79 73.6667L78.9933 73.55C78.9355 73.0527 78.5128 72.6667 78 72.6667H68.402L68.2292 72.5078C67.9794 72.2853 67.7278 72.0824 67.4745 71.8995L67.5341 71.8893L68.1872 71.7836L68.8727 71.6826L69.5904 71.5864L70.3403 71.4949L71.1224 71.4082L71.9367 71.3262L72.7832 71.2489L73.6618 71.1765L74.5725 71.1088L75.5153 71.0459L76.9897 70.9606L78.5362 70.8861L79.6072 70.8424L80.7102 70.8035L81.8451 70.7695L83.6075 70.7276L85.4416 70.6965L87.3474 70.6764L89.3249 70.6673C89.5486 70.6669 89.7737 70.6667 90 70.6667C90.5523 70.6667 91 70.2189 91 69.6667V32.5164L93.001 35.0167L93 53.6667C93 54.1795 93.3861 54.6022 93.8834 54.6599L94 54.6667C94.5129 54.6667 94.9355 54.2806 94.9933 53.7833L95 53.6667V34.6667C95 34.485 94.9506 34.3077 94.8582 34.1532L94.7809 34.042L90.7985 29.0639C90.6281 28.8382 90.3637 28.6864 90.0612 28.6679C79.3111 28.0089 70.6232 29.2883 64 32.5321C57.3768 29.2883 48.6889 28.0089 37.9388 28.6679C37.6359 28.6864 37.3713 28.8385 37.2009 29.0648L33.2191 34.042L33.1419 34.1532C33.0495 34.3077 33 34.485 33 34.6667V39.6667L33.0067 39.7833C33.0645 40.2806 33.4872 40.6667 34 40.6667L34.1166 40.6599C34.614 40.6022 35 40.1795 35 39.6667L34.999 35.0167L37 32.5165V69.6667C37 70.2189 37.4477 70.6667 38 70.6667C38.2264 70.6667 38.4514 70.6669 38.6751 70.6673L40.6526 70.6764L42.5584 70.6965L44.3925 70.7276L46.1549 70.7695L47.2898 70.8035L48.3928 70.8424L49.4638 70.8861L51.0103 70.9606L52.4847 71.0459L53.4275 71.1088L54.3382 71.1765L55.2168 71.2489L56.0633 71.3262L56.8776 71.4082L57.6597 71.4949L58.4096 71.5864L59.1273 71.6826L59.8128 71.7836L60.4659 71.8893L60.5255 71.8995C60.2722 72.0824 60.0206 72.2853 59.7708 72.5078L59.597 72.6667H35V69.6667L34.9933 69.55C34.9355 69.0527 34.5128 68.6667 34 68.6667C33.4477 68.6667 33 69.1144 33 69.6667V73.6667L33.0067 73.7833C33.0645 74.2806 33.4872 74.6667 34 74.6667H60L60.1314 74.658C60.3481 74.6293 60.5508 74.53 60.7071 74.3738ZM63 70.3607V34.2697L62.6894 34.1216C56.7538 31.3358 49.015 30.151 39.4708 30.5885L39 30.6117V68.6677L40.0457 68.6723L42.0447 68.6897L43.9683 68.7187L45.2089 68.7445L46.416 68.7756L48.164 68.832L49.2876 68.8762L50.3779 68.9256L51.4348 68.9802L52.4583 69.0401L53.4486 69.1053L54.4056 69.1757L55.3294 69.2514L56.2199 69.3324L57.0773 69.4187L57.9014 69.5103L58.6924 69.6073L59.4503 69.7095C59.5739 69.727 59.696 69.7447 59.8168 69.7626L60.5251 69.8729L61.2002 69.9884L61.8423 70.1094L62.4514 70.2356L63 70.3607ZM65.5486 70.2356L65 70.3607V34.2697L65.3106 34.1216C71.2462 31.3358 78.985 30.151 88.5292 30.5885L89 30.6117V68.6677L87.9543 68.6723L85.9553 68.6897L84.0317 68.7187L82.7911 68.7445L81.584 68.7756L79.836 68.832L78.7124 68.8762L77.6221 68.9256L76.5652 68.9802L75.5417 69.0401L74.5514 69.1053L73.5944 69.1757L72.6706 69.2514L71.7801 69.3324L70.9227 69.4187L70.0986 69.5103L69.3076 69.6073L68.5497 69.7095C68.4261 69.727 68.304 69.7447 68.1832 69.7626L67.4749 69.8729L66.7998 69.9884L66.1577 70.1094L65.5486 70.2356Z" fill="#000091"/>
<path d="M94.9933 59.55C94.9355 59.0527 94.5128 58.6667 94 58.6667L93.8834 58.6734C93.386 58.7312 93 59.1538 93 59.6667V72.6667H86L85.8834 72.6734C85.386 72.7312 85 73.1538 85 73.6667C85 74.2189 85.4477 74.6667 86 74.6667H94L94.1166 74.6599C94.614 74.6022 95 74.1795 95 73.6667V59.6667L94.9933 59.55Z" fill="#000091"/>
<path d="M34 44.6667C34.5128 44.6667 34.9355 45.0527 34.9933 45.55L35 45.6667V63.6667C35 64.2189 34.5523 64.6667 34 64.6667C33.4872 64.6667 33.0645 64.2806 33.0067 63.7833L33 63.6667V45.6667C33 45.1144 33.4477 44.6667 34 44.6667Z" fill="#000091"/>
<path d="M55 151.667C55 151.114 54.5523 150.667 54 150.667C53.4477 150.667 53 151.114 53 151.667C53 152.219 53.4477 152.667 54 152.667C54.5523 152.667 55 152.219 55 151.667Z" fill="#E1000F"/>
<path d="M49.684 152.937C49.2717 152.549 48.6049 152.579 48.2318 153.026L43.2318 159.026L43.1639 159.117C42.7319 159.765 43.1907 160.667 44 160.667H50L50.1166 160.66C50.614 160.602 51 160.179 51 159.667L50.9933 159.55C50.9355 159.053 50.5128 158.667 50 158.667H46.135L49 155.229L50.7596 157.34L50.8459 157.431C51.2089 157.771 51.7763 157.794 52.168 157.468C52.5923 157.115 52.6496 156.484 52.296 156.06L49.7682 153.026L49.684 152.937Z" fill="#E1000F"/>
<path d="M58.5547 182.834C58.3904 182.725 58.1974 182.667 58 182.667H38L37.8834 182.673C37.386 182.731 37 183.154 37 183.667L37.0067 183.783C37.0645 184.28 37.4872 184.667 38 184.667H57.705L57.8051 184.732C59.8457 186.015 61.9148 186.667 64 186.667L64.3678 186.66C66.3286 186.588 68.2743 185.94 70.1949 184.732L70.294 184.667H90L90.1166 184.66C90.614 184.602 91 184.179 91 183.667C91 183.114 90.5523 182.667 90 182.667H70L69.8823 182.673C69.7265 182.692 69.5767 182.747 69.4453 182.834C67.6023 184.063 65.7921 184.667 64 184.667C62.2079 184.667 60.3977 184.063 58.5547 182.834Z" fill="#E1000F"/>
<path d="M55.2929 156.959C55.6534 156.599 56.2206 156.571 56.6129 156.876L56.7071 156.959L58.7071 158.959C59.0976 159.35 59.0976 159.983 58.7071 160.374C58.3466 160.734 57.7794 160.762 57.3871 160.457L57.2929 160.374L56 159.082L54.7071 160.374C54.3466 160.734 53.7794 160.762 53.3871 160.457L53.2929 160.374C52.9324 160.013 52.9047 159.446 53.2097 159.054L53.2929 158.959L55.2929 156.959Z" fill="#E1000F"/>
<path d="M83 143.667C83 143.114 82.5523 142.667 82 142.667C80.9507 142.667 79.7138 142.764 78.2876 142.959L77.4908 143.075C77.0831 143.138 76.6612 143.208 76.2252 143.285L75.3343 143.449L74.4057 143.633L73.4392 143.836L72.4347 144.058C72.2642 144.096 72.092 144.136 71.9183 144.176L70.8569 144.426L69.7575 144.697C69.2217 144.83 68.8959 145.373 69.0299 145.909C69.1638 146.445 69.7067 146.771 70.2425 146.637C70.4239 146.591 70.6037 146.547 70.782 146.503L71.8324 146.25L72.8447 146.015C73.0102 145.978 73.1742 145.941 73.3366 145.905L74.2916 145.699L75.2085 145.512L76.0871 145.343L76.9273 145.193C77.0642 145.17 77.1994 145.147 77.333 145.125L78.1156 145.003C78.3701 144.966 78.6181 144.932 78.8597 144.901L79.5652 144.816C80.4801 144.717 81.2919 144.667 82 144.667C82.5523 144.667 83 144.219 83 143.667Z" fill="#000091"/>
<path d="M82 148.667C82.5523 148.667 83 149.114 83 149.667C83 150.219 82.5523 150.667 82 150.667C81.2919 150.667 80.4801 150.717 79.5652 150.816L78.8597 150.901C78.6181 150.932 78.3701 150.966 78.1156 151.003L77.333 151.125C77.1994 151.147 77.0642 151.17 76.9273 151.193L76.0871 151.343L75.2085 151.512L74.2916 151.699L73.3366 151.905C73.1742 151.941 73.0102 151.978 72.8447 152.015L71.8324 152.25L70.782 152.503C70.6037 152.547 70.4239 152.591 70.2425 152.637C69.7067 152.771 69.1638 152.445 69.0299 151.909C68.8959 151.373 69.2217 150.83 69.7575 150.697L70.8569 150.426L71.9183 150.176C72.092 150.136 72.2642 150.096 72.4347 150.058L73.4392 149.836L74.4057 149.633L75.3343 149.449L76.2252 149.285C76.6612 149.208 77.0831 149.138 77.4908 149.075L78.2876 148.959C79.7138 148.764 80.9507 148.667 82 148.667Z" fill="#000091"/>
<path d="M83 155.667C83 155.114 82.5523 154.667 82 154.667C80.9507 154.667 79.7138 154.764 78.2876 154.959L77.4908 155.075C77.0831 155.138 76.6612 155.208 76.2252 155.285L75.3343 155.449L74.4057 155.633L73.4392 155.836L72.4347 156.058C72.2642 156.096 72.092 156.136 71.9183 156.176L70.8569 156.426L69.7575 156.697C69.2217 156.83 68.8959 157.373 69.0299 157.909C69.1638 158.445 69.7067 158.771 70.2425 158.637C70.4239 158.591 70.6037 158.547 70.782 158.503L71.8324 158.25L72.8447 158.015C73.0102 157.978 73.1742 157.941 73.3366 157.905L74.2916 157.699L75.2085 157.512L76.0871 157.343L76.9273 157.193C77.0642 157.17 77.1994 157.147 77.333 157.125L78.1156 157.003C78.3701 156.966 78.6181 156.932 78.8597 156.901L79.5652 156.816C80.4801 156.717 81.2919 156.667 82 156.667C82.5523 156.667 83 156.219 83 155.667Z" fill="#000091"/>
<path fill-rule="evenodd" clip-rule="evenodd" d="M60.7071 180.374C61.8549 179.226 62.938 178.678 63.967 178.667C63.9734 178.667 63.9798 178.667 63.9862 178.667C63.9909 178.667 63.9955 178.667 64.0002 178.667H64.0038C64.0135 178.667 64.0232 178.667 64.0329 178.667C65.0619 178.678 66.145 179.226 67.2929 180.374C67.4804 180.561 67.7348 180.667 68 180.667H78L78.1166 180.66C78.614 180.602 79 180.179 79 179.667L78.9933 179.55C78.9355 179.053 78.5128 178.667 78 178.667H68.402L68.2292 178.508C67.9794 178.285 67.7278 178.082 67.4745 177.899L67.5341 177.889L68.1872 177.784L68.8727 177.683L69.5904 177.586L70.3403 177.495L71.1224 177.408L71.9367 177.326L72.7832 177.249L73.6618 177.176L74.5725 177.109L75.5153 177.046L76.9897 176.961L78.5362 176.886L79.6072 176.842L80.7102 176.804L81.8451 176.77L83.6075 176.728L85.4416 176.697L87.3474 176.676L89.3249 176.667C89.5486 176.667 89.7737 176.667 90 176.667C90.5523 176.667 91 176.219 91 175.667V138.516L93.001 141.017L93 159.667C93 160.179 93.3861 160.602 93.8834 160.66L94 160.667C94.5129 160.667 94.9355 160.281 94.9933 159.783L95 159.667V140.667C95 140.485 94.9506 140.308 94.8582 140.153L94.7809 140.042L90.7985 135.064C90.6281 134.838 90.3637 134.686 90.0612 134.668C79.3111 134.009 70.6232 135.288 64 138.532C57.3768 135.288 48.6889 134.009 37.9388 134.668C37.6359 134.686 37.3713 134.839 37.2009 135.065L33.2191 140.042L33.1419 140.153C33.0495 140.308 33 140.485 33 140.667V145.667L33.0067 145.783C33.0645 146.281 33.4872 146.667 34 146.667L34.1166 146.66C34.614 146.602 35 146.179 35 145.667L34.999 141.017L37 138.516V175.667C37 176.219 37.4477 176.667 38 176.667C38.2264 176.667 38.4514 176.667 38.6751 176.667L40.6526 176.676L42.5584 176.697L44.3925 176.728L46.1549 176.77L47.2898 176.804L48.3928 176.842L49.4638 176.886L51.0103 176.961L52.4847 177.046L53.4275 177.109L54.3382 177.176L55.2168 177.249L56.0633 177.326L56.8776 177.408L57.6597 177.495L58.4096 177.586L59.1273 177.683L59.8128 177.784L60.4659 177.889L60.5255 177.899C60.2722 178.082 60.0206 178.285 59.7708 178.508L59.597 178.667H35V175.667L34.9933 175.55C34.9355 175.053 34.5128 174.667 34 174.667C33.4477 174.667 33 175.114 33 175.667V179.667L33.0067 179.783C33.0645 180.281 33.4872 180.667 34 180.667H60L60.1314 180.658C60.3481 180.629 60.5508 180.53 60.7071 180.374ZM63 176.361V140.27L62.6894 140.122C56.7538 137.336 49.015 136.151 39.4708 136.589L39 136.612V174.668L40.0457 174.672L42.0447 174.69L43.9683 174.719L45.2089 174.745L46.416 174.776L48.164 174.832L49.2876 174.876L50.3779 174.926L51.4348 174.98L52.4583 175.04L53.4486 175.105L54.4056 175.176L55.3294 175.251L56.2199 175.332L57.0773 175.419L57.9014 175.51L58.6924 175.607L59.4503 175.71C59.5739 175.727 59.696 175.745 59.8168 175.763L60.5251 175.873L61.2002 175.988L61.8423 176.109L62.4514 176.236L63 176.361ZM65.5486 176.236L65 176.361V140.27L65.3106 140.122C71.2462 137.336 78.985 136.151 88.5292 136.589L89 136.612V174.668L87.9543 174.672L85.9553 174.69L84.0317 174.719L82.7911 174.745L81.584 174.776L79.836 174.832L78.7124 174.876L77.6221 174.926L76.5652 174.98L75.5417 175.04L74.5514 175.105L73.5944 175.176L72.6706 175.251L71.7801 175.332L70.9227 175.419L70.0986 175.51L69.3076 175.607L68.5497 175.71C68.4261 175.727 68.304 175.745 68.1832 175.763L67.4749 175.873L66.7998 175.988L66.1577 176.109L65.5486 176.236Z" fill="#000091"/>
<path d="M94.9933 165.55C94.9355 165.053 94.5128 164.667 94 164.667L93.8834 164.673C93.386 164.731 93 165.154 93 165.667V178.667H86L85.8834 178.673C85.386 178.731 85 179.154 85 179.667C85 180.219 85.4477 180.667 86 180.667H94L94.1166 180.66C94.614 180.602 95 180.179 95 179.667V165.667L94.9933 165.55Z" fill="#000091"/>
<path d="M34 150.667C34.5128 150.667 34.9355 151.053 34.9933 151.55L35 151.667V169.667C35 170.219 34.5523 170.667 34 170.667C33.4872 170.667 33.0645 170.281 33.0067 169.783L33 169.667V151.667C33 151.114 33.4477 150.667 34 150.667Z" fill="#000091"/>
<path d="M151 45.6665C151 45.1142 150.552 44.6665 150 44.6665C149.448 44.6665 149 45.1142 149 45.6665C149 46.2188 149.448 46.6665 150 46.6665C150.552 46.6665 151 46.2188 151 45.6665Z" fill="#E1000F"/>
<path d="M145.684 46.9368C145.272 46.5487 144.605 46.5785 144.232 47.0263L139.232 53.0263L139.164 53.1171C138.732 53.7655 139.191 54.6665 140 54.6665H146L146.117 54.6598C146.614 54.602 147 54.1793 147 53.6665L146.993 53.5499C146.936 53.0525 146.513 52.6665 146 52.6665H142.135L145 49.2285L146.76 51.34L146.846 51.4314C147.209 51.7707 147.776 51.7944 148.168 51.4681C148.592 51.1145 148.65 50.484 148.296 50.0597L145.768 47.0263L145.684 46.9368Z" fill="#E1000F"/>
<path d="M154.555 76.8345C154.39 76.7249 154.197 76.6665 154 76.6665H134L133.883 76.6732C133.386 76.731 133 77.1537 133 77.6665L133.007 77.7831C133.064 78.2805 133.487 78.6665 134 78.6665H153.705L153.805 78.7317C155.846 80.0154 157.915 80.6665 160 80.6665L160.368 80.6597C162.329 80.5877 164.274 79.9399 166.195 78.7317L166.294 78.6665H186L186.117 78.6598C186.614 78.602 187 78.1793 187 77.6665C187 77.1142 186.552 76.6665 186 76.6665H166L165.882 76.6735C165.727 76.6919 165.577 76.7468 165.445 76.8345C163.602 78.0631 161.792 78.6665 160 78.6665C158.208 78.6665 156.398 78.0631 154.555 76.8345Z" fill="#E1000F"/>
<path d="M151.293 50.9594C151.653 50.5989 152.221 50.5712 152.613 50.8762L152.707 50.9594L154.707 52.9594C155.098 53.3499 155.098 53.9831 154.707 54.3736C154.347 54.7341 153.779 54.7618 153.387 54.4568L153.293 54.3736L152 53.0815L150.707 54.3736C150.347 54.7341 149.779 54.7618 149.387 54.4568L149.293 54.3736C148.932 54.0131 148.905 53.4459 149.21 53.0536L149.293 52.9594L151.293 50.9594Z" fill="#E1000F"/>
<path d="M179 37.6667C179 37.1144 178.552 36.6667 178 36.6667C176.951 36.6667 175.714 36.7643 174.288 36.9592L173.491 37.0751C173.083 37.1379 172.661 37.208 172.225 37.2852L171.334 37.4494L170.406 37.6329L169.439 37.8356L168.435 38.0575C168.264 38.0961 168.092 38.1355 167.918 38.1757L166.857 38.4265L165.757 38.6965C165.222 38.8305 164.896 39.3734 165.03 39.9092C165.164 40.445 165.707 40.7708 166.243 40.6368C166.424 40.5915 166.604 40.5469 166.782 40.5031L167.832 40.2498L168.845 40.0154C169.01 39.9779 169.174 39.9412 169.337 39.9052L170.292 39.699L171.209 39.5116L172.087 39.3429L172.927 39.1931C173.064 39.1697 173.199 39.147 173.333 39.1252L174.116 39.0035C174.37 38.966 174.618 38.9317 174.86 38.9005L175.565 38.8163C176.48 38.7165 177.292 38.6667 178 38.6667C178.552 38.6667 179 38.2189 179 37.6667Z" fill="#000091"/>
<path d="M178 42.6667C178.552 42.6667 179 43.1144 179 43.6667C179 44.2189 178.552 44.6667 178 44.6667C177.292 44.6667 176.48 44.7165 175.565 44.8163L174.86 44.9005C174.618 44.9317 174.37 44.966 174.116 45.0035L173.333 45.1252C173.199 45.147 173.064 45.1697 172.927 45.1931L172.087 45.3429L171.209 45.5116L170.292 45.699L169.337 45.9052C169.174 45.9412 169.01 45.9779 168.845 46.0154L167.832 46.2498L166.782 46.5031C166.604 46.5469 166.424 46.5915 166.243 46.6368C165.707 46.7708 165.164 46.445 165.03 45.9092C164.896 45.3734 165.222 44.8305 165.757 44.6965L166.857 44.4265L167.918 44.1757C168.092 44.1355 168.264 44.0961 168.435 44.0575L169.439 43.8356L170.406 43.6329L171.334 43.4494L172.225 43.2852C172.661 43.208 173.083 43.1379 173.491 43.0751L174.288 42.9592C175.714 42.7643 176.951 42.6667 178 42.6667Z" fill="#000091"/>
<path d="M179 49.6667C179 49.1144 178.552 48.6667 178 48.6667C176.951 48.6667 175.714 48.7643 174.288 48.9592L173.491 49.0751C173.083 49.1379 172.661 49.208 172.225 49.2852L171.334 49.4494L170.406 49.6329L169.439 49.8356L168.435 50.0575C168.264 50.0961 168.092 50.1355 167.918 50.1757L166.857 50.4265L165.757 50.6965C165.222 50.8305 164.896 51.3734 165.03 51.9092C165.164 52.445 165.707 52.7708 166.243 52.6368C166.424 52.5915 166.604 52.5469 166.782 52.5031L167.832 52.2498L168.845 52.0154C169.01 51.9779 169.174 51.9412 169.337 51.9052L170.292 51.699L171.209 51.5116L172.087 51.3429L172.927 51.1931C173.064 51.1697 173.199 51.147 173.333 51.1252L174.116 51.0035C174.37 50.966 174.618 50.9317 174.86 50.9005L175.565 50.8163C176.48 50.7165 177.292 50.6667 178 50.6667C178.552 50.6667 179 50.2189 179 49.6667Z" fill="#000091"/>
<path fill-rule="evenodd" clip-rule="evenodd" d="M156.707 74.3738C157.855 73.2259 158.938 72.6783 159.967 72.6668C159.973 72.667 159.98 72.6672 159.986 72.6673C159.991 72.6673 159.996 72.6674 160 72.6673H160.004C160.014 72.6673 160.023 72.6672 160.033 72.6668C161.062 72.6783 162.145 73.2259 163.293 74.3738C163.48 74.5613 163.735 74.6667 164 74.6667H174L174.117 74.6599C174.614 74.6022 175 74.1795 175 73.6667L174.993 73.55C174.936 73.0527 174.513 72.6667 174 72.6667H164.402L164.229 72.5078C163.979 72.2853 163.728 72.0824 163.475 71.8995L163.534 71.8893L164.187 71.7836L164.873 71.6826L165.59 71.5864L166.34 71.4949L167.122 71.4082L167.937 71.3262L168.783 71.2489L169.662 71.1765L170.573 71.1088L171.515 71.0459L172.99 70.9606L174.536 70.8861L175.607 70.8424L176.71 70.8035L177.845 70.7695L179.607 70.7276L181.442 70.6965L183.347 70.6764L185.325 70.6673C185.549 70.6669 185.774 70.6667 186 70.6667C186.552 70.6667 187 70.2189 187 69.6667V32.5164L189.001 35.0167L189 53.6667C189 54.1795 189.386 54.6022 189.883 54.6599L190 54.6667C190.513 54.6667 190.936 54.2806 190.993 53.7833L191 53.6667V34.6667C191 34.485 190.951 34.3077 190.858 34.1532L190.781 34.042L186.798 29.0639C186.628 28.8382 186.364 28.6864 186.061 28.6679C175.311 28.0089 166.623 29.2883 160 32.5321C153.377 29.2883 144.689 28.0089 133.939 28.6679C133.636 28.6864 133.371 28.8385 133.201 29.0648L129.219 34.042L129.142 34.1532C129.049 34.3077 129 34.485 129 34.6667V39.6667L129.007 39.7833C129.064 40.2806 129.487 40.6667 130 40.6667L130.117 40.6599C130.614 40.6022 131 40.1795 131 39.6667L130.999 35.0167L133 32.5165V69.6667C133 70.2189 133.448 70.6667 134 70.6667C134.226 70.6667 134.451 70.6669 134.675 70.6673L136.653 70.6764L138.558 70.6965L140.393 70.7276L142.155 70.7695L143.29 70.8035L144.393 70.8424L145.464 70.8861L147.01 70.9606L148.485 71.0459L149.427 71.1088L150.338 71.1765L151.217 71.2489L152.063 71.3262L152.878 71.4082L153.66 71.4949L154.41 71.5864L155.127 71.6826L155.813 71.7836L156.466 71.8893L156.525 71.8995C156.272 72.0824 156.021 72.2853 155.771 72.5078L155.597 72.6667H131V69.6667L130.993 69.55C130.936 69.0527 130.513 68.6667 130 68.6667C129.448 68.6667 129 69.1144 129 69.6667V73.6667L129.007 73.7833C129.064 74.2806 129.487 74.6667 130 74.6667H156L156.131 74.658C156.348 74.6293 156.551 74.53 156.707 74.3738ZM159 70.3607V34.2697L158.689 34.1216C152.754 31.3358 145.015 30.151 135.471 30.5885L135 30.6117V68.6677L136.046 68.6723L138.045 68.6897L139.968 68.7187L141.209 68.7445L142.416 68.7756L144.164 68.832L145.288 68.8762L146.378 68.9256L147.435 68.9802L148.458 69.0401L149.449 69.1053L150.406 69.1757L151.329 69.2514L152.22 69.3324L153.077 69.4187L153.901 69.5103L154.692 69.6073L155.45 69.7095C155.574 69.727 155.696 69.7447 155.817 69.7626L156.525 69.8729L157.2 69.9884L157.842 70.1094L158.451 70.2356L159 70.3607ZM161.549 70.2356L161 70.3607V34.2697L161.311 34.1216C167.246 31.3358 174.985 30.151 184.529 30.5885L185 30.6117V68.6677L183.954 68.6723L181.955 68.6897L180.032 68.7187L178.791 68.7445L177.584 68.7756L175.836 68.832L174.712 68.8762L173.622 68.9256L172.565 68.9802L171.542 69.0401L170.551 69.1053L169.594 69.1757L168.671 69.2514L167.78 69.3324L166.923 69.4187L166.099 69.5103L165.308 69.6073L164.55 69.7095C164.426 69.727 164.304 69.7447 164.183 69.7626L163.475 69.8729L162.8 69.9884L162.158 70.1094L161.549 70.2356Z" fill="#000091"/>
<path d="M190.993 59.55C190.936 59.0527 190.513 58.6667 190 58.6667L189.883 58.6734C189.386 58.7312 189 59.1538 189 59.6667V72.6667H182L181.883 72.6734C181.386 72.7312 181 73.1538 181 73.6667C181 74.2189 181.448 74.6667 182 74.6667H190L190.117 74.6599C190.614 74.6022 191 74.1795 191 73.6667V59.6667L190.993 59.55Z" fill="#000091"/>
<path d="M130 44.6667C130.513 44.6667 130.936 45.0527 130.993 45.55L131 45.6667V63.6667C131 64.2189 130.552 64.6667 130 64.6667C129.487 64.6667 129.064 64.2806 129.007 63.7833L129 63.6667V45.6667C129 45.1144 129.448 44.6667 130 44.6667Z" fill="#000091"/>
<path d="M54 25.0439C63.713 18.1818 74.6844 12.9826 86.5 9.8606M170 12.4999V24.3463C160.536 17.829 149.912 12.8759 138.5 9.8606" stroke="#000091" stroke-width="2" stroke-linecap="round" stroke-linejoin="round"/>
<path d="M54 191.197C70.3452 202.454 90.153 209.044 111.5 209.044C133.284 209.044 153.466 202.181 170 190.5" stroke="#000091" stroke-width="2" stroke-linecap="round"/>
<path d="M196.426 165.772C201.84 157.911 206.174 149.249 209.215 140" stroke="#000091" stroke-width="2" stroke-linecap="round"/>
<path d="M123 44.3894C119.525 43.8044 115.957 43.5 112.319 43.5C110.528 43.5 108.754 43.5738 107 43.7184" stroke="#CE0500" stroke-width="2" stroke-linecap="round"/>
<path d="M122 171.67C118.64 172.216 115.193 172.5 111.681 172.5C108.169 172.5 104.722 172.216 101.362 171.67" stroke="#CE0500" stroke-width="2" stroke-linecap="round"/>
<path d="M181.5 128L172.665 131C174.397 126.549 175.645 121.861 176.345 117" stroke="#CE0500" stroke-width="2" stroke-linecap="round" stroke-linejoin="round"/>
<path d="M47 108.181C47 102.414 47.7649 96.8222 49.2002 91.5001" stroke="#CE0500" stroke-width="2" stroke-linecap="round"/>
<path d="M102.216 67.011C102.037 67.5332 102.314 68.1023 102.836 68.2821C104.923 69.0005 107.202 67.8886 107.921 65.8023C108.639 63.716 107.527 61.4363 105.441 60.7179C103.355 59.9996 101.075 61.1115 100.357 63.1977C100.177 63.7199 100.454 64.289 100.976 64.4688C101.499 64.6486 102.068 64.3711 102.248 63.8489L102.301 63.7098C102.71 62.7583 103.795 62.2665 104.79 62.609C105.832 62.9677 106.388 64.1093 106.03 65.1511C105.671 66.1931 104.529 66.7498 103.487 66.391C102.965 66.2112 102.396 66.4888 102.216 67.011Z" fill="#E1000F"/>
<path d="M106.973 73.1328C105.814 73.7298 105.087 74.9181 105.089 76.218L105.09 76.5H103.19L103.189 76.213L103.184 76.0214L103.165 75.8128C103.006 74.5027 102.138 73.4035 100.907 72.9587L100.577 72.8193L100.406 72.743L100.297 72.7018C99.819 72.5527 99.2946 72.7823 99.0864 73.2509C98.8622 73.7557 99.0895 74.3466 99.5943 74.5708L99.7849 74.6555L100.324 74.8813C100.834 75.1214 101.154 75.5882 101.187 76.1137L101.19 76.2425L101.189 77.0233L101.196 77.167C101.261 77.8297 101.764 78.3725 102.428 78.4807L102.586 78.4968L105.613 78.5L105.756 78.4931C106.419 78.4288 106.962 77.9251 107.07 77.2616L107.086 77.1038L107.089 76.2161L107.096 76.0727C107.146 75.5516 107.471 75.0926 107.94 74.8848L108.26 74.7581C108.399 74.7019 108.541 74.6407 108.68 74.5776C109.21 74.3326 109.827 74.4217 110.258 74.7979L110.357 74.8912L110.909 75.4435L111.022 75.5448C111.528 75.955 112.247 75.9899 112.788 75.6215L112.926 75.5127L115.077 73.361L115.179 73.248C115.589 72.7412 115.622 72.0198 115.251 71.4784L115.142 71.3402L114.509 70.7005L114.406 70.587C114.052 70.1552 113.97 69.5585 114.203 69.0578C114.271 68.9094 114.333 68.7657 114.39 68.6252L114.467 68.4312L114.525 68.2926C114.761 67.8002 115.23 67.4817 115.749 67.4521L115.876 67.4497L116.663 67.45L116.806 67.4431C117.469 67.3788 118.012 66.8751 118.12 66.2116L118.136 66.0538L118.139 63.0267L118.133 62.883C118.068 62.2204 117.565 61.6775 116.901 61.5693L116.743 61.5532L115.856 61.55L115.712 61.5432C115.191 61.4932 114.732 61.1683 114.524 60.6999L114.398 60.38C114.342 60.2418 114.281 60.0999 114.219 59.963C113.971 59.4307 114.06 58.8112 114.436 58.3825L114.529 58.2843L115.083 57.7306L115.184 57.6176C115.595 57.1108 115.629 56.3901 115.259 55.8492L115.15 55.711L113.008 53.5633L112.895 53.4616C112.387 53.05 111.666 53.017 111.124 53.3885L110.986 53.4977L110.343 54.1342L110.23 54.2365C109.8 54.5869 109.205 54.6674 108.701 54.4351L108.498 54.3447L107.966 54.1223C107.449 53.882 107.127 53.4146 107.092 52.8854L107.089 52.7556L107.089 51.9767L107.083 51.833C107.018 51.1703 106.515 50.6275 105.851 50.5193L105.693 50.5032L102.666 50.5L102.522 50.5069C101.86 50.5712 101.317 51.0749 101.209 51.7384L101.193 51.8962L101.189 52.7839L101.183 52.9273C101.133 53.4484 100.808 53.9074 100.339 54.1152L100.019 54.2419C99.8803 54.2981 99.7379 54.3593 99.5991 54.4224C99.0964 54.6509 98.8741 55.2438 99.1027 55.7466C99.3313 56.2493 99.9241 56.4716 100.427 56.243C100.597 56.1657 100.775 56.0914 100.954 56.0232L101.12 55.9565L101.306 55.8672C102.465 55.2702 103.192 54.0819 103.189 52.782L103.19 52.5H105.09L105.089 52.787L105.095 52.9814L105.113 53.1809C105.272 54.5008 106.148 55.6053 107.389 56.0462L107.705 56.1804L107.876 56.2569L108.064 56.3366C109.323 56.828 110.782 56.5262 111.758 55.5478L111.961 55.345L113.301 56.685L113.093 56.8925L112.956 57.0381L112.816 57.2072C112.014 58.2419 111.854 59.6207 112.401 60.7983L112.546 61.1368L112.683 61.4801L112.772 61.6667C113.369 62.8256 114.558 63.5524 115.857 63.55L116.14 63.55V65.45H115.852L115.668 65.454L115.47 65.4708C114.159 65.6188 113.05 66.4857 112.598 67.7187L112.535 67.8786L112.464 68.0466L112.386 68.2222L112.305 68.4103C111.808 69.6748 112.113 71.1414 113.097 72.1174L113.295 72.316L111.955 73.661L111.747 73.4539L111.6 73.3152L111.431 73.1761C110.396 72.3766 109.022 72.2159 107.846 72.7596L107.591 72.8707L107.159 73.0435L106.973 73.1328Z" fill="#000091"/>
<path d="M115.08 16.8535C115.602 17.0333 116.171 16.7557 116.351 16.2335C117.069 14.1472 115.957 11.8676 113.871 11.1492C111.785 10.4308 109.505 11.5427 108.787 13.629C108.068 15.7152 109.18 17.995 111.267 18.7133C111.789 18.8931 112.358 18.6156 112.538 18.0934C112.717 17.5712 112.44 17.0021 111.918 16.8223L111.779 16.7686C110.827 16.36 110.335 15.2746 110.678 14.2801C111.037 13.2382 112.178 12.6815 113.22 13.0402C114.262 13.399 114.819 14.5404 114.46 15.5824C114.28 16.1046 114.558 16.6737 115.08 16.8535Z" fill="#E1000F"/>
<path d="M121.202 12.097C121.799 13.256 122.987 13.9827 124.287 13.9804L124.569 13.9796L124.569 15.8796L124.282 15.8804L124.091 15.8856L123.882 15.9047C122.572 16.0635 121.473 16.9318 121.028 18.1631L120.889 18.4926L120.812 18.6636L120.771 18.7729C120.622 19.2509 120.852 19.7753 121.32 19.9835C121.825 20.2077 122.416 19.9803 122.64 19.4756L122.725 19.285L122.951 18.7456C123.191 18.2358 123.658 17.9162 124.183 17.8832L124.312 17.8799L125.093 17.8804L125.236 17.8734C125.899 17.8092 126.442 17.3055 126.55 16.642L126.566 16.4841L126.569 13.457L126.562 13.3133C126.498 12.6507 125.994 12.1079 125.331 11.9997L125.173 11.9836L124.285 11.9804L124.142 11.9736C123.621 11.9235 123.162 11.5987 122.954 11.1303L122.827 10.8099C122.771 10.6712 122.71 10.5288 122.647 10.3901C122.402 9.8601 122.491 9.24243 122.867 8.81193L122.96 8.7133L123.513 8.16102L123.614 8.04822C124.024 7.5422 124.059 6.82236 123.691 6.28227L123.582 6.14403L121.43 3.99254L121.317 3.89107C120.811 3.48037 120.089 3.44737 119.548 3.81889L119.41 3.92809L118.77 4.56092L118.656 4.66419C118.225 5.01815 117.628 5.09942 117.127 4.86667C116.979 4.79911 116.835 4.73716 116.695 4.67979L116.5 4.60277L116.362 4.54439C115.869 4.30865 115.551 3.84017 115.521 3.3212L115.519 3.19408L115.519 2.40704L115.512 2.26333C115.448 1.60072 114.944 1.05785 114.281 0.949651L114.123 0.93361L111.096 0.930372L110.952 0.937303C110.29 1.00152 109.747 1.50529 109.639 2.16875L109.623 2.32662L109.619 3.21423L109.613 3.35772C109.563 3.87875 109.238 4.33778 108.769 4.54558L108.449 4.67203C108.311 4.72809 108.169 4.78897 108.032 4.85119C107.5 5.09859 106.881 5.00959 106.452 4.63372L106.354 4.54051L105.8 3.98692L105.687 3.88543C105.18 3.47463 104.459 3.44097 103.919 3.8112L103.78 3.92019L101.633 6.06165L101.531 6.17483C101.119 6.6825 101.086 7.40392 101.458 7.94534L101.567 8.08352L102.204 8.7269L102.306 8.83992C102.656 9.27 102.737 9.865 102.504 10.3685L102.414 10.5717L102.192 11.1039C101.951 11.621 101.484 11.9431 100.955 11.9773L100.825 11.9809L100.046 11.9804L99.9023 11.9873C99.2397 12.0515 98.6968 12.5553 98.5886 13.2188L98.5726 13.3766L98.5693 16.4037L98.5763 16.5474C98.6405 17.21 99.1443 17.7529 99.8077 17.8611L99.9656 17.8771L100.853 17.8804L100.997 17.8871C101.518 17.9372 101.977 18.2621 102.185 18.7304L102.311 19.0509C102.367 19.1895 102.429 19.332 102.492 19.4707C102.72 19.9735 103.313 20.1957 103.816 19.9671C104.319 19.7386 104.541 19.1457 104.312 18.6429C104.235 18.4728 104.161 18.2948 104.093 18.1159L104.026 17.9502L103.937 17.7637C103.34 16.6048 102.151 15.878 100.851 15.8804L100.569 15.8796L100.569 13.9796L100.856 13.9804L101.051 13.9748L101.25 13.9564C102.57 13.7975 103.675 12.9214 104.116 11.6804L104.25 11.3652L104.326 11.1936L104.406 11.0063C104.897 9.74721 104.596 8.28752 103.617 7.31209L103.414 7.10858L104.754 5.76857L104.962 5.97642L105.107 6.11402L105.277 6.25359C106.311 7.05546 107.69 7.21582 108.868 6.66839L109.206 6.52337L109.549 6.38682L109.736 6.29755C110.895 5.70056 111.622 4.51225 111.619 3.21242L111.619 2.92957L113.519 2.92957L113.519 3.21737L113.523 3.40137L113.54 3.59952C113.688 4.91079 114.555 6.0199 115.788 6.47136L115.948 6.53515L116.116 6.60588L116.292 6.68373L116.48 6.76435C117.744 7.26162 119.211 6.95716 120.187 5.97244L120.385 5.77457L121.73 7.11457L121.523 7.32282L121.385 7.47012L121.245 7.63929C120.446 8.67373 120.285 10.0477 120.829 11.2236L120.94 11.4788L121.113 11.9105L121.202 12.097Z" fill="#000091"/>
<path d="M20.8664 125.536C21.1425 125.058 20.9786 124.446 20.5004 124.17C18.1119 122.791 15.0492 123.611 13.6702 126C12.2913 128.388 13.112 131.451 15.5004 132.83C17.8888 134.209 20.9515 133.388 22.3305 131C22.6066 130.522 22.4428 129.91 21.9645 129.634C21.4862 129.358 20.8746 129.522 20.5984 130L20.5061 130.15C19.6409 131.465 17.881 131.895 16.5004 131.098C15.0685 130.271 14.5756 128.432 15.4023 127C16.229 125.568 18.0685 125.075 19.5004 125.902C19.9786 126.178 20.5902 126.014 20.8664 125.536Z" fill="#E1000F"/>
<path d="M15.2438 146.5C14.7309 146.5 14.3083 146.114 14.2505 145.617L14.2438 145.5L14.2442 144.482L14.2396 144.305C14.1894 143.504 13.697 142.796 12.9328 142.451L12.765 142.383L12.2605 142.17L12.0018 142.055C11.2388 141.702 10.3366 141.833 9.6957 142.379L9.5625 142.502L8.75302 143.307L8.59585 143.432C8.00038 143.842 7.20472 143.803 6.64871 143.345L6.53339 143.24L3.79261 140.485L3.6676 140.328C3.25966 139.733 3.29691 138.939 3.75227 138.382L3.85624 138.267L4.57403 137.546L4.70104 137.412C5.262 136.77 5.39467 135.844 5.02768 135.052C4.94916 134.879 4.8723 134.699 4.80093 134.522L4.63482 134.102C4.31835 133.386 3.61655 132.897 2.82566 132.836L2.65493 132.829L1.53378 132.826L1.35333 132.808C0.624584 132.689 0.0727883 132.09 0.00666046 131.361L0 131.213L0.0032196 127.323L0.0210037 127.143C0.139542 126.414 0.737538 125.86 1.46692 125.794L1.61444 125.787L2.62934 125.787L2.80495 125.783C3.60127 125.733 4.3065 125.239 4.65071 124.472L4.71884 124.304L4.93038 123.798L5.04658 123.536C5.40254 122.768 5.2678 121.852 4.71122 121.205L4.5943 121.079L3.79669 120.272L3.67188 120.115C3.2648 119.52 3.30324 118.726 3.75893 118.17L3.86295 118.054L6.61018 115.305L6.76727 115.18C7.3623 114.769 8.15775 114.807 8.71507 115.265L8.83069 115.37L9.54685 116.088L9.68148 116.215C10.322 116.777 11.2391 116.909 12.0234 116.546C12.1985 116.466 12.3785 116.388 12.5551 116.316L12.9752 116.15C13.688 115.832 14.1767 115.127 14.2374 114.332L14.2438 114.16L14.247 113.036L14.2648 112.856C14.3833 112.127 14.9813 111.573 15.7107 111.507L15.8582 111.5L19.7372 111.503L19.9177 111.521C20.6464 111.64 21.1982 112.24 21.2643 112.969L21.271 113.116L21.2705 114.133L21.2755 114.31C21.3275 115.116 21.8238 115.826 22.5969 116.17L22.7668 116.238L23.2595 116.446L23.5177 116.561C24.2807 116.914 25.1829 116.784 25.8238 116.238L25.957 116.114L26.7665 115.309L26.9237 115.184C27.5191 114.774 28.3148 114.813 28.8708 115.271L28.9861 115.376L31.7281 118.132L31.8526 118.29C32.2582 118.884 32.219 119.677 31.7642 120.233L31.6604 120.348L30.9407 121.07L30.8137 121.204C30.2528 121.846 30.1201 122.772 30.4871 123.564C30.5656 123.738 30.6425 123.917 30.7138 124.094L30.8799 124.515C31.1964 125.23 31.8982 125.72 32.6891 125.781L32.8598 125.787L33.981 125.79L34.0807 125.798C34.6311 125.843 35.0413 126.325 34.9967 126.876C34.9554 127.387 34.5365 127.777 34.0361 127.794L33.9193 127.792L33.9003 127.787L32.8617 127.787C31.2833 127.79 29.8417 126.899 29.1303 125.488L29.0379 125.293L28.954 125.084C28.8941 124.927 28.8305 124.769 28.766 124.618L28.6689 124.398C28.0048 122.965 28.2058 121.285 29.1861 120.037L29.3314 119.862L29.5027 119.68L29.978 119.204L27.84 117.06L27.374 117.526C26.1905 118.716 24.4151 119.079 22.8882 118.467L22.6906 118.382L22.4639 118.281L22.0426 118.102C20.5402 117.566 19.482 116.222 19.2977 114.625L19.2781 114.406L19.271 114.164L19.271 113.5H16.244L16.2438 114.158C16.2466 115.739 15.3591 117.183 13.9524 117.897L13.7574 117.99L13.5492 118.074C13.3917 118.134 13.2347 118.198 13.0827 118.264L12.859 118.363C11.43 119.025 9.75806 118.823 8.51242 117.841L8.33744 117.696L8.1542 117.523L7.686 117.054L5.546 119.2L6.00796 119.665C7.20144 120.851 7.56514 122.637 6.95351 124.164L6.86819 124.361L6.76746 124.588L6.58241 125.028C6.04287 126.526 4.7034 127.58 3.11554 127.761L2.89752 127.78L2.65898 127.787L2 127.787V130.83L2.65311 130.829C4.23149 130.827 5.67308 131.717 6.38449 133.128L6.47691 133.323L6.56079 133.532C6.6207 133.69 6.68428 133.847 6.74877 133.998L6.84584 134.219C7.50993 135.652 7.30892 137.331 6.32868 138.579L6.18335 138.754L6.01204 138.936L5.54 139.412L7.68 141.558L8.14555 141.091C9.32899 139.9 11.1045 139.538 12.6312 140.149L13.0549 140.335L13.4931 140.52C14.9874 141.062 16.0376 142.405 16.218 143.995L16.2372 144.213L16.244 144.5H20.0027L20.0033 143.946L20.0193 143.788C20.1275 143.125 20.6704 142.621 21.333 142.557L21.4767 142.55L22.2575 142.55L22.3863 142.547C22.9118 142.514 23.3786 142.195 23.6188 141.685L23.8446 141.145L23.9363 140.939C24.1691 140.439 24.0878 139.842 23.7338 139.41L23.6306 139.297L22.9977 138.657L22.8885 138.519C22.517 137.977 22.55 137.256 22.9616 136.748L23.0633 136.635L25.21 134.494L25.2757 134.44C25.7007 134.087 26.3311 134.146 26.6839 134.571C27.0095 134.963 26.9846 135.53 26.6447 135.893L26.5531 135.979L26.5558 135.971L24.8454 137.683L25.0421 137.88C26.0268 138.856 26.3313 140.322 25.8371 141.58L25.6808 141.938L25.5414 142.267C25.0965 143.499 23.9973 144.367 22.6872 144.526L22.4786 144.545L22.287 144.55L22.0004 144.551V146.451L22.2821 146.45C23.5819 146.448 24.7702 147.174 25.3672 148.333L25.4565 148.52L25.5232 148.686C25.5686 148.805 25.6167 148.923 25.6652 149.037L25.738 149.202C26.2855 150.379 26.1251 151.758 25.3232 152.793L25.1837 152.962L25.0461 153.108L24.8404 153.314L26.5492 155.023C26.9097 155.383 26.9374 155.95 26.6324 156.343L26.5492 156.437C26.1887 156.797 25.6215 156.825 25.2292 156.52L25.135 156.437L22.9947 154.29L22.8854 154.152C22.5131 153.611 22.545 152.89 22.9564 152.381L23.058 152.268L23.6102 151.716L23.7034 151.618C24.0792 151.189 24.1682 150.569 23.9208 150.037C23.8586 149.9 23.7977 149.758 23.7417 149.62L23.6152 149.3C23.4074 148.832 22.9484 148.507 22.4274 148.457L22.2839 148.45L21.3963 148.447L21.2384 148.431C20.5749 148.323 20.0712 147.78 20.007 147.117L20 146.973L20.0005 146.5H15.2438Z" fill="#000091"/>
<path d="M43.0001 127.5C42.4478 127.5 42.0001 127.052 42.0001 126.5C42.0001 125.987 42.3861 125.564 42.8834 125.507L43.0001 125.5H47.0001C47.5523 125.5 48.0001 125.948 48.0001 126.5C48.0001 127.013 47.614 127.436 47.1167 127.493L47.0001 127.5H43.0001Z" fill="#000091"/>
<path d="M40.0001 126.5C40.0001 125.949 39.5515 125.5 39.0001 125.5C38.4487 125.5 38.0001 125.949 38.0001 126.5C38.0001 127.051 38.4487 127.5 39.0001 127.5C39.5515 127.5 40.0001 127.051 40.0001 126.5Z" fill="#000091"/>
<path d="M197.866 97.5358C198.143 97.0575 197.979 96.4459 197.5 96.1698C195.112 94.7908 192.049 95.6114 190.67 97.9999C189.291 100.388 190.112 103.451 192.5 104.83C194.889 106.209 197.952 105.388 199.33 103C199.607 102.522 199.443 101.91 198.964 101.634C198.486 101.358 197.875 101.522 197.598 102L197.506 102.15C196.641 103.465 194.881 103.895 193.5 103.098C192.069 102.271 191.576 100.432 192.402 98.9999C193.229 97.568 195.068 97.0751 196.5 97.9018C196.979 98.178 197.59 98.0141 197.866 97.5358Z" fill="#E1000F"/>
<path d="M209.078 120.011C208.898 120.533 209.176 121.102 209.698 121.282C211.784 122 214.064 120.889 214.782 118.802C215.501 116.716 214.389 114.436 212.303 113.718C210.216 112.999 207.937 114.111 207.218 116.198C207.038 116.72 207.316 117.289 207.838 117.469C208.36 117.649 208.93 117.371 209.109 116.849L209.163 116.71C209.572 115.758 210.657 115.266 211.651 115.609C212.693 115.968 213.25 117.109 212.891 118.151C212.533 119.193 211.391 119.75 210.349 119.391C209.827 119.211 209.258 119.489 209.078 120.011Z" fill="#E1000F"/>
<path d="M192.244 118.5C191.731 118.5 191.308 118.114 191.251 117.617L191.244 117.5L191.244 116.482L191.24 116.305C191.189 115.504 190.697 114.796 189.933 114.451L189.765 114.383L189.26 114.17L189.002 114.055C188.239 113.702 187.337 113.833 186.696 114.379L186.563 114.502L185.753 115.307L185.596 115.432C185 115.842 184.205 115.803 183.649 115.345L183.533 115.24L180.793 112.485L180.668 112.328C180.26 111.733 180.297 110.939 180.752 110.382L180.856 110.267L181.574 109.546L181.701 109.412C182.262 108.77 182.395 107.844 182.028 107.052C181.949 106.879 181.872 106.699 181.801 106.522L181.635 106.102C181.318 105.386 180.617 104.897 179.826 104.836L179.655 104.829L178.534 104.826L178.353 104.808C177.625 104.689 177.073 104.09 177.007 103.361L177 103.213L177.003 99.323L177.021 99.1428C177.14 98.4137 177.738 97.86 178.467 97.7936L178.614 97.7869L179.629 97.7874L179.805 97.7827C180.601 97.7325 181.307 97.2392 181.651 96.4722L181.719 96.3038L181.93 95.7979L182.047 95.5359C182.403 94.7679 182.268 93.8518 181.711 93.2051L181.594 93.0794L180.797 92.2723L180.672 92.1148C180.265 91.5198 180.303 90.7258 180.759 90.1698L180.863 90.0544L183.61 87.305L183.767 87.1795C184.362 86.7694 185.158 86.8072 185.715 87.2651L185.831 87.3697L186.547 88.0878L186.681 88.2152C187.322 88.7766 188.239 88.9093 189.023 88.5456C189.199 88.4657 189.378 88.3882 189.555 88.3163L189.975 88.1495C190.688 87.8323 191.177 87.1273 191.237 86.3317L191.244 86.1599L191.247 85.0361L191.265 84.8558C191.383 84.1268 191.981 83.5731 192.711 83.5067L192.858 83.5L196.737 83.5033L196.918 83.5212C197.646 83.6404 198.198 84.2397 198.264 84.9688L198.271 85.1163L198.271 86.1327L198.276 86.3104C198.328 87.1165 198.824 87.8257 199.597 88.1701L199.767 88.2382L200.26 88.4462L200.518 88.5613C201.281 88.9145 202.183 88.7838 202.824 88.2376L202.957 88.1142L203.766 87.3094L203.924 87.1841C204.519 86.7742 205.315 86.813 205.871 87.2713L205.986 87.3759L208.728 90.1325L208.853 90.2899C209.258 90.8842 209.219 91.6774 208.764 92.2326L208.66 92.3477L207.941 93.0698L207.814 93.2044C207.253 93.8461 207.12 94.7724 207.487 95.5644C207.566 95.7376 207.642 95.9173 207.714 96.0939L207.88 96.5147C208.196 97.2302 208.898 97.7197 209.689 97.7805L209.86 97.7869L210.981 97.7902L211.081 97.7983C211.631 97.8428 212.041 98.3252 211.997 98.8757C211.955 99.3868 211.536 99.777 211.036 99.7944L210.919 99.7917L210.9 99.7869L209.862 99.7869C208.283 99.7898 206.842 98.8988 206.13 97.4884L206.038 97.2929L205.954 97.0842C205.894 96.9266 205.83 96.7692 205.766 96.6183L205.669 96.3976C205.005 94.9646 205.206 93.2853 206.186 92.0374L206.331 91.8622L206.503 91.6802L206.978 91.204L204.84 89.06L204.374 89.5257C203.191 90.7162 201.415 91.0786 199.888 90.4675L199.691 90.3822L199.464 90.281L199.043 90.1016C197.54 89.5662 196.482 88.2223 196.298 86.6253L196.278 86.406L196.271 86.164L196.271 85.5H193.244L193.244 86.1581C193.247 87.7388 192.359 89.1834 190.952 89.8972L190.757 89.9899L190.549 90.0741C190.392 90.1343 190.235 90.1981 190.083 90.2635L189.859 90.3626C188.43 91.0254 186.758 90.823 185.512 89.8414L185.337 89.6959L185.154 89.5229L184.686 89.054L182.546 91.2L183.008 91.6647C184.201 92.8511 184.565 94.6369 183.954 96.1638L183.868 96.3614L183.767 96.5883L183.582 97.0281C183.043 98.526 181.703 99.5799 180.116 99.761L179.898 99.7803L179.659 99.7869L179 99.787V102.83L179.653 102.829C181.231 102.827 182.673 103.717 183.384 105.128L183.477 105.323L183.561 105.532C183.621 105.69 183.684 105.847 183.749 105.998L183.846 106.219C184.51 107.652 184.309 109.331 183.329 110.579L183.183 110.754L183.012 110.936L182.54 111.412L184.68 113.558L185.146 113.091C186.329 111.9 188.104 111.538 189.631 112.149L190.055 112.335L190.493 112.52C191.987 113.062 193.038 114.405 193.218 115.995L193.237 116.213L193.244 116.5H197.003L197.003 115.946L197.019 115.788C197.128 115.125 197.67 114.621 198.333 114.557L198.477 114.55L199.257 114.55L199.386 114.547C199.912 114.514 200.379 114.195 200.619 113.685L200.845 113.145L200.936 112.939C201.169 112.439 201.088 111.842 200.734 111.41L200.631 111.297L199.998 110.657L199.889 110.519C199.517 109.977 199.55 109.256 199.962 108.748L200.063 108.635L202.21 106.494L202.276 106.44C202.701 106.087 203.331 106.146 203.684 106.571C204.009 106.963 203.985 107.53 203.645 107.893L203.553 107.979L203.556 107.971L201.845 109.683L202.042 109.88C203.027 110.856 203.331 112.322 202.837 113.58L202.681 113.938L202.541 114.267C202.097 115.499 200.997 116.367 199.687 116.526L199.479 116.545L199.287 116.55L199 116.551V118.451L199.282 118.45C200.582 118.448 201.77 119.174 202.367 120.333L202.456 120.52L202.523 120.686C202.569 120.805 202.617 120.923 202.665 121.037L202.738 121.202C203.285 122.379 203.125 123.758 202.323 124.793L202.184 124.962L202.046 125.108L201.84 125.314L203.549 127.023C203.91 127.383 203.937 127.95 203.632 128.343L203.549 128.437C203.189 128.797 202.621 128.825 202.229 128.52L202.135 128.437L199.995 126.29L199.885 126.152C199.513 125.611 199.545 124.89 199.956 124.381L200.058 124.268L200.61 123.716L200.703 123.618C201.079 123.189 201.168 122.569 200.921 122.037C200.859 121.9 200.798 121.758 200.742 121.62L200.615 121.3C200.407 120.832 199.948 120.507 199.427 120.457L199.284 120.45L198.396 120.447L198.238 120.431C197.575 120.323 197.071 119.78 197.007 119.117L197 118.973L197.001 118.5H192.244Z" fill="#000091"/>
<path d="M213.834 126.133C212.675 126.73 211.948 127.918 211.95 129.218L211.951 129.5H210.051L210.05 129.213L210.045 129.021L210.026 128.813C209.867 127.503 208.999 126.404 207.768 125.959L207.438 125.819L207.267 125.743L207.158 125.702C206.68 125.553 206.155 125.782 205.947 126.251C205.723 126.756 205.95 127.347 206.455 127.571L206.646 127.655L207.185 127.881C207.695 128.121 208.014 128.588 208.047 129.114L208.051 129.243L208.05 130.023L208.057 130.167C208.121 130.83 208.625 131.373 209.289 131.481L209.447 131.497L212.474 131.5L212.617 131.493C213.28 131.429 213.823 130.925 213.931 130.262L213.947 130.104L213.95 129.216L213.957 129.073C214.007 128.552 214.332 128.093 214.8 127.885L215.121 127.758C215.259 127.702 215.402 127.641 215.541 127.578C216.071 127.333 216.688 127.422 217.119 127.798L217.217 127.891L217.77 128.443L217.882 128.545C218.388 128.955 219.108 128.99 219.648 128.621L219.787 128.513L221.938 126.361L222.04 126.248C222.45 125.741 222.483 125.02 222.112 124.478L222.003 124.34L221.37 123.7L221.266 123.587C220.913 123.155 220.831 122.558 221.064 122.058C221.132 121.909 221.194 121.766 221.251 121.625L221.328 121.431L221.386 121.293C221.622 120.8 222.091 120.482 222.609 120.452L222.737 120.45L223.524 120.45L223.667 120.443C224.33 120.379 224.873 119.875 224.981 119.212L224.997 119.054L225 116.027L224.993 115.883C224.929 115.22 224.425 114.677 223.762 114.569L223.604 114.553L222.716 114.55L222.573 114.543C222.052 114.493 221.593 114.168 221.385 113.7L221.259 113.38C221.203 113.242 221.142 113.1 221.079 112.963C220.832 112.431 220.921 111.811 221.297 111.382L221.39 111.284L221.944 110.731L222.045 110.618C222.456 110.111 222.49 109.39 222.119 108.849L222.01 108.711L219.869 106.563L219.756 106.462C219.248 106.05 218.527 106.017 217.985 106.389L217.847 106.498L217.204 107.134L217.091 107.236C216.661 107.587 216.066 107.667 215.562 107.435L215.359 107.345L214.827 107.122C214.31 106.882 213.988 106.415 213.953 105.885L213.95 105.756L213.95 104.977L213.943 104.833C213.879 104.17 213.375 103.627 212.712 103.519L212.554 103.503L209.527 103.5L209.383 103.507C208.721 103.571 208.178 104.075 208.07 104.738L208.054 104.896L208.05 105.784L208.044 105.927C207.993 106.448 207.669 106.907 207.2 107.115L206.88 107.242C206.741 107.298 206.599 107.359 206.46 107.422C205.957 107.651 205.735 108.244 205.964 108.747C206.192 109.249 206.785 109.472 207.288 109.243C207.458 109.166 207.636 109.091 207.815 109.023L207.98 108.956L208.167 108.867C209.326 108.27 210.053 107.082 210.05 105.782L210.051 105.5H211.951L211.95 105.787L211.956 105.981L211.974 106.181C212.133 107.501 213.009 108.605 214.25 109.046L214.565 109.18L214.737 109.257L214.924 109.337C216.183 109.828 217.643 109.526 218.619 108.548L218.822 108.345L220.162 109.685L219.954 109.892L219.817 110.038L219.677 110.207C218.875 111.242 218.715 112.621 219.262 113.798L219.407 114.137L219.544 114.48L219.633 114.667C220.23 115.826 221.418 116.552 222.718 116.55L223.001 116.55V118.45H222.713L222.529 118.454L222.331 118.471C221.02 118.619 219.911 119.486 219.459 120.719L219.396 120.879L219.325 121.047L219.247 121.222L219.166 121.41C218.669 122.675 218.974 124.141 219.958 125.117L220.156 125.316L218.816 126.661L218.608 126.454L218.461 126.315L218.291 126.176C217.257 125.377 215.883 125.216 214.707 125.76L214.452 125.871L214.02 126.044L213.834 126.133Z" fill="#000091"/>
<path d="M220 99.5C219.448 99.5 219 99.0523 219 98.5C219 97.9872 219.386 97.5645 219.883 97.5067L220 97.5H224C224.552 97.5 225 97.9477 225 98.5C225 99.0128 224.614 99.4355 224.117 99.4933L224 99.5H220Z" fill="#000091"/>
<path d="M217 98.5C217 97.9486 216.551 97.5 216 97.5C215.449 97.5 215 97.9486 215 98.5C215 99.0514 215.449 99.5 216 99.5C216.551 99.5 217 99.0514 217 98.5Z" fill="#000091"/>
<path d="M70 108.5C70 99.5765 72.7829 91.303 77.5281 84.5L66.5 87.5M146.472 84.5C151.217 91.303 154 99.5765 154 108.5L161.5 101M71.4552 119.5C72.4652 123.232 73.9766 126.757 75.9127 130M105.5 150C107.618 150.329 109.789 150.5 112 150.5C116.723 150.5 121.263 149.721 125.5 148.283" stroke="#000091" stroke-width="2" stroke-linecap="round" stroke-linejoin="round"/>
<path d="M118 108.5C118 111.814 115.314 114.5 112 114.5C108.686 114.5 106 111.814 106 108.5C106 105.186 108.686 102.5 112 102.5" stroke="#CE0500" stroke-width="2" stroke-linecap="round"/>
</svg>
