<svg width="40" height="46" viewBox="0 0 40 46" fill="none" xmlns="http://www.w3.org/2000/svg">
<path d="M34.9922 14.0979L19.9982 5.4209L5.00424 14.1819C4.91164 14.2346 4.83464 14.3108 4.78094 14.4028C4.72724 14.4948 4.69864 14.5993 4.69824 14.7059V31.6539C4.70414 31.7592 4.73484 31.8616 4.78814 31.9527C4.84134 32.0439 4.91534 32.121 5.00424 32.1779L19.9962 40.7779L34.9902 32.0719C35.0791 32.0151 35.1532 31.9379 35.2065 31.8468C35.2597 31.7557 35.2904 31.6532 35.2962 31.5479V14.6259C35.2968 14.5188 35.2689 14.4136 35.2155 14.3208C35.1621 14.2281 35.085 14.1511 34.9922 14.0979Z" fill="#000091"/>
<path d="M14.6407 14.5979L9.61169 23.2259L5.05469 14.0509L10.4447 10.9379L14.9337 14.0979L14.6407 14.5979ZM35.2967 31.5779V14.6199C35.2967 14.5134 35.2683 14.4088 35.2146 14.3169C35.1608 14.225 35.0835 14.1491 34.9907 14.0969L19.9977 5.4209" fill="#E1000F"/>
<path d="M4.70024 31.5779L20.0002 5.4209V40.7829L5.00424 32.1779C4.91534 32.121 4.84134 32.0439 4.78814 31.9527C4.73484 31.8616 4.70414 31.7592 4.69824 31.6539V14.7059L4.70024 31.5779ZM29.3692 10.8429L34.8272 13.9979L30.3382 23.1479L24.9512 13.9119L29.3692 10.8429Z" fill="#006ADC"/>
<path d="M39.606 11.303L20.416 0.282959C20.2868 0.218559 20.1444 0.185059 20 0.185059C19.8556 0.185059 19.7132 0.218559 19.584 0.282959L0.394001 11.303C0.278501 11.3799 0.182701 11.4828 0.114201 11.6035C0.0458006 11.7243 0.0067 11.8594 0 11.998V33.998C0.0059 34.1374 0.0445981 34.2735 0.113098 34.3952C0.181598 34.5168 0.277801 34.6206 0.394001 34.698L19.583 45.718C19.7122 45.7823 19.8546 45.8158 19.999 45.8158C20.1434 45.8158 20.2858 45.7823 20.415 45.718L39.606 34.698C39.7222 34.6206 39.8184 34.5168 39.8869 34.3952C39.9554 34.2735 39.9941 34.1374 40 33.998V11.998C39.9933 11.8594 39.9542 11.7243 39.8858 11.6035C39.8173 11.4828 39.7215 11.3799 39.606 11.303ZM10.789 29.059H10.868C10.826 29.059 10.789 29.066 10.789 29.109C10.789 29.209 10.94 29.109 10.989 29.209C10.7514 29.2155 10.5257 29.3145 10.36 29.485C10.36 29.536 10.46 29.536 10.511 29.536C10.436 29.636 10.285 29.586 10.234 29.687C10.2611 29.714 10.2961 29.7315 10.334 29.737C10.284 29.737 10.234 29.737 10.234 29.788V29.939C10.108 29.939 10.058 30.039 9.957 30.09C10.157 30.241 10.284 30.09 10.485 30.09C9.957 30.29 9.529 30.568 9.001 30.719C8.901 30.719 9.001 30.87 8.901 30.87C9.052 30.97 9.128 30.82 9.278 30.82C8.624 31.197 7.945 31.52 7.241 31.952C7.1868 32.006 7.1516 32.0762 7.141 32.152H6.941C6.841 32.202 6.891 32.328 6.79 32.429C7.016 32.58 7.29 32.229 7.444 32.429C7.494 32.429 7.344 32.479 7.244 32.479C7.194 32.479 7.194 32.579 7.144 32.579H6.99C6.89 32.654 6.79 32.705 6.79 32.855C6.7466 32.847 6.7019 32.8522 6.6616 32.87C6.6212 32.8879 6.5872 32.9175 6.564 32.955C7.638 32.9507 8.7027 32.755 9.708 32.377C10.4877 31.98 11.1938 31.4527 11.796 30.818C11.8231 30.845 11.8406 30.8801 11.846 30.918C11.6989 31.3545 11.4166 31.7327 11.04 31.998C10.763 32.149 10.562 32.375 10.34 32.476C10.1917 32.5589 10.0487 32.6511 9.912 32.752C9.2797 32.9487 8.6306 33.0866 7.973 33.164L7.668 33.208C7.443 33.241 7.219 33.277 6.997 33.316L5.004 32.178C4.9311 32.1321 4.8681 32.0721 4.8186 32.0015C4.7691 31.9309 4.7343 31.8512 4.716 31.767C4.7493 31.7491 4.7808 31.728 4.81 31.704C4.779 31.6711 4.7401 31.6466 4.697 31.633V30.983C5.7449 30.7966 6.7655 30.4802 7.735 30.041C6.8177 29.4035 5.7868 28.9476 4.698 28.698V27.183C5.2531 27.2739 5.8008 27.405 6.337 27.575C6.7498 27.7266 7.1459 27.9203 7.519 28.153C7.6656 28.294 7.8257 28.4202 7.997 28.53C8.1177 28.5988 8.2525 28.6391 8.3912 28.6478C8.5299 28.6565 8.6687 28.6333 8.797 28.58H9.127C9.8434 28.4616 10.5135 28.1485 11.064 27.675C11.064 27.725 11.114 27.725 11.164 27.725C11.0857 28.1236 10.941 28.5062 10.736 28.857C10.739 28.908 10.688 29.009 10.789 29.059ZM13.606 32.63C13.857 32.53 14.006 32.353 14.235 32.253C14.185 32.303 14.185 32.404 14.135 32.453C13.9474 32.5702 13.7707 32.7041 13.607 32.853C13.0413 33.3515 12.5116 33.8895 12.022 34.463C11.77 34.763 11.494 35.041 11.222 35.318C11.1256 35.4081 11.0219 35.49 10.912 35.563L8.385 34.113C8.7444 34.1433 9.1063 34.1255 9.461 34.06C9.7554 33.9774 10.0416 33.868 10.316 33.733V33.833C11.016 33.556 11.548 32.927 12.253 32.701C12.278 32.701 12.379 32.801 12.479 32.751C12.6601 32.5265 12.8904 32.3467 13.152 32.2253C13.4136 32.1039 13.6997 32.0443 13.988 32.051C13.988 32.101 13.988 32.151 14.038 32.151H14.063C13.912 32.277 13.736 32.402 13.563 32.528C13.506 32.58 13.556 32.63 13.606 32.63ZM4.698 26.466V26.28C5.2161 26.1445 5.7505 26.0812 6.286 26.092C6.4443 26.0668 6.6057 26.0668 6.764 26.092C6.0584 26.0913 5.3585 26.218 4.698 26.466ZM35.298 31.554C35.2922 31.6593 35.2615 31.7618 35.2083 31.8529C35.155 31.944 35.0809 32.0212 34.992 32.078L24.913 37.929C23.7558 37.5978 22.618 37.2022 21.505 36.744C21.3437 36.393 21.256 36.0128 21.2474 35.6267C21.2388 35.2405 21.3095 34.8567 21.455 34.499C21.5349 34.191 21.6531 33.8944 21.807 33.616C21.832 33.591 21.857 33.566 21.857 33.54C21.8636 33.54 21.87 33.5373 21.8747 33.5327C21.8794 33.528 21.882 33.5216 21.882 33.515C21.9931 33.3205 22.1191 33.1349 22.259 32.96L22.274 32.945L22.294 32.924L22.309 32.909C22.309 32.884 22.334 32.859 22.359 32.833C22.384 32.782 22.434 32.757 22.459 32.707C22.6346 32.5211 22.8285 32.3536 23.038 32.207C23.2507 32.1299 23.4695 32.0707 23.692 32.03C24.503 32.0897 25.3095 32.1992 26.107 32.358C26.205 32.3727 26.2992 32.4067 26.384 32.458C26.6851 32.5166 26.9962 32.4995 27.289 32.408C27.4799 32.3731 27.6587 32.2898 27.8084 32.1663C27.9581 32.0427 28.0736 31.8828 28.144 31.702C28.232 31.5408 28.2823 31.3617 28.2909 31.1782C28.2996 30.9948 28.2664 30.8117 28.194 30.643C28.016 30.367 28.181 30.206 28.375 30.053L28.443 29.998C28.5294 29.9368 28.6071 29.8641 28.674 29.782C28.8 29.53 28.574 29.382 28.523 29.152C28.473 29.052 28.297 29.102 28.196 28.952C28.548 28.801 29.051 28.523 28.825 28.095C28.674 27.868 28.448 27.465 28.725 27.238C29.077 27.038 29.58 27.087 29.731 26.759C29.7804 26.5683 29.7794 26.3681 29.7282 26.1779C29.6771 25.9877 29.5774 25.8141 29.439 25.674L29.364 25.566C29.289 25.459 29.215 25.352 29.153 25.246C28.9941 24.9822 28.8177 24.7293 28.625 24.489C28.405 24.1775 28.2275 23.8382 28.097 23.48C27.946 23.102 28.147 22.774 28.147 22.396C28.1618 21.6678 28.0512 20.9426 27.82 20.252C27.694 19.899 27.644 19.521 27.493 19.193C27.474 18.9822 27.3956 18.7811 27.267 18.613C27.2422 18.5619 27.2292 18.5058 27.2292 18.449C27.2292 18.3922 27.2422 18.3361 27.267 18.285C27.472 18.1404 27.6656 17.9803 27.846 17.806C27.9017 17.6837 27.9122 17.5456 27.8756 17.4163C27.839 17.287 27.7576 17.1749 27.646 17.1C27.319 16.949 27.346 17.428 27.118 17.529H26.967C26.917 17.403 27.017 17.352 27.118 17.252C27.118 17.202 27.118 17.101 27.068 17.101C26.868 17.101 26.691 17.05 26.64 16.95C26.158 16.3493 25.5113 15.9024 24.779 15.664C24.967 15.7217 25.1615 15.7553 25.358 15.764C25.6956 15.8354 26.0471 15.8004 26.364 15.664C26.591 15.588 26.641 15.185 26.741 14.958C26.7613 14.8481 26.7583 14.7352 26.7323 14.6265C26.7063 14.5178 26.6578 14.4158 26.59 14.327C26.3629 13.9968 26.0495 13.7353 25.684 13.571C25.508 13.495 25.231 13.344 25.005 13.218C24.928 13.1638 24.8434 13.1213 24.754 13.092C21.789 11.607 15.685 12.892 15.22 13.092H15.211C14.7825 13.2162 14.3648 13.3751 13.962 13.567C13.4074 13.7729 12.9066 14.1016 12.497 14.5285C12.0875 14.9553 11.7798 15.4693 11.597 16.032C11.026 16.4071 10.5658 16.9281 10.264 17.541C9.836 18.341 9.208 19.05 9.308 19.955C9.408 20.735 9.585 21.439 9.736 22.244C9.7789 22.516 9.8459 22.7837 9.936 23.044C10.036 23.32 9.936 23.673 10.087 23.899C10.162 24.05 10.112 24.226 10.314 24.327V24.527C10.364 24.577 10.364 24.627 10.465 24.627V24.827C10.8997 25.2505 11.2723 25.7332 11.572 26.261C11.672 26.537 11.094 26.412 10.872 26.311C10.4565 26.0405 10.0762 25.7193 9.74 25.355C9.7125 25.3818 9.6946 25.4169 9.689 25.455C9.889 25.807 10.595 26.235 10.217 26.461C10.017 26.561 9.789 26.31 9.588 26.512C9.538 26.587 9.588 26.688 9.588 26.788C9.311 26.588 9.01 26.688 8.733 26.588C8.533 26.538 8.481 26.161 8.255 26.161C7.6585 26.0154 7.0537 25.9062 6.444 25.834C5.8679 25.7476 5.2872 25.6945 4.705 25.675V14.706C4.7055 14.5994 4.734 14.4949 4.7877 14.4029C4.8414 14.3109 4.9184 14.2347 5.011 14.182L19.998 5.42096L34.992 14.098C35.0846 14.1506 35.1617 14.2268 35.2154 14.3188C35.2692 14.4108 35.2977 14.5154 35.298 14.622V31.554ZM27.344 23.293C27.3138 23.34 27.2719 23.3783 27.2225 23.4044C27.1731 23.4305 27.1178 23.4435 27.062 23.442C26.9618 23.5264 26.8676 23.6176 26.78 23.715C26.88 23.715 26.78 23.864 26.88 23.864C26.675 24.087 26.957 24.558 26.675 24.657C26.3059 24.7559 25.9171 24.7559 25.548 24.657C25.6029 24.6452 25.6589 24.6398 25.715 24.641H25.8C25.8627 24.6485 25.9263 24.6405 25.9851 24.6174C26.0439 24.5944 26.0961 24.5571 26.137 24.509V24.309C26.137 24.259 26.086 24.259 26.037 24.259C26.0107 24.2871 25.9752 24.3048 25.937 24.309C25.9345 24.264 25.9185 24.2208 25.891 24.1851C25.8635 24.1494 25.8259 24.1228 25.783 24.109C25.6501 24.1267 25.5148 24.111 25.3894 24.0634C25.2641 24.0157 25.1526 23.9376 25.065 23.836C25.2006 23.7708 25.3542 23.7532 25.501 23.786C25.629 23.786 25.578 23.563 25.732 23.464H25.886C26.193 23.092 26.757 22.993 26.86 22.621C26.86 22.521 26.578 22.521 26.373 22.472C26.0989 22.4384 25.821 22.4553 25.553 22.522C25.1932 22.5716 24.8405 22.6632 24.502 22.795C24.7823 22.5892 25.094 22.4302 25.425 22.324C25.6574 22.2345 25.8978 22.1675 26.143 22.124L26.275 22.098L26.408 22.071C26.5894 22.0168 26.7826 22.0168 26.964 22.071C27.195 22.171 27.579 22.171 27.63 22.319C27.73 22.592 27.476 22.864 27.195 23.063C27.138 23.144 27.344 23.198 27.344 23.293Z" fill="white"/>
</svg>
