<svg width="161" height="160" viewBox="0 0 161 160" fill="none" xmlns="http://www.w3.org/2000/svg">
<path fill-rule="evenodd" clip-rule="evenodd" d="M34.5 16C33.3972 16 32.5 15.1028 32.5 14C32.5 12.8971 33.3972 12 34.5 12C35.6028 12 36.5 12.8971 36.5 14C36.5 15.1028 35.6028 16 34.5 16Z" fill="#CACAFB"/>
<path fill-rule="evenodd" clip-rule="evenodd" d="M14.5 128C13.3972 128 12.5 127.103 12.5 126C12.5 124.897 13.3972 124 14.5 124C15.6028 124 16.5 124.897 16.5 126C16.5 127.103 15.6028 128 14.5 128Z" fill="#CACAFB"/>
<path fill-rule="evenodd" clip-rule="evenodd" d="M154.5 116C153.397 116 152.5 115.103 152.5 114C152.5 112.897 153.397 112 154.5 112C155.603 112 156.5 112.897 156.5 114C156.5 115.103 155.603 116 154.5 116Z" fill="#CACAFB"/>
<path fill-rule="evenodd" clip-rule="evenodd" d="M122.5 12C121.397 12 120.5 11.1028 120.5 10C120.5 8.89711 121.397 8 122.5 8C123.603 8 124.5 8.89711 124.5 10C124.5 11.1028 123.603 12 122.5 12Z" fill="#CACAFB"/>
<path fill-rule="evenodd" clip-rule="evenodd" d="M78.5 84C71.8726 84 66.5 89.3726 66.5 96C66.5 100.442 68.9132 104.32 72.5 106.395V114C72.5 117.314 75.1863 120 78.5 120C81.8137 120 84.5 117.314 84.5 114V106.395C88.0868 104.32 90.5 100.442 90.5 96C90.5 89.3726 85.1274 84 78.5 84ZM78.5 104C82.9183 104 86.5 100.418 86.5 96C86.5 91.5817 82.9183 88 78.5 88C74.0817 88 70.5 91.5817 70.5 96C70.5 100.418 74.0817 104 78.5 104ZM76.5 108V114C76.5 115.026 77.2721 115.871 78.2668 115.987L78.5 116C79.6046 116 80.5 115.105 80.5 114V108H76.5Z" fill="#E1000F"/>
<path d="M117.968 125.043L117.786 126.984H115.344L114.929 122.656C117.942 122.341 119.916 121.685 119.916 119.456C119.916 118.092 118.877 117.148 117.526 117.148C116.149 117.148 115.292 117.882 114.331 119.325L111.5 117.567C112.955 115.233 114.929 114 117.682 114C120.747 114 123.5 116.125 123.5 119.456C123.5 122.525 121.188 124.492 117.968 125.043Z" fill="#000091"/>
<path d="M118.851 130.918C118.851 132.151 117.786 133.2 116.591 133.2C115.344 133.2 114.305 132.151 114.305 130.918C114.305 129.685 115.344 128.636 116.591 128.636C117.786 128.636 118.851 129.685 118.851 130.918Z" fill="#000091"/>
<path fill-rule="evenodd" clip-rule="evenodd" d="M78.5 20C98.0426 20 112.5 31.3132 112.5 48.3825C112.5 49.4871 111.605 50.3825 110.5 50.3825C109.395 50.3825 108.5 49.4871 108.5 48.3825C108.5 33.7669 96.0186 24 78.5 24C61.2247 24 48.8477 33.4975 48.5072 47.7764L48.5 48.3825V56H56.5C59.8137 56 62.5 58.6863 62.5 62V66C62.5 66.7013 62.3797 67.3744 62.1586 68H94.8414C94.6203 67.3744 94.5 66.7013 94.5 66V62C94.5 58.6863 97.1863 56 100.5 56V49.2457C100.5 38.9356 91.3062 32 78.2858 32C66.9372 32 58.2951 37.3601 56.4526 45.6685C56.2134 46.7469 55.1454 47.4272 54.067 47.1881C52.9886 46.949 52.3083 45.8809 52.5474 44.8025C54.8458 34.4382 65.2262 28 78.2858 28C93.0782 28 104.155 36.1843 104.492 48.6578L104.5 49.2457V56H110.5C113.814 56 116.5 58.6863 116.5 62V66C116.5 66.7013 116.38 67.3744 116.159 68H116.586C120.902 68 124.289 71.844 124.491 76.5392L124.5 76.9818V90C124.5 91.1046 123.605 92 122.5 92C121.474 92 120.629 91.2279 120.513 90.2332L120.5 90V76.9818C120.5 74.2862 118.823 72.1894 116.856 72.0121L116.586 72H36.4143C34.4234 72 32.6598 73.9796 32.5103 76.6181L32.5 76.9818V96H46.5C47.6046 96 48.5 96.8954 48.5 98C48.5 99.0257 47.7279 99.871 46.7332 99.9865L46.5 100H32.5V112H44.5L44.8525 112.01C48.0022 112.193 50.5 114.805 50.5 118V132H98.1642C97.0938 129.55 96.5 126.844 96.5 124C96.5 112.954 105.454 104 116.5 104C127.546 104 136.5 112.954 136.5 124C136.5 135.046 127.546 144 116.5 144C109.957 144 104.147 140.858 100.499 136H36.4143C32.0979 136 28.7108 132.156 28.5095 127.461L28.5 127.018V76.9818C28.5 72.2363 31.7563 68.2485 36.0124 68.0112L36.4143 68H40.8414C40.6203 67.3744 40.5 66.7013 40.5 66V62C40.5 59.3773 42.1827 57.1477 44.5274 56.3318C44.522 56.2992 44.5173 56.2663 44.5135 56.2332L44.5 56V48.3825C44.5 31.3132 58.9574 20 78.5 20ZM110.5 68C111.605 68 112.5 67.1046 112.5 66V62C112.5 60.8954 111.605 60 110.5 60H100.5C99.3954 60 98.5 60.8954 98.5 62V66C98.5 67.1046 99.3954 68 100.5 68H110.5ZM58.5 66C58.5 67.1046 57.6046 68 56.5 68H46.5C45.3954 68 44.5 67.1046 44.5 66V62C44.5 60.8954 45.3954 60 46.5 60H56.5C57.6046 60 58.5 60.8954 58.5 62V66ZM32.5 127.018V116H44.5C45.5257 116 46.371 116.772 46.4865 117.767L46.5 118V132H36.4143L36.1443 131.988C34.1769 131.811 32.5 129.714 32.5 127.018ZM116.5 108C125.337 108 132.5 115.163 132.5 124C132.5 132.837 125.337 140 116.5 140C107.663 140 100.5 132.837 100.5 124C100.5 115.163 107.663 108 116.5 108Z" fill="#000091"/>
<path d="M124.5 98C124.5 99.1046 123.605 100 122.5 100C121.395 100 120.5 99.1046 120.5 98C120.5 96.8954 121.395 96 122.5 96C123.605 96 124.5 96.8954 124.5 98Z" fill="#000091"/>
<path d="M52.5 98C52.5 96.8954 53.3954 96 54.5 96C55.6046 96 56.5 96.8954 56.5 98C56.5 99.1046 55.6046 100 54.5 100C53.3954 100 52.5 99.1046 52.5 98Z" fill="#000091"/>
</svg>
