<svg width="414" height="452" viewBox="0 0 414 452" fill="none" xmlns="http://www.w3.org/2000/svg">
<g clip-path="url(#clip0_2619_98882)">
<rect width="414" height="451" transform="translate(0 0.437988)" fill="white"/>
<path d="M141.401 25.51V15.238H139.129V25.622C139.129 26.774 138.601 27.206 137.593 27.206C137.369 27.206 137.177 27.19 137.017 27.158V29.158C137.241 29.222 137.545 29.222 137.913 29.222C140.249 29.222 141.401 27.99 141.401 25.51ZM151.585 25.126L150.129 23.974C149.697 24.55 148.929 24.934 148.049 24.934C146.785 24.934 145.857 24.326 145.665 22.822H151.313C151.377 22.55 151.441 22.134 151.441 21.686C151.441 19.574 149.969 18.054 147.729 18.054C145.089 18.054 143.585 20.022 143.585 22.406C143.585 24.758 145.201 26.758 148.065 26.758C149.585 26.758 150.833 26.134 151.585 25.126ZM147.681 19.718C148.817 19.718 149.409 20.534 149.441 21.35H145.729C145.953 20.294 146.641 19.718 147.681 19.718ZM161.611 24.838C160.251 24.838 159.275 23.83 159.275 22.406C159.275 20.998 160.251 19.974 161.579 19.974C162.411 19.974 163.051 20.342 163.435 20.902L165.019 19.686C164.267 18.694 163.083 18.054 161.611 18.054C158.827 18.054 157.163 20.054 157.163 22.406C157.163 24.758 158.827 26.758 161.611 26.758C163.083 26.758 164.267 26.118 165.019 25.126L163.435 23.91C163.051 24.47 162.411 24.838 161.611 24.838ZM166.536 26.438H168.568V21.27C168.872 20.758 169.512 20.214 170.504 20.214C170.872 20.214 171.144 20.262 171.4 20.326V18.326C171.208 18.262 170.968 18.214 170.696 18.214C169.784 18.214 169.096 18.63 168.568 19.174V18.374H166.536V26.438ZM177.381 17.094L179.301 14.438H177.093L175.429 17.094H177.381ZM180.117 25.126L178.661 23.974C178.229 24.55 177.461 24.934 176.581 24.934C175.317 24.934 174.389 24.326 174.197 22.822H179.845C179.909 22.55 179.973 22.134 179.973 21.686C179.973 19.574 178.501 18.054 176.261 18.054C173.621 18.054 172.117 20.022 172.117 22.406C172.117 24.758 173.733 26.758 176.597 26.758C178.117 26.758 179.365 26.134 180.117 25.126ZM176.213 19.718C177.349 19.718 177.941 20.534 177.973 21.35H174.261C174.485 20.294 175.173 19.718 176.213 19.718ZM189.32 25.126L187.864 23.974C187.432 24.55 186.664 24.934 185.784 24.934C184.52 24.934 183.592 24.326 183.4 22.822H189.048C189.112 22.55 189.176 22.134 189.176 21.686C189.176 19.574 187.704 18.054 185.464 18.054C182.824 18.054 181.32 20.022 181.32 22.406C181.32 24.758 182.936 26.758 185.8 26.758C187.32 26.758 188.568 26.134 189.32 25.126ZM185.416 19.718C186.552 19.718 187.144 20.534 187.176 21.35H183.464C183.688 20.294 184.376 19.718 185.416 19.718ZM200.786 22.95C200.786 24.118 200.178 24.838 199.074 24.838C197.954 24.838 197.346 24.118 197.346 22.95V18.374H195.298V22.854C195.298 25.27 196.69 26.758 199.058 26.758C201.426 26.758 202.834 25.27 202.834 22.854V18.374H200.786V22.95ZM205.083 26.438H207.115V21.174C207.419 20.662 207.963 19.974 208.987 19.974C209.979 19.974 210.587 20.646 210.587 21.718V26.438H212.635V21.638C212.635 19.254 211.243 18.054 209.499 18.054C208.427 18.054 207.675 18.47 207.115 19.014V18.374H205.083V26.438ZM223.127 24.838C221.767 24.838 220.791 23.83 220.791 22.406C220.791 20.998 221.767 19.974 223.095 19.974C223.927 19.974 224.567 20.342 224.951 20.902L226.535 19.686C225.783 18.694 224.599 18.054 223.127 18.054C220.343 18.054 218.679 20.054 218.679 22.406C218.679 24.758 220.343 26.758 223.127 26.758C224.599 26.758 225.783 26.118 226.535 25.126L224.951 23.91C224.567 24.47 223.927 24.838 223.127 24.838ZM231.579 18.054C228.955 18.054 227.163 19.99 227.163 22.406C227.163 24.822 228.955 26.758 231.579 26.758C234.203 26.758 235.995 24.822 235.995 22.406C235.995 19.99 234.203 18.054 231.579 18.054ZM231.611 24.838C230.267 24.838 229.275 23.814 229.275 22.406C229.275 20.998 230.267 19.974 231.611 19.974C232.907 19.974 233.883 20.998 233.883 22.406C233.883 23.798 232.907 24.838 231.611 24.838ZM237.849 26.438H239.881V21.174C240.185 20.662 240.665 19.974 241.593 19.974C242.505 19.974 243.033 20.582 243.033 21.558V26.438H245.081V21.478C245.081 21.35 245.081 21.238 245.065 21.126C245.385 20.582 245.865 19.974 246.745 19.974C247.657 19.974 248.185 20.582 248.185 21.558V26.438H250.233V21.478C250.233 19.206 248.921 18.054 247.257 18.054C245.897 18.054 245.129 18.662 244.553 19.366C244.025 18.502 243.129 18.054 242.105 18.054C241.113 18.054 240.425 18.454 239.881 18.982V18.374H237.849V26.438ZM252.552 30.374H254.584V25.782C255.208 26.406 255.992 26.758 257.096 26.758C259.656 26.758 261.192 24.758 261.192 22.406C261.192 20.054 259.656 18.054 257.096 18.054C255.992 18.054 255.208 18.406 254.584 19.03V18.374H252.552V30.374ZM256.808 19.974C258.184 19.974 259.08 20.998 259.08 22.406C259.08 23.814 258.184 24.838 256.808 24.838C255.88 24.838 255.128 24.438 254.584 23.67V21.142C255.096 20.39 255.864 19.974 256.808 19.974ZM263.47 23.494C263.47 25.462 264.43 26.598 266.446 26.598C267.118 26.598 267.598 26.518 267.998 26.342V24.566C267.726 24.678 267.358 24.742 266.798 24.742C265.998 24.742 265.518 24.39 265.518 23.494V20.198H267.982V18.374H265.518V16.358H263.47V18.374H261.966V20.198H263.47V23.494ZM277.07 25.126L275.614 23.974C275.182 24.55 274.414 24.934 273.534 24.934C272.27 24.934 271.342 24.326 271.15 22.822H276.798C276.862 22.55 276.926 22.134 276.926 21.686C276.926 19.574 275.454 18.054 273.214 18.054C270.574 18.054 269.07 20.022 269.07 22.406C269.07 24.758 270.686 26.758 273.55 26.758C275.07 26.758 276.318 26.134 277.07 25.126ZM273.166 19.718C274.302 19.718 274.894 20.534 274.926 21.35H271.214C271.438 20.294 272.126 19.718 273.166 19.718Z" fill="black"/>
<g clip-path="url(#clip1_2619_98882)">
<path d="M172.495 49.2951H174.551V41.9803L176.809 45.798H178.257L180.516 41.9803V49.2951H182.572V39.0951H180.009L177.533 43.3791L175.058 39.0951H172.495V49.2951ZM188.53 41.6597C186.155 41.6597 184.534 43.4229 184.534 45.6231C184.534 47.8234 186.155 49.5866 188.53 49.5866C190.904 49.5866 192.526 47.8234 192.526 45.6231C192.526 43.4229 190.904 41.6597 188.53 41.6597ZM188.559 47.838C187.343 47.838 186.445 46.9054 186.445 45.6231C186.445 44.3409 187.343 43.4083 188.559 43.4083C189.731 43.4083 190.614 44.3409 190.614 45.6231C190.614 46.8909 189.731 47.838 188.559 47.838ZM194.203 49.2951H196.041V44.5011C196.316 44.0349 196.809 43.4083 197.735 43.4083C198.633 43.4083 199.183 44.0203 199.183 44.9966V49.2951H201.036V44.9237C201.036 42.7526 199.777 41.6597 198.199 41.6597C197.229 41.6597 196.548 42.0386 196.041 42.534V41.9511H194.203V49.2951ZM208.032 47.6486C206.121 47.6486 204.76 46.1477 204.76 44.1951C204.76 42.2426 206.121 40.7417 208.032 40.7417C209.19 40.7417 210.102 41.31 210.681 42.1406L212.303 40.8729C211.376 39.6343 209.871 38.8037 208.032 38.8037C204.832 38.8037 202.646 41.2809 202.646 44.1951C202.646 47.1094 204.832 49.5866 208.032 49.5866C209.871 49.5866 211.376 48.7706 212.303 47.5029L210.681 46.2497C210.102 47.0803 209.19 47.6486 208.032 47.6486ZM217.174 41.6597C214.8 41.6597 213.178 43.4229 213.178 45.6231C213.178 47.8234 214.8 49.5866 217.174 49.5866C219.548 49.5866 221.17 47.8234 221.17 45.6231C221.17 43.4229 219.548 41.6597 217.174 41.6597ZM217.203 47.838C215.987 47.838 215.089 46.9054 215.089 45.6231C215.089 44.3409 215.987 43.4083 217.203 43.4083C218.376 43.4083 219.259 44.3409 219.259 45.6231C219.259 46.8909 218.376 47.838 217.203 47.838ZM222.847 49.2951H224.686V44.5011C224.961 44.0349 225.395 43.4083 226.235 43.4083C227.06 43.4083 227.538 43.962 227.538 44.8509V49.2951H229.391V44.778C229.391 44.6614 229.391 44.5594 229.376 44.4574C229.666 43.962 230.1 43.4083 230.896 43.4083C231.722 43.4083 232.199 43.962 232.199 44.8509V49.2951H234.053V44.778C234.053 42.7089 232.865 41.6597 231.36 41.6597C230.129 41.6597 229.434 42.2134 228.913 42.8546C228.435 42.0677 227.625 41.6597 226.698 41.6597C225.8 41.6597 225.178 42.024 224.686 42.5049V41.9511H222.847V49.2951ZM236.151 52.8797H237.99V48.6977C238.555 49.266 239.264 49.5866 240.263 49.5866C242.579 49.5866 243.969 47.7651 243.969 45.6231C243.969 43.4811 242.579 41.6597 240.263 41.6597C239.264 41.6597 238.555 41.9803 237.99 42.5486V41.9511H236.151V52.8797ZM240.002 43.4083C241.247 43.4083 242.058 44.3409 242.058 45.6231C242.058 46.9054 241.247 47.838 240.002 47.838C239.163 47.838 238.482 47.4737 237.99 46.7743V44.472C238.453 43.7871 239.148 43.4083 240.002 43.4083ZM246.031 46.614C246.031 48.4063 246.899 49.4409 248.723 49.4409C249.331 49.4409 249.766 49.368 250.128 49.2077V47.5903C249.882 47.6923 249.549 47.7506 249.042 47.7506C248.318 47.7506 247.884 47.43 247.884 46.614V43.6123H250.113V41.9511H247.884V40.1151H246.031V41.9511H244.67V43.6123H246.031V46.614ZM258.337 48.1003L257.019 47.0511C256.628 47.5757 255.933 47.9254 255.137 47.9254C253.993 47.9254 253.154 47.3717 252.98 46.002H258.09C258.148 45.7543 258.206 45.3754 258.206 44.9674C258.206 43.044 256.874 41.6597 254.847 41.6597C252.459 41.6597 251.098 43.452 251.098 45.6231C251.098 47.7651 252.56 49.5866 255.152 49.5866C256.527 49.5866 257.656 49.0183 258.337 48.1003ZM254.804 43.1751C255.832 43.1751 256.368 43.9183 256.397 44.6614H253.038C253.24 43.6997 253.863 43.1751 254.804 43.1751ZM260.394 49.2951H262.45V45.1714H263.738C265.968 45.1714 267.328 44.0203 267.328 42.1406C267.328 40.2463 265.968 39.0951 263.738 39.0951H260.394V49.2951ZM263.825 40.8146C264.694 40.8146 265.215 41.3391 265.215 42.1114C265.215 42.942 264.694 43.452 263.825 43.452H262.45V40.8146H263.825ZM268.755 49.2951H270.593V44.5886C270.868 44.1223 271.447 43.6269 272.345 43.6269C272.678 43.6269 272.924 43.6706 273.156 43.7289V41.9074C272.982 41.8491 272.765 41.8054 272.519 41.8054C271.694 41.8054 271.071 42.1843 270.593 42.6797V41.9511H268.755V49.2951ZM277.8 41.6597C275.425 41.6597 273.804 43.4229 273.804 45.6231C273.804 47.8234 275.425 49.5866 277.8 49.5866C280.174 49.5866 281.795 47.8234 281.795 45.6231C281.795 43.4229 280.174 41.6597 277.8 41.6597ZM277.828 47.838C276.612 47.838 275.715 46.9054 275.715 45.6231C275.715 44.3409 276.612 43.4083 277.828 43.4083C279.001 43.4083 279.884 44.3409 279.884 45.6231C279.884 46.8909 279.001 47.838 277.828 47.838Z" fill="#000091"/>
<path d="M158.559 37.8583L147.607 31.4448L136.655 37.9203C136.588 37.9593 136.531 38.0157 136.492 38.0837C136.453 38.1517 136.432 38.2289 136.432 38.3077V50.8345C136.436 50.9123 136.458 50.988 136.497 51.0553C136.536 51.1227 136.59 51.1797 136.655 51.2218L147.605 57.5783L158.557 51.1434C158.622 51.1014 158.676 51.0443 158.715 50.977C158.754 50.9097 158.776 50.8339 158.781 50.7561V38.2486C158.781 38.1694 158.761 38.0916 158.722 38.023C158.683 37.9545 158.626 37.8976 158.559 37.8583Z" fill="#000091"/>
<path d="M143.694 38.2279L140.021 44.6051L136.692 37.8236L140.629 35.5226L143.908 37.8583L143.694 38.2279ZM158.781 50.7783V38.2441C158.781 38.1654 158.761 38.0881 158.721 38.0202C158.682 37.9522 158.626 37.8961 158.558 37.8576L147.607 31.4448" fill="#E1000F"/>
<path d="M136.433 50.7783L147.608 31.4448V57.582L136.655 51.2218C136.59 51.1797 136.536 51.1227 136.497 51.0553C136.458 50.9879 136.436 50.9123 136.432 50.8345V38.3076L136.433 50.7783ZM154.452 35.4524L158.438 37.7843L155.159 44.5474L151.225 37.7208L154.452 35.4524Z" fill="#006ADC"/>
<path d="M161.929 35.7923L147.912 27.647C147.818 27.5995 147.714 27.5747 147.608 27.5747C147.503 27.5747 147.399 27.5995 147.304 27.647L133.288 35.7923C133.203 35.8491 133.133 35.9252 133.083 36.0144C133.033 36.1037 133.005 36.2035 133 36.306V52.5668C133.004 52.6699 133.033 52.7705 133.083 52.8604C133.133 52.9503 133.203 53.027 133.288 53.0842L147.304 61.2295C147.398 61.277 147.502 61.3017 147.607 61.3017C147.713 61.3017 147.817 61.277 147.911 61.2295L161.929 53.0842C162.013 53.027 162.084 52.9503 162.134 52.8604C162.184 52.7705 162.212 52.6699 162.216 52.5668V36.306C162.211 36.2035 162.183 36.1037 162.133 36.0144C162.083 35.9252 162.013 35.8491 161.929 35.7923ZM140.88 48.9163H140.938C140.907 48.9163 140.88 48.9215 140.88 48.9532C140.88 49.0272 140.991 48.9532 141.026 49.0272C140.853 49.032 140.688 49.1051 140.567 49.2312C140.567 49.2689 140.64 49.2689 140.677 49.2689C140.623 49.3428 140.512 49.3058 140.475 49.3805C140.495 49.4004 140.52 49.4134 140.548 49.4174C140.512 49.4174 140.475 49.4174 140.475 49.4551V49.5667C140.383 49.5667 140.346 49.6406 140.273 49.6783C140.419 49.7899 140.512 49.6783 140.658 49.6783C140.273 49.8262 139.96 50.0316 139.574 50.1432C139.501 50.1432 139.574 50.2549 139.501 50.2549C139.612 50.3288 139.667 50.2179 139.777 50.2179C139.299 50.4965 138.803 50.7353 138.289 51.0546C138.249 51.0945 138.224 51.1464 138.216 51.2024H138.07C137.997 51.2394 138.033 51.3325 137.959 51.4072C138.125 51.5188 138.325 51.2593 138.437 51.4072C138.474 51.4072 138.364 51.4441 138.291 51.4441C138.255 51.4441 138.255 51.518 138.218 51.518H138.106C138.033 51.5735 137.959 51.6112 137.959 51.722C137.928 51.7161 137.895 51.72 137.866 51.7331C137.836 51.7463 137.811 51.7682 137.794 51.7959C138.579 51.7928 139.357 51.6481 140.091 51.3687C140.66 51.0753 141.176 50.6855 141.616 50.2164C141.636 50.2364 141.648 50.2623 141.652 50.2903C141.545 50.613 141.339 50.8925 141.064 51.0886C140.861 51.2002 140.715 51.3672 140.552 51.4419C140.444 51.5032 140.34 51.5713 140.24 51.6459C139.778 51.7913 139.304 51.8932 138.824 51.9504L138.601 51.9829C138.436 52.0073 138.273 52.0339 138.111 52.0628L136.655 51.2216C136.602 51.1877 136.556 51.1434 136.52 51.0912C136.483 51.039 136.458 50.9801 136.445 50.9179C136.469 50.9046 136.492 50.889 136.513 50.8713C136.491 50.847 136.462 50.8289 136.431 50.8188V50.3384C137.196 50.2006 137.942 49.9667 138.65 49.6421C137.98 49.1709 137.227 48.8339 136.431 48.6495V47.5297C136.837 47.5969 137.237 47.6938 137.629 47.8194C137.93 47.9315 138.219 48.0746 138.492 48.2466C138.599 48.3509 138.716 48.4441 138.841 48.5253C138.929 48.5761 139.028 48.6059 139.129 48.6124C139.23 48.6188 139.332 48.6016 139.425 48.5622H139.666C140.19 48.4747 140.679 48.2433 141.081 47.8933C141.081 47.9303 141.118 47.9303 141.154 47.9303C141.097 48.2249 140.991 48.5077 140.842 48.767C140.844 48.8047 140.807 48.8793 140.88 48.9163ZM142.938 51.5557C143.121 51.4818 143.23 51.351 143.397 51.2771C143.361 51.314 143.361 51.3887 143.324 51.4249C143.187 51.5115 143.058 51.6105 142.939 51.7205C142.525 52.089 142.139 52.4867 141.781 52.9105C141.597 53.1323 141.395 53.3378 141.197 53.5425C141.126 53.6091 141.05 53.6696 140.97 53.7236L139.124 52.6519C139.387 52.6742 139.651 52.6611 139.91 52.6127C140.125 52.5516 140.334 52.4708 140.535 52.371V52.4449C141.046 52.2402 141.435 51.7752 141.95 51.6082C141.968 51.6082 142.042 51.6821 142.115 51.6452C142.247 51.4792 142.415 51.3463 142.606 51.2566C142.797 51.1669 143.006 51.1228 143.217 51.1278C143.217 51.1647 143.217 51.2017 143.253 51.2017H143.272C143.161 51.2948 143.033 51.3872 142.907 51.4803C142.865 51.5188 142.901 51.5557 142.938 51.5557ZM136.431 46.9997V46.8622C136.81 46.7621 137.2 46.7153 137.591 46.7233C137.707 46.7047 137.825 46.7047 137.94 46.7233C137.425 46.7228 136.914 46.8164 136.431 46.9997ZM158.782 50.7604C158.778 50.8382 158.755 50.914 158.716 50.9813C158.678 51.0487 158.623 51.1057 158.558 51.1477L151.197 55.4724C150.351 55.2276 149.52 54.9352 148.707 54.5965C148.59 54.3371 148.526 54.056 148.519 53.7707C148.513 53.4852 148.565 53.2015 148.671 52.9372C148.729 52.7095 148.816 52.4903 148.928 52.2845C148.946 52.266 148.965 52.2475 148.965 52.2283C148.969 52.2283 148.974 52.2263 148.977 52.2229C148.981 52.2195 148.983 52.2147 148.983 52.2099C149.064 52.0661 149.156 51.9289 149.258 51.7996L149.269 51.7885L149.284 51.773L149.295 51.7619C149.295 51.7435 149.313 51.725 149.331 51.7058C149.349 51.6681 149.386 51.6496 149.404 51.6126C149.532 51.4752 149.674 51.3514 149.827 51.2431C149.983 51.1861 150.142 51.1423 150.305 51.1122C150.897 51.1564 151.486 51.2373 152.069 51.3547C152.14 51.3655 152.209 51.3907 152.271 51.4286C152.491 51.4719 152.718 51.4593 152.932 51.3916C153.072 51.3658 153.202 51.3043 153.311 51.213C153.421 51.1216 153.505 51.0034 153.557 50.8698C153.621 50.7507 153.658 50.6183 153.664 50.4827C153.67 50.3471 153.646 50.2118 153.593 50.0871C153.463 49.8831 153.584 49.7641 153.725 49.651L153.775 49.6103C153.838 49.5651 153.895 49.5114 153.944 49.4507C154.036 49.2644 153.871 49.155 153.833 48.985C153.797 48.9111 153.668 48.9481 153.595 48.8372C153.852 48.7256 154.219 48.5201 154.054 48.2038C153.944 48.036 153.779 47.7381 153.981 47.5703C154.238 47.4225 154.605 47.4587 154.716 47.2163C154.752 47.0753 154.751 46.9274 154.714 46.7868C154.676 46.6462 154.604 46.5179 154.503 46.4143L154.448 46.3345C154.393 46.2554 154.339 46.1763 154.294 46.098C154.178 45.903 154.049 45.7161 153.908 45.5385C153.747 45.3082 153.618 45.0574 153.522 44.7927C153.412 44.5133 153.559 44.2709 153.559 43.9915C153.57 43.4532 153.489 42.9172 153.32 42.4068C153.228 42.1459 153.191 41.8665 153.081 41.624C153.067 41.4682 153.01 41.3196 152.916 41.1953C152.898 41.1576 152.888 41.1161 152.888 41.0741C152.888 41.0321 152.898 40.9907 152.916 40.9529C153.066 40.846 153.207 40.7277 153.339 40.5989C153.38 40.5085 153.387 40.4064 153.361 40.3108C153.334 40.2152 153.274 40.1324 153.193 40.077C152.954 39.9654 152.974 40.3195 152.807 40.3941H152.697C152.66 40.301 152.733 40.2633 152.807 40.1894C152.807 40.1524 152.807 40.0778 152.771 40.0778C152.625 40.0778 152.495 40.0401 152.458 39.9662C152.106 39.5222 151.634 39.1918 151.099 39.0156C151.236 39.0583 151.378 39.0831 151.522 39.0895C151.768 39.1423 152.025 39.1165 152.256 39.0156C152.422 38.9595 152.459 38.6616 152.532 38.4938C152.547 38.4126 152.544 38.3291 152.526 38.2488C152.507 38.1684 152.471 38.0931 152.422 38.0274C152.256 37.7834 152.027 37.5901 151.76 37.4686C151.631 37.4125 151.429 37.3009 151.264 37.2077C151.208 37.1677 151.146 37.1362 151.081 37.1146C148.915 36.017 144.456 36.9668 144.117 37.1146H144.11C143.797 37.2064 143.492 37.3238 143.198 37.4657C142.793 37.6179 142.427 37.8608 142.128 38.1764C141.829 38.4918 141.604 38.8717 141.471 39.2876C141.053 39.5649 140.717 39.95 140.497 40.403C140.184 40.9943 139.726 41.5183 139.799 42.1872C139.872 42.7638 140.001 43.2841 140.111 43.8791C140.143 44.0802 140.192 44.278 140.257 44.4704C140.33 44.6744 140.257 44.9353 140.368 45.1024C140.422 45.214 140.386 45.3441 140.533 45.4187V45.5665C140.57 45.6035 140.57 45.6405 140.644 45.6405V45.7883C140.961 46.1013 141.233 46.4581 141.452 46.8482C141.525 47.0522 141.103 46.9598 140.941 46.8852C140.637 46.6852 140.36 46.4478 140.114 46.1785C140.094 46.1984 140.081 46.2243 140.077 46.2525C140.223 46.5126 140.739 46.829 140.463 46.996C140.317 47.0699 140.15 46.8844 140.003 47.0337C139.967 47.0892 140.003 47.1638 140.003 47.2377C139.801 47.0899 139.581 47.1638 139.379 47.0899C139.233 47.0529 139.195 46.7743 139.03 46.7743C138.594 46.6667 138.152 46.586 137.707 46.5326C137.286 46.4687 136.862 46.4295 136.437 46.4151V38.3075C136.437 38.2288 136.458 38.1515 136.497 38.0835C136.536 38.0155 136.592 37.9592 136.66 37.9202L147.607 31.4447L158.558 37.8582C158.626 37.897 158.682 37.9534 158.722 38.0214C158.761 38.0894 158.782 38.1667 158.782 38.2455V50.7604ZM152.972 44.6545C152.95 44.6892 152.92 44.7175 152.884 44.7368C152.847 44.7561 152.807 44.7657 152.766 44.7646C152.693 44.827 152.624 44.8944 152.56 44.9664C152.633 44.9664 152.56 45.0765 152.633 45.0765C152.484 45.2413 152.69 45.5895 152.484 45.6626C152.214 45.7357 151.93 45.7357 151.66 45.6626C151.701 45.6539 151.741 45.6499 151.782 45.6508H151.845C151.89 45.6564 151.937 45.6504 151.98 45.6334C152.023 45.6164 152.061 45.5888 152.091 45.5532V45.4054C152.091 45.3685 152.053 45.3685 152.018 45.3685C151.998 45.3892 151.973 45.4023 151.945 45.4054C151.943 45.3722 151.931 45.3402 151.911 45.3138C151.891 45.2875 151.863 45.2678 151.832 45.2576C151.735 45.2707 151.636 45.2591 151.545 45.2239C151.453 45.1886 151.372 45.1309 151.308 45.0558C151.407 45.0076 151.519 44.9946 151.626 45.0189C151.72 45.0189 151.682 44.854 151.795 44.7809H151.907C152.132 44.5059 152.544 44.4327 152.619 44.1578C152.619 44.0839 152.413 44.0839 152.263 44.0476C152.063 44.0228 151.86 44.0353 151.664 44.0846C151.401 44.1213 151.144 44.189 150.896 44.2864C151.101 44.1343 151.329 44.0167 151.571 43.9382C151.74 43.8721 151.916 43.8226 152.095 43.7904L152.192 43.7712L152.289 43.7512C152.421 43.7112 152.562 43.7112 152.695 43.7512C152.863 43.8252 153.144 43.8252 153.181 43.9345C153.254 44.1363 153.069 44.3374 152.863 44.4845C152.822 44.5443 152.972 44.5842 152.972 44.6545Z" fill="white"/>
</g>
<rect x="90" y="1.43799" width="235" height="66" stroke="#000091" stroke-width="2"/>
<path d="M136.351 117.038L139.711 125.438H141.199L144.559 117.038H143.359L140.455 124.298L137.551 117.038H136.351ZM148.371 118.43L149.775 116.438H148.623L147.375 118.43H148.371ZM150.675 124.442L149.919 123.854C149.523 124.394 148.863 124.754 148.083 124.754C146.787 124.754 145.863 123.878 145.827 122.426H150.471C150.507 122.258 150.543 122.03 150.543 121.79C150.543 120.302 149.475 119.15 147.831 119.15C145.959 119.15 144.783 120.578 144.783 122.414C144.783 124.178 146.043 125.678 148.083 125.678C149.211 125.678 150.111 125.198 150.675 124.442ZM147.807 120.014C148.875 120.014 149.487 120.758 149.523 121.646H145.899C146.115 120.602 146.811 120.014 147.807 120.014ZM152.271 125.438H153.291V121.286C153.663 120.674 154.179 120.266 154.971 120.266C155.211 120.266 155.391 120.29 155.571 120.338V119.342C155.427 119.294 155.247 119.27 155.055 119.27C154.287 119.27 153.735 119.618 153.291 120.146V119.39H152.271V125.438ZM157.557 117.818C157.953 117.818 158.265 117.494 158.265 117.098C158.265 116.714 157.953 116.39 157.557 116.39C157.161 116.39 156.837 116.714 156.837 117.098C156.837 117.494 157.161 117.818 157.557 117.818ZM157.041 125.438H158.061V119.39H157.041V125.438ZM159.425 119.39V120.314H160.565V125.438H161.597V120.314H163.697V119.39H161.597V118.622C161.597 117.83 162.053 117.362 162.737 117.362C163.085 117.362 163.361 117.47 163.589 117.638L164.045 116.786C163.709 116.594 163.265 116.438 162.713 116.438C161.393 116.438 160.565 117.362 160.565 118.646V119.39H159.425ZM165.455 117.818C165.851 117.818 166.163 117.494 166.163 117.098C166.163 116.714 165.851 116.39 165.455 116.39C165.059 116.39 164.735 116.714 164.735 117.098C164.735 117.494 165.059 117.818 165.455 117.818ZM164.939 125.438H165.959V119.39H164.939V125.438ZM170.899 124.718C169.591 124.718 168.667 123.71 168.667 122.414C168.667 121.13 169.591 120.11 170.887 120.11C171.643 120.11 172.255 120.47 172.627 120.998L173.431 120.386C172.867 119.642 171.979 119.15 170.887 119.15C168.883 119.15 167.599 120.65 167.599 122.414C167.599 124.178 168.883 125.678 170.887 125.678C171.991 125.678 172.867 125.198 173.431 124.442L172.627 123.83C172.255 124.358 171.643 124.718 170.899 124.718ZM176.392 125.606C177.172 125.606 177.964 125.258 178.42 124.67V125.438H179.44V121.382C179.44 120.05 178.528 119.15 176.992 119.15C175.936 119.15 175.084 119.594 174.556 120.314L175.324 120.902C175.696 120.386 176.26 120.062 176.956 120.062C177.82 120.062 178.42 120.542 178.42 121.382V121.802L176.38 122.138C175.096 122.354 174.4 123.002 174.4 123.914C174.4 124.946 175.204 125.606 176.392 125.606ZM175.432 123.878C175.432 123.362 175.804 122.99 176.632 122.846L178.42 122.546V123.734C178.024 124.382 177.364 124.766 176.56 124.766C175.852 124.766 175.432 124.394 175.432 123.878ZM181.834 123.41C181.834 124.886 182.59 125.558 183.934 125.558C184.366 125.558 184.69 125.51 184.978 125.39V124.478C184.75 124.574 184.474 124.622 184.078 124.622C183.346 124.622 182.866 124.358 182.866 123.41V120.314H184.966V119.39H182.866V117.878H181.834V119.39H180.694V120.314H181.834V123.41ZM187.041 117.818C187.437 117.818 187.749 117.494 187.749 117.098C187.749 116.714 187.437 116.39 187.041 116.39C186.645 116.39 186.321 116.714 186.321 117.098C186.321 117.494 186.645 117.818 187.041 117.818ZM186.525 125.438H187.545V119.39H186.525V125.438ZM192.461 119.15C190.505 119.15 189.185 120.65 189.185 122.414C189.185 124.178 190.505 125.678 192.461 125.678C194.405 125.678 195.737 124.178 195.737 122.414C195.737 120.65 194.405 119.15 192.461 119.15ZM192.473 124.718C191.177 124.718 190.253 123.674 190.253 122.414C190.253 121.154 191.177 120.11 192.473 120.11C193.733 120.11 194.657 121.154 194.657 122.414C194.657 123.662 193.733 124.718 192.473 124.718ZM197.377 125.438H198.397V121.25C198.781 120.614 199.333 120.11 200.209 120.11C201.145 120.11 201.757 120.734 201.757 121.814V125.438H202.777V121.778C202.777 120.062 201.769 119.15 200.413 119.15C199.513 119.15 198.889 119.534 198.397 120.074V119.39H197.377V125.438ZM207.548 122.414C207.548 124.178 208.76 125.678 210.656 125.678C211.556 125.678 212.264 125.33 212.804 124.718V125.438H213.824V116.438H212.804V120.11C212.264 119.498 211.556 119.15 210.656 119.15C208.76 119.15 207.548 120.65 207.548 122.414ZM208.628 122.414C208.628 121.13 209.492 120.11 210.776 120.11C211.604 120.11 212.336 120.506 212.804 121.226V123.602C212.36 124.31 211.616 124.718 210.776 124.718C209.492 124.718 208.628 123.698 208.628 122.414ZM220.187 122.846C220.187 124.034 219.539 124.718 218.531 124.718C217.499 124.718 216.863 124.034 216.863 122.846V119.39H215.843V122.81C215.843 124.622 216.887 125.678 218.519 125.678C220.163 125.678 221.207 124.622 221.207 122.81V119.39H220.187V122.846ZM225.803 124.61C226.355 125.294 227.111 125.678 228.071 125.678C229.199 125.678 230.099 124.97 230.111 123.842C230.111 121.778 227.075 122.21 227.075 120.854C227.075 120.386 227.423 120.002 228.071 120.002C228.599 120.002 229.055 120.29 229.379 120.746L230.087 120.146C229.667 119.558 228.923 119.15 228.059 119.15C226.895 119.15 226.091 119.93 226.091 120.878C226.091 123.014 229.115 122.534 229.115 123.89C229.115 124.418 228.731 124.826 228.059 124.826C227.447 124.826 226.943 124.526 226.523 123.998L225.803 124.61ZM233.779 126.902L236.959 119.39H235.879L233.875 124.13L231.847 119.39H230.719L233.335 125.426L232.867 126.53C232.555 127.274 232.075 127.502 231.463 127.502C231.175 127.502 230.899 127.442 230.671 127.334V128.246C230.935 128.378 231.235 128.438 231.643 128.438C232.663 128.438 233.359 127.91 233.779 126.902ZM237.358 124.61C237.91 125.294 238.666 125.678 239.626 125.678C240.754 125.678 241.654 124.97 241.666 123.842C241.666 121.778 238.63 122.21 238.63 120.854C238.63 120.386 238.978 120.002 239.626 120.002C240.154 120.002 240.61 120.29 240.934 120.746L241.642 120.146C241.222 119.558 240.478 119.15 239.614 119.15C238.45 119.15 237.646 119.93 237.646 120.878C237.646 123.014 240.67 122.534 240.67 123.89C240.67 124.418 240.286 124.826 239.614 124.826C239.002 124.826 238.498 124.526 238.078 123.998L237.358 124.61ZM243.721 123.41C243.721 124.886 244.477 125.558 245.821 125.558C246.253 125.558 246.577 125.51 246.865 125.39V124.478C246.637 124.574 246.361 124.622 245.965 124.622C245.233 124.622 244.753 124.358 244.753 123.41V120.314H246.853V119.39H244.753V117.878H243.721V119.39H242.581V120.314H243.721V123.41ZM250.323 118.43H251.307L250.059 116.438H248.919L250.323 118.43ZM253.671 124.442L252.915 123.854C252.519 124.394 251.859 124.754 251.079 124.754C249.783 124.754 248.859 123.878 248.823 122.426H253.467C253.503 122.258 253.539 122.03 253.539 121.79C253.539 120.302 252.471 119.15 250.827 119.15C248.955 119.15 247.779 120.578 247.779 122.414C247.779 124.178 249.039 125.678 251.079 125.678C252.207 125.678 253.107 125.198 253.671 124.442ZM250.803 120.014C251.871 120.014 252.483 120.758 252.519 121.646H248.895C249.111 120.602 249.807 120.014 250.803 120.014ZM255.268 125.438H256.288V121.25C256.636 120.626 257.152 120.11 257.98 120.11C258.856 120.11 259.408 120.686 259.408 121.694V125.438H260.428V121.658C260.428 121.514 260.416 121.382 260.404 121.25C260.799 120.542 261.34 120.11 262.108 120.11C262.972 120.11 263.536 120.686 263.536 121.694V125.438H264.556V121.658C264.556 120.014 263.608 119.15 262.312 119.15C261.268 119.15 260.632 119.654 260.152 120.314C259.78 119.546 259.06 119.15 258.184 119.15C257.344 119.15 256.744 119.522 256.288 120.05V119.39H255.268V125.438ZM271.987 124.442L271.231 123.854C270.835 124.394 270.175 124.754 269.395 124.754C268.099 124.754 267.175 123.878 267.139 122.426H271.783C271.819 122.258 271.855 122.03 271.855 121.79C271.855 120.302 270.787 119.15 269.143 119.15C267.271 119.15 266.095 120.578 266.095 122.414C266.095 124.178 267.355 125.678 269.395 125.678C270.523 125.678 271.423 125.198 271.987 124.442ZM269.119 120.014C270.187 120.014 270.799 120.758 270.835 121.646H267.211C267.427 120.602 268.123 120.014 269.119 120.014ZM277.37 120.782C277.802 120.782 278.138 120.434 278.138 120.014C278.138 119.594 277.802 119.258 277.37 119.258C276.938 119.258 276.59 119.594 276.59 120.014C276.59 120.434 276.938 120.782 277.37 120.782ZM277.37 125.57C277.802 125.57 278.138 125.234 278.138 124.814C278.138 124.394 277.802 124.046 277.37 124.046C276.938 124.046 276.59 124.394 276.59 124.814C276.59 125.234 276.938 125.57 277.37 125.57ZM109.41 139.438H110.43V130.438H109.41V139.438ZM113.029 134.254L114.265 131.038H113.101L112.081 134.254H113.029ZM117.865 133.15C115.909 133.15 114.589 134.65 114.589 136.414C114.589 138.178 115.909 139.678 117.865 139.678C119.809 139.678 121.141 138.178 121.141 136.414C121.141 134.65 119.809 133.15 117.865 133.15ZM117.877 138.718C116.581 138.718 115.657 137.674 115.657 136.414C115.657 135.154 116.581 134.11 117.877 134.11C119.137 134.11 120.061 135.154 120.061 136.414C120.061 137.662 119.137 138.718 117.877 138.718ZM122.781 139.438H123.801V135.286C124.173 134.674 124.689 134.266 125.481 134.266C125.721 134.266 125.901 134.29 126.081 134.338V133.342C125.937 133.294 125.757 133.27 125.565 133.27C124.797 133.27 124.245 133.618 123.801 134.146V133.39H122.781V139.438ZM126.738 140.53C126.738 141.742 127.914 142.438 129.702 142.438C131.514 142.438 132.786 141.49 132.786 140.218C132.786 139.138 132.042 138.358 130.446 138.358H128.718C128.346 138.358 128.214 138.178 128.214 137.926C128.214 137.698 128.358 137.482 128.61 137.302C128.862 137.374 129.15 137.422 129.45 137.422C130.902 137.422 131.802 136.438 131.802 135.286C131.802 134.926 131.718 134.578 131.55 134.278H132.858V133.39H130.614C130.29 133.234 129.894 133.138 129.45 133.138C128.01 133.138 127.098 134.122 127.098 135.286C127.098 135.958 127.41 136.57 127.938 136.966C127.47 137.266 127.218 137.662 127.218 138.142C127.218 138.466 127.362 138.79 127.638 139.006C127.038 139.426 126.738 139.918 126.738 140.53ZM129.462 136.618C128.562 136.618 128.07 136.03 128.07 135.286C128.07 134.542 128.562 133.942 129.462 133.942C130.338 133.942 130.842 134.542 130.842 135.286C130.842 136.018 130.338 136.618 129.462 136.618ZM127.734 140.41C127.734 139.93 127.986 139.57 128.406 139.258H130.362C131.442 139.258 131.766 139.714 131.766 140.29C131.766 141.082 130.962 141.586 129.69 141.586C128.49 141.586 127.734 141.142 127.734 140.41ZM135.453 139.606C136.233 139.606 137.025 139.258 137.481 138.67V139.438H138.501V135.382C138.501 134.05 137.589 133.15 136.053 133.15C134.997 133.15 134.145 133.594 133.617 134.314L134.385 134.902C134.757 134.386 135.321 134.062 136.017 134.062C136.881 134.062 137.481 134.542 137.481 135.382V135.802L135.441 136.138C134.157 136.354 133.461 137.002 133.461 137.914C133.461 138.946 134.265 139.606 135.453 139.606ZM134.493 137.878C134.493 137.362 134.865 136.99 135.693 136.846L137.481 136.546V137.734C137.085 138.382 136.425 138.766 135.621 138.766C134.913 138.766 134.493 138.394 134.493 137.878ZM140.547 139.438H141.567V135.25C141.951 134.614 142.503 134.11 143.379 134.11C144.315 134.11 144.927 134.734 144.927 135.814V139.438H145.947V135.778C145.947 134.062 144.939 133.15 143.583 133.15C142.683 133.15 142.059 133.534 141.567 134.074V133.39H140.547V139.438ZM148.516 131.818C148.912 131.818 149.224 131.494 149.224 131.098C149.224 130.714 148.912 130.39 148.516 130.39C148.12 130.39 147.796 130.714 147.796 131.098C147.796 131.494 148.12 131.818 148.516 131.818ZM148 139.438H149.02V133.39H148V139.438ZM150.481 138.61C151.033 139.294 151.789 139.678 152.749 139.678C153.877 139.678 154.777 138.97 154.789 137.842C154.789 135.778 151.753 136.21 151.753 134.854C151.753 134.386 152.101 134.002 152.749 134.002C153.277 134.002 153.733 134.29 154.057 134.746L154.765 134.146C154.345 133.558 153.601 133.15 152.737 133.15C151.573 133.15 150.769 133.93 150.769 134.878C150.769 137.014 153.793 136.534 153.793 137.89C153.793 138.418 153.409 138.826 152.737 138.826C152.125 138.826 151.621 138.526 151.201 137.998L150.481 138.61ZM158.07 139.606C158.85 139.606 159.642 139.258 160.098 138.67V139.438H161.118V135.382C161.118 134.05 160.206 133.15 158.67 133.15C157.614 133.15 156.762 133.594 156.234 134.314L157.002 134.902C157.374 134.386 157.938 134.062 158.634 134.062C159.498 134.062 160.098 134.542 160.098 135.382V135.802L158.058 136.138C156.774 136.354 156.078 137.002 156.078 137.914C156.078 138.946 156.882 139.606 158.07 139.606ZM157.11 137.878C157.11 137.362 157.482 136.99 158.31 136.846L160.098 136.546V137.734C159.702 138.382 159.042 138.766 158.238 138.766C157.53 138.766 157.11 138.394 157.11 137.878ZM163.512 137.41C163.512 138.886 164.268 139.558 165.612 139.558C166.044 139.558 166.368 139.51 166.656 139.39V138.478C166.428 138.574 166.152 138.622 165.756 138.622C165.024 138.622 164.544 138.358 164.544 137.41V134.314H166.644V133.39H164.544V131.878H163.512V133.39H162.372V134.314H163.512V137.41ZM168.719 131.818C169.115 131.818 169.427 131.494 169.427 131.098C169.427 130.714 169.115 130.39 168.719 130.39C168.323 130.39 167.999 130.714 167.999 131.098C167.999 131.494 168.323 131.818 168.719 131.818ZM168.203 139.438H169.223V133.39H168.203V139.438ZM174.139 133.15C172.183 133.15 170.863 134.65 170.863 136.414C170.863 138.178 172.183 139.678 174.139 139.678C176.083 139.678 177.415 138.178 177.415 136.414C177.415 134.65 176.083 133.15 174.139 133.15ZM174.151 138.718C172.855 138.718 171.931 137.674 171.931 136.414C171.931 135.154 172.855 134.11 174.151 134.11C175.411 134.11 176.335 135.154 176.335 136.414C176.335 137.662 175.411 138.718 174.151 138.718ZM179.055 139.438H180.075V135.25C180.459 134.614 181.011 134.11 181.887 134.11C182.823 134.11 183.435 134.734 183.435 135.814V139.438H184.455V135.778C184.455 134.062 183.447 133.15 182.091 133.15C181.191 133.15 180.567 133.534 180.075 134.074V133.39H179.055V139.438ZM195.118 138.442L194.362 137.854C193.966 138.394 193.306 138.754 192.526 138.754C191.23 138.754 190.306 137.878 190.27 136.426H194.914C194.95 136.258 194.986 136.03 194.986 135.79C194.986 134.302 193.918 133.15 192.274 133.15C190.402 133.15 189.226 134.578 189.226 136.414C189.226 138.178 190.486 139.678 192.526 139.678C193.654 139.678 194.554 139.198 195.118 138.442ZM192.25 134.014C193.318 134.014 193.93 134.758 193.966 135.646H190.342C190.558 134.602 191.254 134.014 192.25 134.014ZM196.02 138.61C196.572 139.294 197.328 139.678 198.288 139.678C199.416 139.678 200.316 138.97 200.328 137.842C200.328 135.778 197.292 136.21 197.292 134.854C197.292 134.386 197.64 134.002 198.288 134.002C198.816 134.002 199.272 134.29 199.596 134.746L200.304 134.146C199.884 133.558 199.14 133.15 198.276 133.15C197.112 133.15 196.308 133.93 196.308 134.878C196.308 137.014 199.332 136.534 199.332 137.89C199.332 138.418 198.948 138.826 198.276 138.826C197.664 138.826 197.16 138.526 196.74 137.998L196.02 138.61ZM202.383 137.41C202.383 138.886 203.139 139.558 204.483 139.558C204.915 139.558 205.239 139.51 205.527 139.39V138.478C205.299 138.574 205.023 138.622 204.627 138.622C203.895 138.622 203.415 138.358 203.415 137.41V134.314H205.515V133.39H203.415V131.878H202.383V133.39H201.243V134.314H202.383V137.41ZM205.847 135.874V136.858H209.087V135.874H205.847ZM216.013 138.442L215.257 137.854C214.861 138.394 214.201 138.754 213.421 138.754C212.125 138.754 211.201 137.878 211.165 136.426H215.809C215.845 136.258 215.881 136.03 215.881 135.79C215.881 134.302 214.813 133.15 213.169 133.15C211.297 133.15 210.121 134.578 210.121 136.414C210.121 138.178 211.381 139.678 213.421 139.678C214.549 139.678 215.449 139.198 216.013 138.442ZM213.145 134.014C214.213 134.014 214.825 134.758 214.861 135.646H211.237C211.453 134.602 212.149 134.014 213.145 134.014ZM217.609 139.438H218.629V130.438H217.609V139.438ZM220.785 139.438H221.805V130.438H220.785V139.438ZM229.337 138.442L228.581 137.854C228.185 138.394 227.525 138.754 226.745 138.754C225.449 138.754 224.525 137.878 224.489 136.426H229.133C229.169 136.258 229.205 136.03 229.205 135.79C229.205 134.302 228.137 133.15 226.493 133.15C224.621 133.15 223.445 134.578 223.445 136.414C223.445 138.178 224.705 139.678 226.745 139.678C227.873 139.678 228.773 139.198 229.337 138.442ZM226.469 134.014C227.537 134.014 228.149 134.758 228.185 135.646H224.561C224.777 134.602 225.473 134.014 226.469 134.014ZM239.544 138.442L238.788 137.854C238.392 138.394 237.732 138.754 236.952 138.754C235.656 138.754 234.732 137.878 234.696 136.426H239.34C239.376 136.258 239.412 136.03 239.412 135.79C239.412 134.302 238.344 133.15 236.7 133.15C234.828 133.15 233.652 134.578 233.652 136.414C233.652 138.178 234.912 139.678 236.952 139.678C238.08 139.678 238.98 139.198 239.544 138.442ZM236.676 134.014C237.744 134.014 238.356 134.758 238.392 135.646H234.768C234.984 134.602 235.68 134.014 236.676 134.014ZM241.141 139.438H242.161V135.25C242.545 134.614 243.097 134.11 243.973 134.11C244.909 134.11 245.521 134.734 245.521 135.814V139.438H246.541V135.778C246.541 134.062 245.533 133.15 244.177 133.15C243.277 133.15 242.653 133.534 242.161 134.074V133.39H241.141V139.438ZM248.594 139.438H249.614V135.286C249.986 134.674 250.502 134.266 251.294 134.266C251.534 134.266 251.714 134.29 251.894 134.338V133.342C251.75 133.294 251.57 133.27 251.378 133.27C250.61 133.27 250.058 133.618 249.614 134.146V133.39H248.594V139.438ZM258.376 138.442L257.62 137.854C257.224 138.394 256.564 138.754 255.784 138.754C254.488 138.754 253.564 137.878 253.528 136.426H258.172C258.208 136.258 258.244 136.03 258.244 135.79C258.244 134.302 257.176 133.15 255.532 133.15C253.66 133.15 252.484 134.578 252.484 136.414C252.484 138.178 253.744 139.678 255.784 139.678C256.912 139.678 257.812 139.198 258.376 138.442ZM255.508 134.014C256.576 134.014 257.188 134.758 257.224 135.646H253.6C253.816 134.602 254.512 134.014 255.508 134.014ZM259.253 140.53C259.253 141.742 260.429 142.438 262.217 142.438C264.029 142.438 265.301 141.49 265.301 140.218C265.301 139.138 264.557 138.358 262.961 138.358H261.233C260.861 138.358 260.729 138.178 260.729 137.926C260.729 137.698 260.873 137.482 261.125 137.302C261.377 137.374 261.665 137.422 261.965 137.422C263.417 137.422 264.317 136.438 264.317 135.286C264.317 134.926 264.233 134.578 264.065 134.278H265.373V133.39H263.129C262.805 133.234 262.409 133.138 261.965 133.138C260.525 133.138 259.613 134.122 259.613 135.286C259.613 135.958 259.925 136.57 260.453 136.966C259.985 137.266 259.733 137.662 259.733 138.142C259.733 138.466 259.877 138.79 260.153 139.006C259.553 139.426 259.253 139.918 259.253 140.53ZM261.977 136.618C261.077 136.618 260.585 136.03 260.585 135.286C260.585 134.542 261.077 133.942 261.977 133.942C262.853 133.942 263.357 134.542 263.357 135.286C263.357 136.018 262.853 136.618 261.977 136.618ZM260.249 140.41C260.249 139.93 260.501 139.57 260.921 139.258H262.877C263.957 139.258 264.281 139.714 264.281 140.29C264.281 141.082 263.477 141.586 262.205 141.586C261.005 141.586 260.249 141.142 260.249 140.41ZM267.063 131.818C267.459 131.818 267.771 131.494 267.771 131.098C267.771 130.714 267.459 130.39 267.063 130.39C266.667 130.39 266.343 130.714 266.343 131.098C266.343 131.494 266.667 131.818 267.063 131.818ZM266.547 139.438H267.567V133.39H266.547V139.438ZM269.028 138.61C269.58 139.294 270.336 139.678 271.296 139.678C272.424 139.678 273.324 138.97 273.336 137.842C273.336 135.778 270.3 136.21 270.3 134.854C270.3 134.386 270.648 134.002 271.296 134.002C271.824 134.002 272.28 134.29 272.604 134.746L273.312 134.146C272.892 133.558 272.148 133.15 271.284 133.15C270.12 133.15 269.316 133.93 269.316 134.878C269.316 137.014 272.34 136.534 272.34 137.89C272.34 138.418 271.956 138.826 271.284 138.826C270.672 138.826 270.168 138.526 269.748 137.998L269.028 138.61ZM275.391 137.41C275.391 138.886 276.147 139.558 277.491 139.558C277.923 139.558 278.247 139.51 278.535 139.39V138.478C278.307 138.574 278.031 138.622 277.635 138.622C276.903 138.622 276.423 138.358 276.423 137.41V134.314H278.523V133.39H276.423V131.878H275.391V133.39H274.251V134.314H275.391V137.41ZM280.082 139.438H281.102V135.286C281.474 134.674 281.99 134.266 282.782 134.266C283.022 134.266 283.202 134.29 283.382 134.338V133.342C283.238 133.294 283.058 133.27 282.866 133.27C282.098 133.27 281.546 133.618 281.102 134.146V133.39H280.082V139.438ZM287.56 132.43L288.964 130.438H287.812L286.564 132.43H287.56ZM289.864 138.442L289.108 137.854C288.712 138.394 288.052 138.754 287.272 138.754C285.976 138.754 285.052 137.878 285.016 136.426H289.66C289.696 136.258 289.732 136.03 289.732 135.79C289.732 134.302 288.664 133.15 287.02 133.15C285.148 133.15 283.972 134.578 283.972 136.414C283.972 138.178 285.232 139.678 287.272 139.678C288.4 139.678 289.3 139.198 289.864 138.442ZM286.996 134.014C288.064 134.014 288.676 134.758 288.712 135.646H285.088C285.304 134.602 286 134.014 286.996 134.014ZM296.813 138.442L296.057 137.854C295.661 138.394 295.001 138.754 294.221 138.754C292.925 138.754 292.001 137.878 291.965 136.426H296.609C296.645 136.258 296.681 136.03 296.681 135.79C296.681 134.302 295.613 133.15 293.969 133.15C292.097 133.15 290.921 134.578 290.921 136.414C290.921 138.178 292.181 139.678 294.221 139.678C295.349 139.678 296.249 139.198 296.813 138.442ZM293.945 134.014C295.013 134.014 295.625 134.758 295.661 135.646H292.037C292.253 134.602 292.949 134.014 293.945 134.014ZM302.712 136.99H303.504L303.564 135.91C305.172 135.634 306.312 134.722 306.312 133.246C306.312 131.83 305.16 130.798 303.72 130.798C302.484 130.798 301.668 131.35 301.044 132.238L301.932 132.79C302.436 132.094 302.94 131.746 303.684 131.746C304.56 131.746 305.208 132.394 305.208 133.258C305.208 134.398 304.284 134.974 302.592 135.166L302.712 136.99ZM303.12 139.57C303.54 139.57 303.888 139.222 303.888 138.802C303.888 138.394 303.54 138.046 303.12 138.046C302.7 138.046 302.352 138.394 302.352 138.802C302.352 139.222 302.7 139.57 303.12 139.57Z" fill="black"/>
<rect x="93" y="104.438" width="229" height="46" stroke="#3A3A3A" stroke-width="2" stroke-dasharray="4 4"/>
<path fill-rule="evenodd" clip-rule="evenodd" d="M118 351.438C117.449 351.438 117 350.989 117 350.438C117 349.887 117.449 349.438 118 349.438C118.551 349.438 119 349.887 119 350.438C119 350.989 118.551 351.438 118 351.438Z" fill="#CACAFB"/>
<path fill-rule="evenodd" clip-rule="evenodd" d="M91 414.438C90.4486 414.438 90 413.989 90 413.438C90 412.887 90.4486 412.438 91 412.438C91.5514 412.438 92 412.887 92 413.438C92 413.989 91.5514 414.438 91 414.438Z" fill="#CACAFB"/>
<path fill-rule="evenodd" clip-rule="evenodd" d="M65 348.438C64.4486 348.438 64 347.989 64 347.438C64 346.887 64.4486 346.438 65 346.438C65.5514 346.438 66 346.887 66 347.438C66 347.989 65.5514 348.438 65 348.438Z" fill="#CACAFB"/>
<path fill-rule="evenodd" clip-rule="evenodd" d="M87.339 385.017L80.9569 377.473L80.8344 377.341C80.0717 376.604 78.9148 376.591 78.1534 377.302C77.3498 378.052 77.278 379.334 77.9905 380.176L86.1866 389.863C86.2388 389.925 86.296 389.982 86.3575 390.035C86.9874 390.573 87.9342 390.498 88.4723 389.868L106.003 369.345L106.114 369.203C106.712 368.342 106.599 367.173 105.854 366.47C105.039 365.703 103.778 365.774 103.049 366.627L87.339 385.017Z" fill="#E1000F"/>
<path d="M61.4405 383.474C58.6593 367.701 69.1912 352.66 84.9642 349.879C94.9852 348.112 105.029 351.706 111.674 359.164C112.041 359.577 112.005 360.209 111.592 360.576C111.18 360.943 110.548 360.907 110.18 360.495C103.992 353.549 94.6425 350.203 85.3115 351.848C70.6263 354.438 60.8208 368.441 63.4102 383.126C65.9995 397.812 80.0033 407.617 94.6885 405.028C109.374 402.438 119.179 388.435 116.59 373.749C116.494 373.206 116.857 372.687 117.401 372.591C117.945 372.495 118.463 372.858 118.559 373.402C121.341 389.175 110.809 404.216 95.0358 406.997C79.2628 409.779 64.2217 399.247 61.4405 383.474Z" fill="#000091"/>
<path d="M120.224 385.362C120.347 384.824 120.883 384.487 121.421 384.61C121.96 384.733 122.297 385.269 122.174 385.807C120.829 391.703 117.882 397.088 113.693 401.409C113.308 401.805 112.675 401.815 112.279 401.43C111.882 401.046 111.873 400.413 112.257 400.016C116.193 395.957 118.961 390.899 120.224 385.362Z" fill="#000091"/>
<path d="M122 380.438C121.448 380.438 121 380.886 121 381.438C121 381.99 121.448 382.438 122 382.438C122.552 382.438 123 381.99 123 381.438C123 380.886 122.552 380.438 122 380.438Z" fill="#000091"/>
<path d="M324 428.975L328.773 418.975H317.227L322 428.975H324ZM323 449.438V450.438H324V449.438H323ZM210.038 449.438H209.038V450.438H210.038V449.438ZM210.038 285.438H211.038V284.438H210.038V285.438ZM180 285.438L190 291.211V279.664L180 285.438ZM185.632 286.438H189.387V284.438H185.632V286.438ZM193.141 286.438H196.896V284.438H193.141V286.438ZM200.651 286.438H204.406V284.438H200.651V286.438ZM208.16 286.438H210.038V284.438H208.16V286.438ZM209.038 285.438V287.39H211.038V285.438H209.038ZM209.038 291.295V295.2H211.038V291.295H209.038ZM209.038 299.105V303.009H211.038V299.105H209.038ZM209.038 306.914V310.819H211.038V306.914H209.038ZM209.038 314.724V318.628H211.038V314.724H209.038ZM209.038 322.533V326.438H211.038V322.533H209.038ZM209.038 330.343V334.248H211.038V330.343H209.038ZM209.038 338.152V342.057H211.038V338.152H209.038ZM209.038 345.962V349.867H211.038V345.962H209.038ZM209.038 353.771V357.676H211.038V353.771H209.038ZM209.038 361.581V365.486H211.038V361.581H209.038ZM209.038 369.39V373.295H211.038V369.39H209.038ZM209.038 377.2V381.105H211.038V377.2H209.038ZM209.038 385.009V388.914H211.038V385.009H209.038ZM209.038 392.819V396.724H211.038V392.819H209.038ZM209.038 400.628V404.533H211.038V400.628H209.038ZM209.038 408.438V412.343H211.038V408.438H209.038ZM209.038 416.248V420.152H211.038V416.248H209.038ZM209.038 424.057V427.962H211.038V424.057H209.038ZM209.038 431.867V435.771H211.038V431.867H209.038ZM209.038 439.676V443.581H211.038V439.676H209.038ZM209.038 447.486V449.438H211.038V447.486H209.038ZM210.038 450.438H212.055V448.438H210.038V450.438ZM216.089 450.438H220.124V448.438H216.089V450.438ZM224.158 450.438H228.192V448.438H224.158V450.438ZM232.227 450.438H236.261V448.438H232.227V450.438ZM240.295 450.438H244.33V448.438H240.295V450.438ZM248.364 450.438H252.399V448.438H248.364V450.438ZM256.433 450.438H260.467V448.438H256.433V450.438ZM264.502 450.438H268.536V448.438H264.502V450.438ZM272.57 450.438H276.605V448.438H272.57V450.438ZM280.639 450.438H284.674V448.438H280.639V450.438ZM288.708 450.438H292.742V448.438H288.708V450.438ZM296.777 450.438H300.811V448.438H296.777V450.438ZM304.845 450.438H308.88V448.438H304.845V450.438ZM312.914 450.438H316.948V448.438H312.914V450.438ZM320.983 450.438H323V448.438H320.983V450.438ZM324 449.438V447.534H322V449.438H324ZM324 443.726V439.918H322V443.726H324ZM324 436.11V432.302H322V436.11H324ZM324 428.495V424.687H322V428.495H324Z" fill="#666666"/>
<path fill-rule="evenodd" clip-rule="evenodd" d="M342 345.438C341.449 345.438 341 344.989 341 344.438C341 343.887 341.449 343.438 342 343.438C342.551 343.438 343 343.887 343 344.438C343 344.989 342.551 345.438 342 345.438Z" fill="#CACAFB"/>
<path fill-rule="evenodd" clip-rule="evenodd" d="M306 417.438C305.449 417.438 305 416.989 305 416.438C305 415.887 305.449 415.438 306 415.438C306.551 415.438 307 415.887 307 416.438C307 416.989 306.551 417.438 306 417.438Z" fill="#CACAFB"/>
<path fill-rule="evenodd" clip-rule="evenodd" d="M296 353.438C295.449 353.438 295 352.989 295 352.438C295 351.887 295.449 351.438 296 351.438C296.551 351.438 297 351.887 297 352.438C297 352.989 296.551 353.438 296 353.438Z" fill="#CACAFB"/>
<path d="M325 353.438C325.552 353.438 326 353.886 326 354.438C326 354.99 325.552 355.438 325 355.438C318.373 355.438 313 360.811 313 367.438C313 374.065 318.373 379.438 325 379.438C331.627 379.438 337 374.065 337 367.438C337 365.415 336.5 363.466 335.557 361.728C335.294 361.242 335.474 360.635 335.96 360.372C336.445 360.109 337.052 360.289 337.315 360.774C338.415 362.804 339 365.08 339 367.438C339 375.17 332.732 381.438 325 381.438C317.268 381.438 311 375.17 311 367.438C311 359.706 317.268 353.438 325 353.438Z" fill="#E1000F"/>
<path fill-rule="evenodd" clip-rule="evenodd" d="M317.917 368.129L318.002 368.062L328.601 360.535C329.326 360.02 330.312 360.636 330.167 361.513L328.048 374.339C327.904 375.213 326.778 375.482 326.254 374.767L323.31 370.744L318.404 369.861C317.568 369.711 317.302 368.667 317.917 368.129ZM326.463 371.664L327.802 363.555L321.101 368.314L323.391 368.726L324.092 367.604C324.385 367.136 325.002 366.993 325.47 367.286C325.905 367.558 326.059 368.109 325.844 368.562L325.788 368.664L325.087 369.785L326.463 371.664Z" fill="#E1000F"/>
<path d="M351 406.438C351.552 406.438 352 406.886 352 407.438C352 407.951 351.614 408.373 351.117 408.431L351 408.438H343C342.448 408.438 342 407.99 342 407.438C342 406.925 342.386 406.502 342.883 406.445L343 406.438H351Z" fill="#000091"/>
<path d="M316.067 386.548C316.476 386.177 317.108 386.207 317.48 386.615C317.823 386.993 317.823 387.561 317.5 387.938L317.412 388.028L293.673 408.178C293.264 408.549 292.632 408.519 292.26 408.111C291.917 407.733 291.916 407.166 292.24 406.788L292.327 406.698L316.067 386.548Z" fill="#000091"/>
<path d="M355 366.438C355.513 366.438 355.936 366.824 355.993 367.321L356 367.438V403.438C356 403.99 355.552 404.438 355 404.438C354.487 404.438 354.064 404.052 354.007 403.555L354 403.438V368.438H343C342.487 368.438 342.064 368.052 342.007 367.555L342 367.438C342 366.925 342.386 366.502 342.883 366.445L343 366.438H355Z" fill="#000091"/>
<path d="M307 366.438C307.552 366.438 308 366.886 308 367.438C308 367.951 307.614 368.373 307.117 368.431L307 368.438H294V406.438H331C331.513 406.438 331.936 406.824 331.993 407.321L332 407.438C332 407.951 331.614 408.373 331.117 408.431L331 408.438H293C292.487 408.438 292.064 408.052 292.007 407.555L292 407.438V367.438C292 366.925 292.386 366.502 292.883 366.445L293 366.438H307Z" fill="#000091"/>
<path d="M354 407.438C354 406.886 354.448 406.438 355 406.438C355.552 406.438 356 406.886 356 407.438C356 407.99 355.552 408.438 355 408.438C354.448 408.438 354 407.99 354 407.438Z" fill="#000091"/>
<path d="M354.345 366.682C354.762 366.321 355.394 366.366 355.756 366.783C356.09 367.168 356.077 367.736 355.745 368.106L355.655 368.194L325.655 394.194C325.322 394.483 324.843 394.516 324.476 394.29L324.369 394.214L292.369 368.214C291.941 367.866 291.876 367.236 292.224 366.807C292.545 366.412 293.107 366.326 293.528 366.589L293.631 366.662L324.979 392.132L354.345 366.682Z" fill="#000091"/>
<path d="M333.664 386.691C333.252 386.324 332.62 386.361 332.253 386.774C331.914 387.155 331.92 387.723 332.247 388.096L332.336 388.185L350.336 404.185C350.748 404.552 351.381 404.515 351.747 404.102C352.086 403.721 352.08 403.153 351.753 402.78L351.664 402.691L333.664 386.691Z" fill="#000091"/>
<path d="M207 103.438L212.774 93.438L201.226 93.438L207 103.438ZM206 67.438L206 94.438L208 94.438L208 67.438L206 67.438Z" fill="#000091"/>
<path d="M207 151.438L207 174.938" stroke="#000091" stroke-width="2"/>
<path d="M89 346.438L94.7735 336.438L83.2265 336.438L89 346.438ZM88 322.438L88 337.438L90 337.438L90 322.438L88 322.438Z" fill="#000091"/>
<path d="M323 346.438L328.774 336.438L317.226 336.438L323 346.438ZM322 322.438L322 337.438L324 337.438L324 322.438L322 322.438Z" fill="#000091"/>
<path d="M23.971 273.51V263.238H21.699V273.622C21.699 274.774 21.171 275.206 20.163 275.206C19.939 275.206 19.747 275.19 19.587 275.158V277.158C19.811 277.222 20.115 277.222 20.483 277.222C22.819 277.222 23.971 275.99 23.971 273.51ZM34.1556 273.126L32.6996 271.974C32.2676 272.55 31.4996 272.934 30.6196 272.934C29.3556 272.934 28.4276 272.326 28.2356 270.822H33.8836C33.9476 270.55 34.0116 270.134 34.0116 269.686C34.0116 267.574 32.5396 266.054 30.2996 266.054C27.6596 266.054 26.1556 268.022 26.1556 270.406C26.1556 272.758 27.7716 274.758 30.6356 274.758C32.1556 274.758 33.4036 274.134 34.1556 273.126ZM30.2516 267.718C31.3876 267.718 31.9796 268.534 32.0116 269.35H28.2996C28.5236 268.294 29.2116 267.718 30.2516 267.718ZM40.3098 274.438H42.3418V269.174C42.6458 268.662 43.1258 267.974 44.0538 267.974C44.9658 267.974 45.4938 268.582 45.4938 269.558V274.438H47.5417V269.478C47.5417 269.35 47.5417 269.238 47.5258 269.126C47.8458 268.582 48.3258 267.974 49.2058 267.974C50.1178 267.974 50.6458 268.582 50.6458 269.558V274.438H52.6938V269.478C52.6938 267.206 51.3818 266.054 49.7178 266.054C48.3578 266.054 47.5898 266.662 47.0138 267.366C46.4858 266.502 45.5898 266.054 44.5658 266.054C43.5738 266.054 42.8858 266.454 42.3418 266.982V266.374H40.3098V274.438ZM62.4369 273.126L60.9809 271.974C60.5489 272.55 59.7809 272.934 58.9009 272.934C57.6369 272.934 56.7089 272.326 56.5169 270.822H62.1649C62.2289 270.55 62.2929 270.134 62.2929 269.686C62.2929 267.574 60.8209 266.054 58.5809 266.054C55.9409 266.054 54.4369 268.022 54.4369 270.406C54.4369 272.758 56.0529 274.758 58.9169 274.758C60.4369 274.758 61.6849 274.134 62.4369 273.126ZM58.5329 267.718C59.6689 267.718 60.2609 268.534 60.2929 269.35H56.5809C56.8049 268.294 57.4929 267.718 58.5329 267.718ZM72.463 272.838C71.103 272.838 70.127 271.83 70.127 270.406C70.127 268.998 71.103 267.974 72.431 267.974C73.263 267.974 73.903 268.342 74.287 268.902L75.871 267.686C75.119 266.694 73.935 266.054 72.463 266.054C69.679 266.054 68.015 268.054 68.015 270.406C68.015 272.758 69.679 274.758 72.463 274.758C73.935 274.758 75.119 274.118 75.871 273.126L74.287 271.91C73.903 272.47 73.263 272.838 72.463 272.838ZM80.9154 266.054C78.2914 266.054 76.4994 267.99 76.4994 270.406C76.4994 272.822 78.2914 274.758 80.9154 274.758C83.5394 274.758 85.3314 272.822 85.3314 270.406C85.3314 267.99 83.5394 266.054 80.9154 266.054ZM80.9474 272.838C79.6034 272.838 78.6114 271.814 78.6114 270.406C78.6114 268.998 79.6034 267.974 80.9474 267.974C82.2434 267.974 83.2194 268.998 83.2194 270.406C83.2194 271.798 82.2434 272.838 80.9474 272.838ZM87.1848 274.438H89.2168V269.174C89.5208 268.662 90.0648 267.974 91.0888 267.974C92.0808 267.974 92.6888 268.646 92.6888 269.718V274.438H94.7368V269.638C94.7368 267.254 93.3448 266.054 91.6008 266.054C90.5288 266.054 89.7768 266.47 89.2168 267.014V266.374H87.1848V274.438ZM97.0441 274.438H99.0761V269.174C99.3801 268.662 99.9241 267.974 100.948 267.974C101.94 267.974 102.548 268.646 102.548 269.718V274.438H104.596V269.638C104.596 267.254 103.204 266.054 101.46 266.054C100.388 266.054 99.6361 266.47 99.0761 267.014V266.374H97.0441V274.438ZM114.328 273.126L112.872 271.974C112.44 272.55 111.672 272.934 110.792 272.934C109.528 272.934 108.6 272.326 108.408 270.822H114.056C114.12 270.55 114.184 270.134 114.184 269.686C114.184 267.574 112.712 266.054 110.472 266.054C107.832 266.054 106.328 268.022 106.328 270.406C106.328 272.758 107.944 274.758 110.808 274.758C112.328 274.758 113.576 274.134 114.328 273.126ZM110.424 267.718C111.56 267.718 112.152 268.534 112.184 269.35H108.472C108.696 268.294 109.384 267.718 110.424 267.718ZM119.979 272.838C118.619 272.838 117.643 271.83 117.643 270.406C117.643 268.998 118.619 267.974 119.947 267.974C120.779 267.974 121.419 268.342 121.803 268.902L123.387 267.686C122.635 266.694 121.451 266.054 119.979 266.054C117.195 266.054 115.531 268.054 115.531 270.406C115.531 272.758 117.195 274.758 119.979 274.758C121.451 274.758 122.635 274.118 123.387 273.126L121.803 271.91C121.419 272.47 120.779 272.838 119.979 272.838ZM125.494 271.494C125.494 273.462 126.454 274.598 128.47 274.598C129.142 274.598 129.622 274.518 130.022 274.342V272.566C129.75 272.678 129.382 272.742 128.822 272.742C128.022 272.742 127.542 272.39 127.542 271.494V268.198H130.006V266.374H127.542V264.358H125.494V266.374H123.99V268.198H125.494V271.494ZM139.093 273.126L137.637 271.974C137.205 272.55 136.437 272.934 135.557 272.934C134.293 272.934 133.365 272.326 133.173 270.822H138.821C138.885 270.55 138.949 270.134 138.949 269.686C138.949 267.574 137.477 266.054 135.237 266.054C132.597 266.054 131.093 268.022 131.093 270.406C131.093 272.758 132.709 274.758 135.573 274.758C137.093 274.758 138.341 274.134 139.093 273.126ZM135.189 267.718C136.325 267.718 136.917 268.534 136.949 269.35H133.237C133.461 268.294 134.149 267.718 135.189 267.718ZM152.671 273.126L151.215 271.974C150.783 272.55 150.015 272.934 149.135 272.934C147.871 272.934 146.943 272.326 146.751 270.822H152.399C152.463 270.55 152.527 270.134 152.527 269.686C152.527 267.574 151.055 266.054 148.815 266.054C146.175 266.054 144.671 268.022 144.671 270.406C144.671 272.758 146.287 274.758 149.151 274.758C150.671 274.758 151.919 274.134 152.671 273.126ZM148.767 267.718C149.903 267.718 150.495 268.534 150.527 269.35H146.815C147.039 268.294 147.727 267.718 148.767 267.718ZM155.009 271.494C155.009 273.462 155.969 274.598 157.985 274.598C158.657 274.598 159.137 274.518 159.537 274.342V272.566C159.265 272.678 158.897 272.742 158.337 272.742C157.537 272.742 157.057 272.39 157.057 271.494V268.198H159.521V266.374H157.057V264.358H155.009V266.374H153.505V268.198H155.009V271.494ZM50.1521 292.678C51.0961 292.678 52.0561 292.278 52.5681 291.654V292.438H54.6001V287.222C54.6001 285.446 53.4001 284.054 51.0641 284.054C49.5921 284.054 48.4081 284.662 47.6881 285.654L49.1761 286.79C49.6081 286.198 50.2161 285.83 51.0001 285.83C51.9281 285.83 52.5681 286.374 52.5681 287.222V287.43L50.1041 287.846C48.3761 288.134 47.4321 289.046 47.4321 290.262C47.4321 291.75 48.5361 292.678 50.1521 292.678ZM49.4481 290.166C49.4481 289.67 49.8001 289.318 50.6481 289.174L52.5681 288.854V289.99C52.1681 290.63 51.4961 291.062 50.5681 291.062C49.8801 291.062 49.4481 290.71 49.4481 290.166ZM60.7989 290.838C59.4389 290.838 58.4629 289.83 58.4629 288.406C58.4629 286.998 59.4389 285.974 60.7669 285.974C61.5989 285.974 62.2389 286.342 62.6229 286.902L64.2069 285.686C63.4549 284.694 62.2709 284.054 60.7989 284.054C58.0149 284.054 56.3509 286.054 56.3509 288.406C56.3509 290.758 58.0149 292.758 60.7989 292.758C62.2709 292.758 63.4549 292.118 64.2069 291.126L62.6229 289.91C62.2389 290.47 61.5989 290.838 60.7989 290.838ZM69.2833 290.838C67.9233 290.838 66.9473 289.83 66.9473 288.406C66.9473 286.998 67.9233 285.974 69.2513 285.974C70.0833 285.974 70.7233 286.342 71.1073 286.902L72.6913 285.686C71.9393 284.694 70.7553 284.054 69.2833 284.054C66.4993 284.054 64.8353 286.054 64.8353 288.406C64.8353 290.758 66.4993 292.758 69.2833 292.758C70.7553 292.758 71.9393 292.118 72.6913 291.126L71.1073 289.91C70.7233 290.47 70.0833 290.838 69.2833 290.838ZM76.4717 283.094H78.4077L76.7597 280.438H74.5517L76.4717 283.094ZM81.3197 291.126L79.8637 289.974C79.4317 290.55 78.6637 290.934 77.7837 290.934C76.5197 290.934 75.5917 290.326 75.3997 288.822H81.0477C81.1117 288.55 81.1757 288.134 81.1757 287.686C81.1757 285.574 79.7037 284.054 77.4637 284.054C74.8237 284.054 73.3197 286.022 73.3197 288.406C73.3197 290.758 74.9357 292.758 77.7997 292.758C79.3197 292.758 80.5677 292.134 81.3197 291.126ZM77.4157 285.718C78.5517 285.718 79.1437 286.534 79.1757 287.35H75.4637C75.6877 286.294 76.3757 285.718 77.4157 285.718ZM82.5228 288.406C82.5228 290.758 84.0748 292.758 86.6188 292.758C87.7068 292.758 88.4908 292.422 89.1148 291.798V292.438H91.1628V280.438H89.1148V285.014C88.4908 284.39 87.7068 284.054 86.6188 284.054C84.0748 284.054 82.5228 286.054 82.5228 288.406ZM84.6508 288.406C84.6508 286.998 85.5308 285.974 86.9068 285.974C87.8188 285.974 88.5708 286.358 89.1148 287.094V289.718C88.5708 290.454 87.8188 290.838 86.9068 290.838C85.5308 290.838 84.6508 289.814 84.6508 288.406ZM101.023 291.126L99.5668 289.974C99.1348 290.55 98.3668 290.934 97.4868 290.934C96.2228 290.934 95.2948 290.326 95.1028 288.822H100.751C100.815 288.55 100.879 288.134 100.879 287.686C100.879 285.574 99.4068 284.054 97.1668 284.054C94.5268 284.054 93.0228 286.022 93.0228 288.406C93.0228 290.758 94.6388 292.758 97.5028 292.758C99.0228 292.758 100.271 292.134 101.023 291.126ZM97.1188 285.718C98.2548 285.718 98.8468 286.534 98.8788 287.35H95.1668C95.3908 286.294 96.0788 285.718 97.1188 285.718ZM109.449 292.678C110.393 292.678 111.353 292.278 111.865 291.654V292.438H113.897V287.222C113.897 285.446 112.697 284.054 110.361 284.054C108.889 284.054 107.705 284.662 106.985 285.654L108.473 286.79C108.905 286.198 109.513 285.83 110.297 285.83C111.225 285.83 111.865 286.374 111.865 287.222V287.43L109.401 287.846C107.673 288.134 106.729 289.046 106.729 290.262C106.729 291.75 107.833 292.678 109.449 292.678ZM108.745 290.166C108.745 289.67 109.097 289.318 109.945 289.174L111.865 288.854V289.99C111.465 290.63 110.793 291.062 109.865 291.062C109.177 291.062 108.745 290.71 108.745 290.166ZM121.536 288.95C121.536 290.118 120.928 290.838 119.824 290.838C118.704 290.838 118.096 290.118 118.096 288.95V284.374H116.048V288.854C116.048 291.27 117.44 292.758 119.808 292.758C122.176 292.758 123.584 291.27 123.584 288.854V284.374H121.536V288.95ZM127.055 292.438L128.863 289.734L130.687 292.438H133.007L130.159 288.294L132.863 284.374H130.527L128.863 286.854L127.199 284.374H124.879L127.567 288.294L124.719 292.438H127.055ZM53.5568 308.838C52.1968 308.838 51.2208 307.83 51.2208 306.406C51.2208 304.998 52.1968 303.974 53.5248 303.974C54.3568 303.974 54.9968 304.342 55.3808 304.902L56.9648 303.686C56.2128 302.694 55.0288 302.054 53.5568 302.054C50.7728 302.054 49.1088 304.054 49.1088 306.406C49.1088 308.758 50.7728 310.758 53.5568 310.758C55.0288 310.758 56.2128 310.118 56.9648 309.126L55.3808 307.91C54.9968 308.47 54.3568 308.838 53.5568 308.838ZM60.613 310.678C61.557 310.678 62.517 310.278 63.029 309.654V310.438H65.061V305.222C65.061 303.446 63.861 302.054 61.525 302.054C60.053 302.054 58.869 302.662 58.149 303.654L59.637 304.79C60.069 304.198 60.677 303.83 61.461 303.83C62.389 303.83 63.029 304.374 63.029 305.222V305.43L60.565 305.846C58.837 306.134 57.893 307.046 57.893 308.262C57.893 309.75 58.997 310.678 60.613 310.678ZM59.909 308.166C59.909 307.67 60.261 307.318 61.109 307.174L63.029 306.854V307.99C62.629 308.63 61.957 309.062 61.029 309.062C60.341 309.062 59.909 308.71 59.909 308.166ZM67.8999 307.494C67.8999 309.462 68.8599 310.598 70.8759 310.598C71.5479 310.598 72.0279 310.518 72.4279 310.342V308.566C72.1559 308.678 71.7879 308.742 71.2279 308.742C70.4279 308.742 69.9479 308.39 69.9479 307.494V304.198H72.4119V302.374H69.9479V300.358H67.8999V302.374H66.3959V304.198H67.8999V307.494ZM76.5036 310.678C77.4476 310.678 78.4076 310.278 78.9196 309.654V310.438H80.9516V305.222C80.9516 303.446 79.7516 302.054 77.4156 302.054C75.9436 302.054 74.7596 302.662 74.0396 303.654L75.5276 304.79C75.9596 304.198 76.5676 303.83 77.3516 303.83C78.2796 303.83 78.9196 304.374 78.9196 305.222V305.43L76.4556 305.846C74.7276 306.134 73.7836 307.046 73.7836 308.262C73.7836 309.75 74.8876 310.678 76.5036 310.678ZM75.7996 308.166C75.7996 307.67 76.1516 307.318 76.9996 307.174L78.9196 306.854V307.99C78.5196 308.63 77.8476 309.062 76.9196 309.062C76.2316 309.062 75.7996 308.71 75.7996 308.166ZM83.2785 310.438H85.3105V298.438H83.2785V310.438ZM91.5873 302.054C88.9633 302.054 87.1713 303.99 87.1713 306.406C87.1713 308.822 88.9633 310.758 91.5873 310.758C94.2113 310.758 96.0033 308.822 96.0033 306.406C96.0033 303.99 94.2113 302.054 91.5873 302.054ZM91.6193 308.838C90.2753 308.838 89.2833 307.814 89.2833 306.406C89.2833 304.998 90.2753 303.974 91.6193 303.974C92.9153 303.974 93.8913 304.998 93.8913 306.406C93.8913 307.798 92.9153 308.838 91.6193 308.838ZM96.9473 311.846C96.9473 313.542 98.4673 314.438 101.043 314.438C103.555 314.438 105.267 313.062 105.267 311.27C105.267 309.766 104.163 308.678 102.131 308.678H100.099C99.7313 308.678 99.5553 308.518 99.5553 308.198C99.5553 308.022 99.6513 307.846 99.8273 307.686C100.067 307.734 100.323 307.75 100.595 307.75C102.675 307.75 103.859 306.47 103.859 304.886C103.859 304.614 103.827 304.358 103.747 304.102H105.171V302.374H102.227C101.763 302.166 101.219 302.054 100.595 302.054C98.5793 302.054 97.3633 303.318 97.3633 304.886C97.3633 305.782 97.7473 306.582 98.4513 307.11C97.8433 307.558 97.5713 308.07 97.5713 308.71C97.5713 309.126 97.7473 309.558 98.0673 309.878C97.3473 310.406 96.9473 311.046 96.9473 311.846ZM100.627 306.214C99.7473 306.214 99.2193 305.686 99.2193 304.886C99.2193 304.102 99.7473 303.574 100.627 303.574C101.475 303.574 102.019 304.086 102.019 304.886C102.019 305.686 101.475 306.214 100.627 306.214ZM98.8673 311.558C98.8673 311.062 99.1073 310.71 99.4113 310.422H101.907C102.883 310.422 103.251 310.854 103.251 311.462C103.251 312.262 102.499 312.806 101.027 312.806C99.6033 312.806 98.8673 312.326 98.8673 311.558ZM111.981 306.95C111.981 308.118 111.373 308.838 110.269 308.838C109.149 308.838 108.541 308.118 108.541 306.95V302.374H106.493V306.854C106.493 309.27 107.885 310.758 110.253 310.758C112.621 310.758 114.029 309.27 114.029 306.854V302.374H111.981V306.95ZM123.703 309.126L122.247 307.974C121.815 308.55 121.047 308.934 120.167 308.934C118.903 308.934 117.975 308.326 117.783 306.822H123.431C123.495 306.55 123.559 306.134 123.559 305.686C123.559 303.574 122.087 302.054 119.847 302.054C117.207 302.054 115.703 304.022 115.703 306.406C115.703 308.758 117.319 310.758 120.183 310.758C121.703 310.758 122.951 310.134 123.703 309.126ZM119.799 303.718C120.935 303.718 121.527 304.534 121.559 305.35H117.847C118.071 304.294 118.759 303.718 119.799 303.718ZM124.731 309.27C125.499 310.182 126.523 310.758 127.963 310.758C129.483 310.758 130.843 309.83 130.875 308.134C130.875 305.35 127.019 305.83 127.019 304.454C127.019 304.038 127.323 303.686 127.963 303.686C128.587 303.686 129.115 304.102 129.531 304.614L130.875 303.43C130.299 302.646 129.179 302.054 127.947 302.054C126.267 302.054 125.067 303.126 125.067 304.55C125.067 307.382 128.923 306.854 128.923 308.262C128.923 308.742 128.587 309.126 127.931 309.126C127.163 309.126 126.571 308.678 126.075 308.054L124.731 309.27Z" fill="black"/>
<rect x="1" y="249.438" width="178" height="72" stroke="#000091" stroke-width="2"/>
<path d="M249.909 273.51V263.238H247.637V273.622C247.637 274.774 247.109 275.206 246.101 275.206C245.877 275.206 245.684 275.19 245.524 275.158V277.158C245.748 277.222 246.053 277.222 246.421 277.222C248.757 277.222 249.909 275.99 249.909 273.51ZM260.093 273.126L258.637 271.974C258.205 272.55 257.437 272.934 256.557 272.934C255.293 272.934 254.365 272.326 254.173 270.822H259.821C259.885 270.55 259.949 270.134 259.949 269.686C259.949 267.574 258.477 266.054 256.237 266.054C253.597 266.054 252.093 268.022 252.093 270.406C252.093 272.758 253.709 274.758 256.573 274.758C258.093 274.758 259.341 274.134 260.093 273.126ZM256.189 267.718C257.325 267.718 257.917 268.534 257.949 269.35H254.237C254.461 268.294 255.149 267.718 256.189 267.718ZM265.255 266.374V268.198H266.759V274.438H268.807V268.198H271.271V266.374H268.807V265.478C268.807 264.742 269.255 264.262 269.943 264.262C270.359 264.262 270.679 264.406 270.919 264.582L271.783 262.886C271.271 262.614 270.647 262.438 269.911 262.438C267.895 262.438 266.759 263.814 266.759 265.526V266.374H265.255ZM274.457 274.678C275.401 274.678 276.361 274.278 276.873 273.654V274.438H278.905V269.222C278.905 267.446 277.705 266.054 275.369 266.054C273.897 266.054 272.713 266.662 271.993 267.654L273.481 268.79C273.913 268.198 274.521 267.83 275.305 267.83C276.233 267.83 276.873 268.374 276.873 269.222V269.43L274.409 269.846C272.681 270.134 271.737 271.046 271.737 272.262C271.737 273.75 272.841 274.678 274.457 274.678ZM273.753 272.166C273.753 271.67 274.105 271.318 274.953 271.174L276.873 270.854V271.99C276.473 272.63 275.801 273.062 274.873 273.062C274.185 273.062 273.753 272.71 273.753 272.166ZM282.256 264.966C282.976 264.966 283.568 264.358 283.568 263.638C283.568 262.918 282.976 262.31 282.256 262.31C281.536 262.31 280.928 262.918 280.928 263.638C280.928 264.358 281.536 264.966 282.256 264.966ZM281.232 274.438H283.264V266.374H281.232V274.438ZM284.887 273.27C285.655 274.182 286.679 274.758 288.119 274.758C289.639 274.758 290.999 273.83 291.031 272.134C291.031 269.35 287.175 269.83 287.175 268.454C287.175 268.038 287.479 267.686 288.119 267.686C288.743 267.686 289.271 268.102 289.687 268.614L291.031 267.43C290.455 266.646 289.335 266.054 288.103 266.054C286.423 266.054 285.223 267.126 285.223 268.55C285.223 271.382 289.079 270.854 289.079 272.262C289.079 272.742 288.743 273.126 288.087 273.126C287.319 273.126 286.727 272.678 286.231 272.054L284.887 273.27ZM302.528 270.95C302.528 272.118 301.92 272.838 300.816 272.838C299.696 272.838 299.088 272.118 299.088 270.95V266.374H297.04V270.854C297.04 273.27 298.432 274.758 300.8 274.758C303.168 274.758 304.576 273.27 304.576 270.854V266.374H302.528V270.95ZM306.825 274.438H308.857V269.174C309.161 268.662 309.705 267.974 310.729 267.974C311.721 267.974 312.329 268.646 312.329 269.718V274.438H314.377V269.638C314.377 267.254 312.985 266.054 311.241 266.054C310.169 266.054 309.417 266.47 308.857 267.014V266.374H306.825V274.438ZM324.109 273.126L322.653 271.974C322.221 272.55 321.453 272.934 320.573 272.934C319.309 272.934 318.381 272.326 318.189 270.822H323.837C323.901 270.55 323.965 270.134 323.965 269.686C323.965 267.574 322.493 266.054 320.253 266.054C317.613 266.054 316.109 268.022 316.109 270.406C316.109 272.758 317.725 274.758 320.589 274.758C322.109 274.758 323.357 274.134 324.109 273.126ZM320.205 267.718C321.341 267.718 321.933 268.534 321.965 269.35H318.253C318.477 268.294 319.165 267.718 320.205 267.718ZM329.687 270.406C329.687 272.758 331.239 274.758 333.783 274.758C334.871 274.758 335.655 274.422 336.279 273.798V274.438H338.327V262.438H336.279V267.014C335.655 266.39 334.871 266.054 333.783 266.054C331.239 266.054 329.687 268.054 329.687 270.406ZM331.815 270.406C331.815 268.998 332.695 267.974 334.071 267.974C334.983 267.974 335.735 268.358 336.279 269.094V271.718C335.735 272.454 334.983 272.838 334.071 272.838C332.695 272.838 331.815 271.814 331.815 270.406ZM348.187 273.126L346.731 271.974C346.299 272.55 345.531 272.934 344.651 272.934C343.387 272.934 342.459 272.326 342.267 270.822H347.915C347.979 270.55 348.043 270.134 348.043 269.686C348.043 267.574 346.571 266.054 344.331 266.054C341.691 266.054 340.187 268.022 340.187 270.406C340.187 272.758 341.803 274.758 344.667 274.758C346.187 274.758 347.435 274.134 348.187 273.126ZM344.283 267.718C345.419 267.718 346.011 268.534 346.043 269.35H342.331C342.555 268.294 343.243 267.718 344.283 267.718ZM350.029 274.438H352.061V269.174C352.365 268.662 352.845 267.974 353.773 267.974C354.685 267.974 355.213 268.582 355.213 269.558V274.438H357.26V269.478C357.26 269.35 357.26 269.238 357.245 269.126C357.565 268.582 358.045 267.974 358.925 267.974C359.837 267.974 360.365 268.582 360.365 269.558V274.438H362.413V269.478C362.413 267.206 361.101 266.054 359.437 266.054C358.077 266.054 357.309 266.662 356.733 267.366C356.205 266.502 355.309 266.054 354.285 266.054C353.293 266.054 352.605 266.454 352.061 266.982V266.374H350.029V274.438ZM367.004 274.678C367.948 274.678 368.908 274.278 369.42 273.654V274.438H371.452V269.222C371.452 267.446 370.252 266.054 367.916 266.054C366.444 266.054 365.26 266.662 364.54 267.654L366.028 268.79C366.46 268.198 367.068 267.83 367.852 267.83C368.78 267.83 369.42 268.374 369.42 269.222V269.43L366.956 269.846C365.228 270.134 364.284 271.046 364.284 272.262C364.284 273.75 365.388 274.678 367.004 274.678ZM366.3 272.166C366.3 271.67 366.652 271.318 367.5 271.174L369.42 270.854V271.99C369.02 272.63 368.348 273.062 367.42 273.062C366.732 273.062 366.3 272.71 366.3 272.166ZM373.779 274.438H375.811V269.174C376.115 268.662 376.659 267.974 377.683 267.974C378.675 267.974 379.283 268.646 379.283 269.718V274.438H381.331V269.638C381.331 267.254 379.939 266.054 378.195 266.054C377.123 266.054 376.371 266.47 375.811 267.014V266.374H373.779V274.438ZM383.062 270.406C383.062 272.758 384.614 274.758 387.158 274.758C388.246 274.758 389.03 274.422 389.654 273.798V274.438H391.702V262.438H389.654V267.014C389.03 266.39 388.246 266.054 387.158 266.054C384.614 266.054 383.062 268.054 383.062 270.406ZM385.19 270.406C385.19 268.998 386.07 267.974 387.446 267.974C388.358 267.974 389.11 268.358 389.654 269.094V271.718C389.11 272.454 388.358 272.838 387.446 272.838C386.07 272.838 385.19 271.814 385.19 270.406ZM401.562 273.126L400.106 271.974C399.674 272.55 398.906 272.934 398.026 272.934C396.762 272.934 395.834 272.326 395.642 270.822H401.29C401.354 270.55 401.418 270.134 401.418 269.686C401.418 267.574 399.946 266.054 397.706 266.054C395.066 266.054 393.562 268.022 393.562 270.406C393.562 272.758 395.178 274.758 398.042 274.758C399.562 274.758 400.81 274.134 401.562 273.126ZM397.658 267.718C398.794 267.718 399.386 268.534 399.418 269.35H395.706C395.93 268.294 396.618 267.718 397.658 267.718ZM246.476 288.406C246.476 290.758 248.028 292.758 250.572 292.758C251.66 292.758 252.444 292.422 253.068 291.798V292.438H255.116V280.438H253.068V285.014C252.444 284.39 251.66 284.054 250.572 284.054C248.028 284.054 246.476 286.054 246.476 288.406ZM248.604 288.406C248.604 286.998 249.484 285.974 250.86 285.974C251.772 285.974 252.524 286.358 253.068 287.094V289.718C252.524 290.454 251.772 290.838 250.86 290.838C249.484 290.838 248.604 289.814 248.604 288.406ZM258.637 285.846L260.493 281.238H258.189L256.749 285.846H258.637ZM268.617 291.126L267.161 289.974C266.729 290.55 265.961 290.934 265.081 290.934C263.817 290.934 262.889 290.326 262.697 288.822H268.345C268.409 288.55 268.473 288.134 268.473 287.686C268.473 285.574 267.001 284.054 264.761 284.054C262.121 284.054 260.617 286.022 260.617 288.406C260.617 290.758 262.233 292.758 265.097 292.758C266.617 292.758 267.865 292.134 268.617 291.126ZM264.713 285.718C265.849 285.718 266.441 286.534 266.473 287.35H262.761C262.985 286.294 263.673 285.718 264.713 285.718ZM270.458 292.438H272.49V287.174C272.794 286.662 273.338 285.974 274.362 285.974C275.354 285.974 275.962 286.646 275.962 287.718V292.438H278.01V287.638C278.01 285.254 276.618 284.054 274.874 284.054C273.802 284.054 273.05 284.47 272.49 285.014V284.374H270.458V292.438ZM280.318 292.438H282.35V287.27C282.654 286.758 283.294 286.214 284.286 286.214C284.654 286.214 284.926 286.262 285.182 286.326V284.326C284.99 284.262 284.75 284.214 284.478 284.214C283.566 284.214 282.878 284.63 282.35 285.174V284.374H280.318V292.438ZM293.898 291.126L292.442 289.974C292.01 290.55 291.242 290.934 290.362 290.934C289.098 290.934 288.17 290.326 287.978 288.822H293.626C293.69 288.55 293.754 288.134 293.754 287.686C293.754 285.574 292.282 284.054 290.042 284.054C287.402 284.054 285.898 286.022 285.898 288.406C285.898 290.758 287.514 292.758 290.378 292.758C291.898 292.758 293.146 292.134 293.898 291.126ZM289.994 285.718C291.13 285.718 291.722 286.534 291.754 287.35H288.042C288.266 286.294 288.954 285.718 289.994 285.718ZM294.877 293.846C294.877 295.542 296.397 296.438 298.973 296.438C301.485 296.438 303.197 295.062 303.197 293.27C303.197 291.766 302.093 290.678 300.061 290.678H298.029C297.661 290.678 297.485 290.518 297.485 290.198C297.485 290.022 297.581 289.846 297.757 289.686C297.997 289.734 298.253 289.75 298.525 289.75C300.605 289.75 301.789 288.47 301.789 286.886C301.789 286.614 301.757 286.358 301.677 286.102H303.101V284.374H300.157C299.693 284.166 299.149 284.054 298.525 284.054C296.509 284.054 295.293 285.318 295.293 286.886C295.293 287.782 295.677 288.582 296.381 289.11C295.773 289.558 295.501 290.07 295.501 290.71C295.501 291.126 295.677 291.558 295.997 291.878C295.277 292.406 294.877 293.046 294.877 293.846ZM298.557 288.214C297.677 288.214 297.149 287.686 297.149 286.886C297.149 286.102 297.677 285.574 298.557 285.574C299.405 285.574 299.949 286.086 299.949 286.886C299.949 287.686 299.405 288.214 298.557 288.214ZM296.797 293.558C296.797 293.062 297.037 292.71 297.341 292.422H299.837C300.813 292.422 301.181 292.854 301.181 293.462C301.181 294.262 300.429 294.806 298.957 294.806C297.533 294.806 296.797 294.326 296.797 293.558ZM305.592 282.966C306.312 282.966 306.904 282.358 306.904 281.638C306.904 280.918 306.312 280.31 305.592 280.31C304.872 280.31 304.264 280.918 304.264 281.638C304.264 282.358 304.872 282.966 305.592 282.966ZM304.568 292.438H306.6V284.374H304.568V292.438ZM308.223 291.27C308.991 292.182 310.015 292.758 311.455 292.758C312.975 292.758 314.335 291.83 314.367 290.134C314.367 287.35 310.511 287.83 310.511 286.454C310.511 286.038 310.815 285.686 311.455 285.686C312.079 285.686 312.607 286.102 313.023 286.614L314.367 285.43C313.791 284.646 312.671 284.054 311.439 284.054C309.759 284.054 308.559 285.126 308.559 286.55C308.559 289.382 312.415 288.854 312.415 290.262C312.415 290.742 312.079 291.126 311.423 291.126C310.655 291.126 310.063 290.678 309.567 290.054L308.223 291.27ZM316.876 289.494C316.876 291.462 317.836 292.598 319.852 292.598C320.524 292.598 321.004 292.518 321.404 292.342V290.566C321.132 290.678 320.764 290.742 320.204 290.742C319.404 290.742 318.924 290.39 318.924 289.494V286.198H321.388V284.374H318.924V282.358H316.876V284.374H315.372V286.198H316.876V289.494ZM323.208 292.438H325.24V287.27C325.544 286.758 326.184 286.214 327.176 286.214C327.544 286.214 327.816 286.262 328.072 286.326V284.326C327.88 284.262 327.64 284.214 327.368 284.214C326.456 284.214 325.768 284.63 325.24 285.174V284.374H323.208V292.438ZM336.788 291.126L335.332 289.974C334.9 290.55 334.132 290.934 333.252 290.934C331.988 290.934 331.06 290.326 330.868 288.822H336.516C336.58 288.55 336.644 288.134 336.644 287.686C336.644 285.574 335.172 284.054 332.932 284.054C330.292 284.054 328.788 286.022 328.788 288.406C328.788 290.758 330.404 292.758 333.268 292.758C334.788 292.758 336.036 292.134 336.788 291.126ZM332.884 285.718C334.02 285.718 334.612 286.534 334.644 287.35H330.932C331.156 286.294 331.844 285.718 332.884 285.718ZM338.63 292.438H340.662V287.174C340.966 286.662 341.446 285.974 342.374 285.974C343.286 285.974 343.814 286.582 343.814 287.558V292.438H345.862V287.478C345.862 287.35 345.862 287.238 345.846 287.126C346.166 286.582 346.646 285.974 347.526 285.974C348.438 285.974 348.966 286.582 348.966 287.558V292.438H351.014V287.478C351.014 285.206 349.702 284.054 348.038 284.054C346.678 284.054 345.91 284.662 345.334 285.366C344.806 284.502 343.91 284.054 342.886 284.054C341.894 284.054 341.206 284.454 340.662 284.982V284.374H338.63V292.438ZM360.757 291.126L359.301 289.974C358.869 290.55 358.101 290.934 357.221 290.934C355.957 290.934 355.029 290.326 354.837 288.822H360.485C360.549 288.55 360.613 288.134 360.613 287.686C360.613 285.574 359.141 284.054 356.901 284.054C354.261 284.054 352.757 286.022 352.757 288.406C352.757 290.758 354.373 292.758 357.237 292.758C358.757 292.758 360.005 292.134 360.757 291.126ZM356.853 285.718C357.989 285.718 358.581 286.534 358.613 287.35H354.901C355.125 286.294 355.813 285.718 356.853 285.718ZM362.599 292.438H364.631V287.174C364.935 286.662 365.479 285.974 366.503 285.974C367.495 285.974 368.103 286.646 368.103 287.718V292.438H370.151V287.638C370.151 285.254 368.759 284.054 367.015 284.054C365.943 284.054 365.191 284.47 364.631 285.014V284.374H362.599V292.438ZM372.97 289.494C372.97 291.462 373.93 292.598 375.946 292.598C376.618 292.598 377.098 292.518 377.498 292.342V290.566C377.226 290.678 376.858 290.742 376.298 290.742C375.498 290.742 375.018 290.39 375.018 289.494V286.198H377.482V284.374H375.018V282.358H372.97V284.374H371.466V286.198H372.97V289.494ZM383.038 288.406C383.038 290.758 384.59 292.758 387.134 292.758C388.222 292.758 389.006 292.422 389.63 291.798V292.438H391.678V280.438H389.63V285.014C389.006 284.39 388.222 284.054 387.134 284.054C384.59 284.054 383.038 286.054 383.038 288.406ZM385.166 288.406C385.166 286.998 386.046 285.974 387.422 285.974C388.334 285.974 389.086 286.358 389.63 287.094V289.718C389.086 290.454 388.334 290.838 387.422 290.838C386.046 290.838 385.166 289.814 385.166 288.406ZM401.538 291.126L400.082 289.974C399.65 290.55 398.882 290.934 398.002 290.934C396.738 290.934 395.81 290.326 395.618 288.822H401.266C401.33 288.55 401.394 288.134 401.394 287.686C401.394 285.574 399.922 284.054 397.682 284.054C395.042 284.054 393.538 286.022 393.538 288.406C393.538 290.758 395.154 292.758 398.018 292.758C399.538 292.758 400.786 292.134 401.538 291.126ZM397.634 285.718C398.77 285.718 399.362 286.534 399.394 287.35H395.682C395.906 286.294 396.594 285.718 397.634 285.718ZM257.763 310.438H259.795V305.174C260.099 304.662 260.579 303.974 261.507 303.974C262.419 303.974 262.947 304.582 262.947 305.558V310.438H264.995V305.478C264.995 305.35 264.995 305.238 264.979 305.126C265.299 304.582 265.779 303.974 266.659 303.974C267.571 303.974 268.099 304.582 268.099 305.558V310.438H270.147V305.478C270.147 303.206 268.835 302.054 267.171 302.054C265.811 302.054 265.043 302.662 264.467 303.366C263.939 302.502 263.043 302.054 262.019 302.054C261.027 302.054 260.339 302.454 259.795 302.982V302.374H257.763V310.438ZM276.306 302.054C273.682 302.054 271.89 303.99 271.89 306.406C271.89 308.822 273.682 310.758 276.306 310.758C278.93 310.758 280.722 308.822 280.722 306.406C280.722 303.99 278.93 302.054 276.306 302.054ZM276.338 308.838C274.994 308.838 274.002 307.814 274.002 306.406C274.002 304.998 274.994 303.974 276.338 303.974C277.634 303.974 278.61 304.998 278.61 306.406C278.61 307.798 277.634 308.838 276.338 308.838ZM282.575 310.438H284.607V305.174C284.911 304.662 285.455 303.974 286.479 303.974C287.471 303.974 288.079 304.646 288.079 305.718V310.438H290.127V305.638C290.127 303.254 288.735 302.054 286.991 302.054C285.919 302.054 285.167 302.47 284.607 303.014V302.374H282.575V310.438ZM300.587 302.054C297.963 302.054 296.171 303.99 296.171 306.406C296.171 308.822 297.963 310.758 300.587 310.758C303.211 310.758 305.003 308.822 305.003 306.406C305.003 303.99 303.211 302.054 300.587 302.054ZM300.619 308.838C299.275 308.838 298.283 307.814 298.283 306.406C298.283 304.998 299.275 303.974 300.619 303.974C301.915 303.974 302.891 304.998 302.891 306.406C302.891 307.798 301.915 308.838 300.619 308.838ZM306.857 310.438H308.889V305.27C309.193 304.758 309.833 304.214 310.825 304.214C311.193 304.214 311.465 304.262 311.721 304.326V302.326C311.529 302.262 311.289 302.214 311.017 302.214C310.105 302.214 309.417 302.63 308.889 303.174V302.374H306.857V310.438ZM312.4 311.846C312.4 313.542 313.92 314.438 316.496 314.438C319.008 314.438 320.72 313.062 320.72 311.27C320.72 309.766 319.616 308.678 317.584 308.678H315.552C315.184 308.678 315.008 308.518 315.008 308.198C315.008 308.022 315.104 307.846 315.28 307.686C315.52 307.734 315.776 307.75 316.048 307.75C318.128 307.75 319.312 306.47 319.312 304.886C319.312 304.614 319.28 304.358 319.2 304.102H320.624V302.374H317.68C317.216 302.166 316.672 302.054 316.048 302.054C314.032 302.054 312.816 303.318 312.816 304.886C312.816 305.782 313.2 306.582 313.904 307.11C313.296 307.558 313.024 308.07 313.024 308.71C313.024 309.126 313.2 309.558 313.52 309.878C312.8 310.406 312.4 311.046 312.4 311.846ZM316.08 306.214C315.2 306.214 314.672 305.686 314.672 304.886C314.672 304.102 315.2 303.574 316.08 303.574C316.928 303.574 317.472 304.086 317.472 304.886C317.472 305.686 316.928 306.214 316.08 306.214ZM314.32 311.558C314.32 311.062 314.56 310.71 314.864 310.422H317.36C318.336 310.422 318.704 310.854 318.704 311.462C318.704 312.262 317.952 312.806 316.48 312.806C315.056 312.806 314.32 312.326 314.32 311.558ZM324.097 310.678C325.041 310.678 326.001 310.278 326.513 309.654V310.438H328.545V305.222C328.545 303.446 327.345 302.054 325.009 302.054C323.537 302.054 322.353 302.662 321.633 303.654L323.121 304.79C323.553 304.198 324.161 303.83 324.945 303.83C325.873 303.83 326.513 304.374 326.513 305.222V305.43L324.049 305.846C322.321 306.134 321.377 307.046 321.377 308.262C321.377 309.75 322.481 310.678 324.097 310.678ZM323.393 308.166C323.393 307.67 323.745 307.318 324.593 307.174L326.513 306.854V307.99C326.113 308.63 325.441 309.062 324.513 309.062C323.825 309.062 323.393 308.71 323.393 308.166ZM330.872 310.438H332.904V305.174C333.208 304.662 333.752 303.974 334.776 303.974C335.768 303.974 336.376 304.646 336.376 305.718V310.438H338.424V305.638C338.424 303.254 337.032 302.054 335.288 302.054C334.216 302.054 333.464 302.47 332.904 303.014V302.374H330.872V310.438ZM341.756 300.966C342.476 300.966 343.068 300.358 343.068 299.638C343.068 298.918 342.476 298.31 341.756 298.31C341.036 298.31 340.428 298.918 340.428 299.638C340.428 300.358 341.036 300.966 341.756 300.966ZM340.732 310.438H342.764V302.374H340.732V310.438ZM344.387 309.27C345.155 310.182 346.179 310.758 347.619 310.758C349.139 310.758 350.499 309.83 350.531 308.134C350.531 305.35 346.675 305.83 346.675 304.454C346.675 304.038 346.979 303.686 347.619 303.686C348.243 303.686 348.771 304.102 349.187 304.614L350.531 303.43C349.955 302.646 348.835 302.054 347.603 302.054C345.923 302.054 344.723 303.126 344.723 304.55C344.723 307.382 348.579 306.854 348.579 308.262C348.579 308.742 348.243 309.126 347.587 309.126C346.819 309.126 346.227 308.678 345.731 308.054L344.387 309.27ZM354.613 310.678C355.557 310.678 356.517 310.278 357.029 309.654V310.438H359.061V305.222C359.061 303.446 357.861 302.054 355.525 302.054C354.053 302.054 352.869 302.662 352.149 303.654L353.637 304.79C354.069 304.198 354.677 303.83 355.461 303.83C356.389 303.83 357.029 304.374 357.029 305.222V305.43L354.565 305.846C352.837 306.134 351.893 307.046 351.893 308.262C351.893 309.75 352.997 310.678 354.613 310.678ZM353.909 308.166C353.909 307.67 354.261 307.318 355.109 307.174L357.029 306.854V307.99C356.629 308.63 355.957 309.062 355.029 309.062C354.341 309.062 353.909 308.71 353.909 308.166ZM361.9 307.494C361.9 309.462 362.86 310.598 364.876 310.598C365.548 310.598 366.028 310.518 366.428 310.342V308.566C366.156 308.678 365.788 308.742 365.228 308.742C364.428 308.742 363.948 308.39 363.948 307.494V304.198H366.412V302.374H363.948V300.358H361.9V302.374H360.396V304.198H361.9V307.494ZM369.256 300.966C369.976 300.966 370.568 300.358 370.568 299.638C370.568 298.918 369.976 298.31 369.256 298.31C368.536 298.31 367.928 298.918 367.928 299.638C367.928 300.358 368.536 300.966 369.256 300.966ZM368.232 310.438H370.264V302.374H368.232V310.438ZM376.54 302.054C373.916 302.054 372.124 303.99 372.124 306.406C372.124 308.822 373.916 310.758 376.54 310.758C379.164 310.758 380.956 308.822 380.956 306.406C380.956 303.99 379.164 302.054 376.54 302.054ZM376.572 308.838C375.228 308.838 374.236 307.814 374.236 306.406C374.236 304.998 375.228 303.974 376.572 303.974C377.868 303.974 378.844 304.998 378.844 306.406C378.844 307.798 377.868 308.838 376.572 308.838ZM382.81 310.438H384.842V305.174C385.146 304.662 385.69 303.974 386.714 303.974C387.706 303.974 388.314 304.646 388.314 305.718V310.438H390.362V305.638C390.362 303.254 388.97 302.054 387.226 302.054C386.154 302.054 385.402 302.47 384.842 303.014V302.374H382.81V310.438Z" fill="black"/>
<rect x="235" y="249.438" width="178" height="72" stroke="#000091" stroke-width="2"/>
<path d="M90 175.438L90 174.438L89 174.438L89 175.438L90 175.438ZM90 249.438L95.7735 239.438L84.2265 239.438L90 249.438ZM324 175.438L325 175.438L325 174.438L324 174.438L324 175.438ZM324 249.438L329.774 239.438L318.226 239.438L324 249.438ZM89 175.438L89 240.438L91 240.438L91 175.438L89 175.438ZM90 176.438L324 176.438L324 174.438L90 174.438L90 176.438ZM323 175.438L323 240.438L325 240.438L325 175.438L323 175.438Z" fill="#000091"/>
<rect x="66" y="188.438" width="45" height="36" fill="white"/>
<path d="M82.237 202.798C79.609 202.798 77.821 204.838 77.821 207.238C77.821 209.638 79.609 211.678 82.237 211.678C84.853 211.678 86.641 209.638 86.641 207.238C86.641 204.838 84.853 202.798 82.237 202.798ZM82.237 210.622C80.341 210.622 78.985 209.11 78.985 207.238C78.985 205.366 80.341 203.854 82.237 203.854C84.121 203.854 85.477 205.366 85.477 207.238C85.477 209.11 84.121 210.622 82.237 210.622ZM93.7788 208.342C93.7788 209.794 92.9388 210.622 91.6548 210.622C90.3588 210.622 89.5188 209.794 89.5188 208.342V203.038H88.3908V208.27C88.3908 210.43 89.6868 211.678 91.6548 211.678C93.6228 211.678 94.9068 210.43 94.9068 208.27V203.038H93.7788V208.342ZM97.3261 211.438H98.4541V203.038H97.3261V211.438Z" fill="black"/>
<rect x="66" y="188.438" width="45" height="36" stroke="#000091" stroke-width="2"/>
<rect x="297" y="188.438" width="53" height="36" fill="white"/>
<path d="M309.791 211.438H310.919V204.418L315.671 211.438H317.147V203.038H316.019V210.058L311.267 203.038H309.791V211.438ZM323.507 202.798C320.879 202.798 319.091 204.838 319.091 207.238C319.091 209.638 320.879 211.678 323.507 211.678C326.123 211.678 327.911 209.638 327.911 207.238C327.911 204.838 326.123 202.798 323.507 202.798ZM323.507 210.622C321.611 210.622 320.255 209.11 320.255 207.238C320.255 205.366 321.611 203.854 323.507 203.854C325.391 203.854 326.747 205.366 326.747 207.238C326.747 209.11 325.391 210.622 323.507 210.622ZM329.853 211.438H330.981V204.418L335.733 211.438H337.209V203.038H336.081V210.058L331.329 203.038H329.853V211.438Z" fill="black"/>
<rect x="297" y="188.438" width="53" height="36" stroke="#000091" stroke-width="2"/>
</g>
<defs>
<clipPath id="clip0_2619_98882">
<rect width="414" height="451" fill="white" transform="translate(0 0.437988)"/>
</clipPath>
<clipPath id="clip1_2619_98882">
<rect width="149" height="34" fill="white" transform="translate(133 27.438)"/>
</clipPath>
</defs>
</svg>
