<svg width="414" height="429" viewBox="0 0 414 429" fill="none" xmlns="http://www.w3.org/2000/svg">
<g clip-path="url(#clip0_2619_98882)">
<rect width="414" height="428" transform="translate(0 0.130859)" fill="white"/>
<path d="M104.588 28.2029V17.9309H102.316V28.3149C102.316 29.4669 101.788 29.8989 100.78 29.8989C100.556 29.8989 100.364 29.8829 100.204 29.8509V31.8509C100.428 31.9149 100.732 31.9149 101.1 31.9149C103.436 31.9149 104.588 30.6829 104.588 28.2029ZM114.773 27.8189L113.317 26.6669C112.885 27.2429 112.117 27.6269 111.237 27.6269C109.973 27.6269 109.045 27.0189 108.853 25.5149H114.501C114.565 25.2429 114.629 24.8269 114.629 24.3789C114.629 22.2669 113.157 20.7469 110.917 20.7469C108.277 20.7469 106.773 22.7149 106.773 25.0989C106.773 27.4509 108.389 29.4509 111.253 29.4509C112.773 29.4509 114.021 28.8269 114.773 27.8189ZM110.869 22.4109C112.005 22.4109 112.597 23.2269 112.629 24.0429H108.917C109.141 22.9869 109.829 22.4109 110.869 22.4109ZM124.799 27.5309C123.439 27.5309 122.463 26.5229 122.463 25.0989C122.463 23.6909 123.439 22.6669 124.767 22.6669C125.599 22.6669 126.239 23.0349 126.623 23.5949L128.207 22.3789C127.455 21.3869 126.271 20.7469 124.799 20.7469C122.015 20.7469 120.351 22.7469 120.351 25.0989C120.351 27.4509 122.015 29.4509 124.799 29.4509C126.271 29.4509 127.455 28.8109 128.207 27.8189L126.623 26.6029C126.239 27.1629 125.599 27.5309 124.799 27.5309ZM129.724 29.1309H131.756V23.9629C132.06 23.4509 132.7 22.9069 133.692 22.9069C134.06 22.9069 134.332 22.9549 134.588 23.0189V21.0189C134.396 20.9549 134.156 20.9069 133.884 20.9069C132.972 20.9069 132.284 21.3229 131.756 21.8669V21.0669H129.724V29.1309ZM140.568 19.7869L142.488 17.1309H140.28L138.616 19.7869H140.568ZM143.304 27.8189L141.848 26.6669C141.416 27.2429 140.648 27.6269 139.768 27.6269C138.504 27.6269 137.576 27.0189 137.384 25.5149H143.032C143.096 25.2429 143.16 24.8269 143.16 24.3789C143.16 22.2669 141.688 20.7469 139.448 20.7469C136.808 20.7469 135.304 22.7149 135.304 25.0989C135.304 27.4509 136.92 29.4509 139.784 29.4509C141.304 29.4509 142.552 28.8269 143.304 27.8189ZM139.4 22.4109C140.536 22.4109 141.128 23.2269 141.16 24.0429H137.448C137.672 22.9869 138.36 22.4109 139.4 22.4109ZM152.507 27.8189L151.051 26.6669C150.619 27.2429 149.851 27.6269 148.971 27.6269C147.707 27.6269 146.779 27.0189 146.587 25.5149H152.235C152.299 25.2429 152.363 24.8269 152.363 24.3789C152.363 22.2669 150.891 20.7469 148.651 20.7469C146.011 20.7469 144.507 22.7149 144.507 25.0989C144.507 27.4509 146.123 29.4509 148.987 29.4509C150.507 29.4509 151.755 28.8269 152.507 27.8189ZM148.603 22.4109C149.739 22.4109 150.331 23.2269 150.363 24.0429H146.651C146.875 22.9869 147.563 22.4109 148.603 22.4109ZM163.973 25.6429C163.973 26.8109 163.365 27.5309 162.261 27.5309C161.141 27.5309 160.533 26.8109 160.533 25.6429V21.0669H158.485V25.5469C158.485 27.9629 159.877 29.4509 162.245 29.4509C164.613 29.4509 166.021 27.9629 166.021 25.5469V21.0669H163.973V25.6429ZM168.271 29.1309H170.303V23.8669C170.607 23.3549 171.151 22.6669 172.175 22.6669C173.167 22.6669 173.775 23.3389 173.775 24.4109V29.1309H175.823V24.3309C175.823 21.9469 174.431 20.7469 172.687 20.7469C171.615 20.7469 170.863 21.1629 170.303 21.7069V21.0669H168.271V29.1309ZM186.315 27.5309C184.955 27.5309 183.979 26.5229 183.979 25.0989C183.979 23.6909 184.955 22.6669 186.283 22.6669C187.115 22.6669 187.755 23.0349 188.139 23.5949L189.723 22.3789C188.971 21.3869 187.787 20.7469 186.315 20.7469C183.531 20.7469 181.867 22.7469 181.867 25.0989C181.867 27.4509 183.531 29.4509 186.315 29.4509C187.787 29.4509 188.971 28.8109 189.723 27.8189L188.139 26.6029C187.755 27.1629 187.115 27.5309 186.315 27.5309ZM194.767 20.7469C192.143 20.7469 190.351 22.6829 190.351 25.0989C190.351 27.5149 192.143 29.4509 194.767 29.4509C197.391 29.4509 199.183 27.5149 199.183 25.0989C199.183 22.6829 197.391 20.7469 194.767 20.7469ZM194.799 27.5309C193.455 27.5309 192.463 26.5069 192.463 25.0989C192.463 23.6909 193.455 22.6669 194.799 22.6669C196.095 22.6669 197.071 23.6909 197.071 25.0989C197.071 26.4909 196.095 27.5309 194.799 27.5309ZM201.036 29.1309H203.068V23.8669C203.372 23.3549 203.852 22.6669 204.78 22.6669C205.692 22.6669 206.22 23.2749 206.22 24.2509V29.1309H208.268V24.1709C208.268 24.0429 208.268 23.9309 208.252 23.8189C208.572 23.2749 209.052 22.6669 209.932 22.6669C210.844 22.6669 211.372 23.2749 211.372 24.2509V29.1309H213.42V24.1709C213.42 21.8989 212.108 20.7469 210.444 20.7469C209.084 20.7469 208.316 21.3549 207.74 22.0589C207.212 21.1949 206.316 20.7469 205.292 20.7469C204.3 20.7469 203.612 21.1469 203.068 21.6749V21.0669H201.036V29.1309ZM215.739 33.0669H217.771V28.4749C218.395 29.0989 219.179 29.4509 220.283 29.4509C222.843 29.4509 224.379 27.4509 224.379 25.0989C224.379 22.7469 222.843 20.7469 220.283 20.7469C219.179 20.7469 218.395 21.0989 217.771 21.7229V21.0669H215.739V33.0669ZM219.995 22.6669C221.371 22.6669 222.267 23.6909 222.267 25.0989C222.267 26.5069 221.371 27.5309 219.995 27.5309C219.067 27.5309 218.315 27.1309 217.771 26.3629V23.8349C218.283 23.0829 219.051 22.6669 219.995 22.6669ZM226.658 26.1869C226.658 28.1549 227.618 29.2909 229.634 29.2909C230.306 29.2909 230.786 29.2109 231.186 29.0349V27.2589C230.914 27.3709 230.546 27.4349 229.986 27.4349C229.186 27.4349 228.706 27.0829 228.706 26.1869V22.8909H231.17V21.0669H228.706V19.0509H226.658V21.0669H225.154V22.8909H226.658V26.1869ZM240.257 27.8189L238.801 26.6669C238.369 27.2429 237.601 27.6269 236.721 27.6269C235.457 27.6269 234.529 27.0189 234.337 25.5149H239.985C240.049 25.2429 240.113 24.8269 240.113 24.3789C240.113 22.2669 238.641 20.7469 236.401 20.7469C233.761 20.7469 232.257 22.7149 232.257 25.0989C232.257 27.4509 233.873 29.4509 236.737 29.4509C238.257 29.4509 239.505 28.8269 240.257 27.8189ZM236.353 22.4109C237.489 22.4109 238.081 23.2269 238.113 24.0429H234.401C234.625 22.9869 235.313 22.4109 236.353 22.4109ZM245.835 25.0989C245.835 27.4509 247.387 29.4509 249.931 29.4509C251.019 29.4509 251.803 29.1149 252.427 28.4909V29.1309H254.475V17.1309H252.427V21.7069C251.803 21.0829 251.019 20.7469 249.931 20.7469C247.387 20.7469 245.835 22.7469 245.835 25.0989ZM247.963 25.0989C247.963 23.6909 248.843 22.6669 250.219 22.6669C251.131 22.6669 251.883 23.0509 252.427 23.7869V26.4109C251.883 27.1469 251.131 27.5309 250.219 27.5309C248.843 27.5309 247.963 26.5069 247.963 25.0989ZM259.183 29.3709C260.127 29.3709 261.087 28.9709 261.599 28.3469V29.1309H263.631V23.9149C263.631 22.1389 262.431 20.7469 260.095 20.7469C258.623 20.7469 257.439 21.3549 256.719 22.3469L258.207 23.4829C258.639 22.8909 259.247 22.5229 260.031 22.5229C260.959 22.5229 261.599 23.0669 261.599 23.9149V24.1229L259.135 24.5389C257.407 24.8269 256.463 25.7389 256.463 26.9549C256.463 28.4429 257.567 29.3709 259.183 29.3709ZM258.479 26.8589C258.479 26.3629 258.831 26.0109 259.679 25.8669L261.599 25.5469V26.6829C261.199 27.3229 260.527 27.7549 259.599 27.7549C258.911 27.7549 258.479 27.4029 258.479 26.8589ZM266.47 26.1869C266.47 28.1549 267.43 29.2909 269.446 29.2909C270.118 29.2909 270.598 29.2109 270.998 29.0349V27.2589C270.726 27.3709 270.358 27.4349 269.798 27.4349C268.998 27.4349 268.518 27.0829 268.518 26.1869V22.8909H270.982V21.0669H268.518V19.0509H266.47V21.0669H264.966V22.8909H266.47V26.1869ZM275.074 29.3709C276.018 29.3709 276.978 28.9709 277.49 28.3469V29.1309H279.522V23.9149C279.522 22.1389 278.322 20.7469 275.986 20.7469C274.514 20.7469 273.33 21.3549 272.61 22.3469L274.098 23.4829C274.53 22.8909 275.138 22.5229 275.922 22.5229C276.85 22.5229 277.49 23.0669 277.49 23.9149V24.1229L275.026 24.5389C273.298 24.8269 272.354 25.7389 272.354 26.9549C272.354 28.4429 273.458 29.3709 275.074 29.3709ZM274.37 26.8589C274.37 26.3629 274.722 26.0109 275.57 25.8669L277.49 25.5469V26.6829C277.09 27.3229 276.418 27.7549 275.49 27.7549C274.802 27.7549 274.37 27.4029 274.37 26.8589ZM281.849 33.0669H283.881V28.4749C284.505 29.0989 285.289 29.4509 286.393 29.4509C288.953 29.4509 290.489 27.4509 290.489 25.0989C290.489 22.7469 288.953 20.7469 286.393 20.7469C285.289 20.7469 284.505 21.0989 283.881 21.7229V21.0669H281.849V33.0669ZM286.105 22.6669C287.481 22.6669 288.377 23.6909 288.377 25.0989C288.377 26.5069 287.481 27.5309 286.105 27.5309C285.177 27.5309 284.425 27.1309 283.881 26.3629V23.8349C284.393 23.0829 285.161 22.6669 286.105 22.6669ZM294.433 29.3709C295.377 29.3709 296.337 28.9709 296.849 28.3469V29.1309H298.881V23.9149C298.881 22.1389 297.681 20.7469 295.345 20.7469C293.873 20.7469 292.689 21.3549 291.969 22.3469L293.457 23.4829C293.889 22.8909 294.497 22.5229 295.281 22.5229C296.209 22.5229 296.849 23.0669 296.849 23.9149V24.1229L294.385 24.5389C292.657 24.8269 291.713 25.7389 291.713 26.9549C291.713 28.4429 292.817 29.3709 294.433 29.3709ZM293.729 26.8589C293.729 26.3629 294.081 26.0109 294.929 25.8669L296.849 25.5469V26.6829C296.449 27.3229 295.777 27.7549 294.849 27.7549C294.161 27.7549 293.729 27.4029 293.729 26.8589ZM300.504 27.9629C301.272 28.8749 302.296 29.4509 303.736 29.4509C305.256 29.4509 306.616 28.5229 306.648 26.8269C306.648 24.0429 302.792 24.5229 302.792 23.1469C302.792 22.7309 303.096 22.3789 303.736 22.3789C304.36 22.3789 304.888 22.7949 305.304 23.3069L306.648 22.1229C306.072 21.3389 304.952 20.7469 303.72 20.7469C302.04 20.7469 300.84 21.8189 300.84 23.2429C300.84 26.0749 304.696 25.5469 304.696 26.9549C304.696 27.4349 304.36 27.8189 303.704 27.8189C302.936 27.8189 302.344 27.3709 301.848 26.7469L300.504 27.9629ZM307.707 27.9629C308.475 28.8749 309.499 29.4509 310.939 29.4509C312.459 29.4509 313.819 28.5229 313.851 26.8269C313.851 24.0429 309.995 24.5229 309.995 23.1469C309.995 22.7309 310.299 22.3789 310.939 22.3789C311.563 22.3789 312.091 22.7949 312.507 23.3069L313.851 22.1229C313.275 21.3389 312.155 20.7469 310.923 20.7469C309.243 20.7469 308.043 21.8189 308.043 23.2429C308.043 26.0749 311.899 25.5469 311.899 26.9549C311.899 27.4349 311.563 27.8189 310.907 27.8189C310.139 27.8189 309.547 27.3709 309.051 26.7469L307.707 27.9629Z" fill="black"/>
<rect x="90" y="1.13086" width="235" height="42" stroke="#000091" stroke-width="2"/>
<path d="M136.351 93.7309L139.711 102.131H141.199L144.559 93.7309H143.359L140.455 100.991L137.551 93.7309H136.351ZM148.371 95.1229L149.775 93.1309H148.623L147.375 95.1229H148.371ZM150.675 101.135L149.919 100.547C149.523 101.087 148.863 101.447 148.083 101.447C146.787 101.447 145.863 100.571 145.827 99.1189H150.471C150.507 98.9509 150.543 98.7229 150.543 98.4829C150.543 96.9949 149.475 95.8429 147.831 95.8429C145.959 95.8429 144.783 97.2709 144.783 99.1069C144.783 100.871 146.043 102.371 148.083 102.371C149.211 102.371 150.111 101.891 150.675 101.135ZM147.807 96.7069C148.875 96.7069 149.487 97.4509 149.523 98.3389H145.899C146.115 97.2949 146.811 96.7069 147.807 96.7069ZM152.271 102.131H153.291V97.9789C153.663 97.3669 154.179 96.9589 154.971 96.9589C155.211 96.9589 155.391 96.9829 155.571 97.0309V96.0349C155.427 95.9869 155.247 95.9629 155.055 95.9629C154.287 95.9629 153.735 96.3109 153.291 96.8389V96.0829H152.271V102.131ZM157.557 94.5109C157.953 94.5109 158.265 94.1869 158.265 93.7909C158.265 93.4069 157.953 93.0829 157.557 93.0829C157.161 93.0829 156.837 93.4069 156.837 93.7909C156.837 94.1869 157.161 94.5109 157.557 94.5109ZM157.041 102.131H158.061V96.0829H157.041V102.131ZM159.425 96.0829V97.0069H160.565V102.131H161.597V97.0069H163.697V96.0829H161.597V95.3149C161.597 94.5229 162.053 94.0549 162.737 94.0549C163.085 94.0549 163.361 94.1629 163.589 94.3309L164.045 93.4789C163.709 93.2869 163.265 93.1309 162.713 93.1309C161.393 93.1309 160.565 94.0549 160.565 95.3389V96.0829H159.425ZM165.455 94.5109C165.851 94.5109 166.163 94.1869 166.163 93.7909C166.163 93.4069 165.851 93.0829 165.455 93.0829C165.059 93.0829 164.735 93.4069 164.735 93.7909C164.735 94.1869 165.059 94.5109 165.455 94.5109ZM164.939 102.131H165.959V96.0829H164.939V102.131ZM170.899 101.411C169.591 101.411 168.667 100.403 168.667 99.1069C168.667 97.8229 169.591 96.8029 170.887 96.8029C171.643 96.8029 172.255 97.1629 172.627 97.6909L173.431 97.0789C172.867 96.3349 171.979 95.8429 170.887 95.8429C168.883 95.8429 167.599 97.3429 167.599 99.1069C167.599 100.871 168.883 102.371 170.887 102.371C171.991 102.371 172.867 101.891 173.431 101.135L172.627 100.523C172.255 101.051 171.643 101.411 170.899 101.411ZM176.392 102.299C177.172 102.299 177.964 101.951 178.42 101.363V102.131H179.44V98.0749C179.44 96.7429 178.528 95.8429 176.992 95.8429C175.936 95.8429 175.084 96.2869 174.556 97.0069L175.324 97.5949C175.696 97.0789 176.26 96.7549 176.956 96.7549C177.82 96.7549 178.42 97.2349 178.42 98.0749V98.4949L176.38 98.8309C175.096 99.0469 174.4 99.6949 174.4 100.607C174.4 101.639 175.204 102.299 176.392 102.299ZM175.432 100.571C175.432 100.055 175.804 99.6829 176.632 99.5389L178.42 99.2389V100.427C178.024 101.075 177.364 101.459 176.56 101.459C175.852 101.459 175.432 101.087 175.432 100.571ZM181.834 100.103C181.834 101.579 182.59 102.251 183.934 102.251C184.366 102.251 184.69 102.203 184.978 102.083V101.171C184.75 101.267 184.474 101.315 184.078 101.315C183.346 101.315 182.866 101.051 182.866 100.103V97.0069H184.966V96.0829H182.866V94.5709H181.834V96.0829H180.694V97.0069H181.834V100.103ZM187.041 94.5109C187.437 94.5109 187.749 94.1869 187.749 93.7909C187.749 93.4069 187.437 93.0829 187.041 93.0829C186.645 93.0829 186.321 93.4069 186.321 93.7909C186.321 94.1869 186.645 94.5109 187.041 94.5109ZM186.525 102.131H187.545V96.0829H186.525V102.131ZM192.461 95.8429C190.505 95.8429 189.185 97.3429 189.185 99.1069C189.185 100.871 190.505 102.371 192.461 102.371C194.405 102.371 195.737 100.871 195.737 99.1069C195.737 97.3429 194.405 95.8429 192.461 95.8429ZM192.473 101.411C191.177 101.411 190.253 100.367 190.253 99.1069C190.253 97.8469 191.177 96.8029 192.473 96.8029C193.733 96.8029 194.657 97.8469 194.657 99.1069C194.657 100.355 193.733 101.411 192.473 101.411ZM197.377 102.131H198.397V97.9429C198.781 97.3069 199.333 96.8029 200.209 96.8029C201.145 96.8029 201.757 97.4269 201.757 98.5069V102.131H202.777V98.4709C202.777 96.7549 201.769 95.8429 200.413 95.8429C199.513 95.8429 198.889 96.2269 198.397 96.7669V96.0829H197.377V102.131ZM207.548 99.1069C207.548 100.871 208.76 102.371 210.656 102.371C211.556 102.371 212.264 102.023 212.804 101.411V102.131H213.824V93.1309H212.804V96.8029C212.264 96.1909 211.556 95.8429 210.656 95.8429C208.76 95.8429 207.548 97.3429 207.548 99.1069ZM208.628 99.1069C208.628 97.8229 209.492 96.8029 210.776 96.8029C211.604 96.8029 212.336 97.1989 212.804 97.9189V100.295C212.36 101.003 211.616 101.411 210.776 101.411C209.492 101.411 208.628 100.391 208.628 99.1069ZM220.187 99.5389C220.187 100.727 219.539 101.411 218.531 101.411C217.499 101.411 216.863 100.727 216.863 99.5389V96.0829H215.843V99.5029C215.843 101.315 216.887 102.371 218.519 102.371C220.163 102.371 221.207 101.315 221.207 99.5029V96.0829H220.187V99.5389ZM225.803 101.303C226.355 101.987 227.111 102.371 228.071 102.371C229.199 102.371 230.099 101.663 230.111 100.535C230.111 98.4709 227.075 98.9029 227.075 97.5469C227.075 97.0789 227.423 96.6949 228.071 96.6949C228.599 96.6949 229.055 96.9829 229.379 97.4389L230.087 96.8389C229.667 96.2509 228.923 95.8429 228.059 95.8429C226.895 95.8429 226.091 96.6229 226.091 97.5709C226.091 99.7069 229.115 99.2269 229.115 100.583C229.115 101.111 228.731 101.519 228.059 101.519C227.447 101.519 226.943 101.219 226.523 100.691L225.803 101.303ZM233.779 103.595L236.959 96.0829H235.879L233.875 100.823L231.847 96.0829H230.719L233.335 102.119L232.867 103.223C232.555 103.967 232.075 104.195 231.463 104.195C231.175 104.195 230.899 104.135 230.671 104.027V104.939C230.935 105.071 231.235 105.131 231.643 105.131C232.663 105.131 233.359 104.603 233.779 103.595ZM237.358 101.303C237.91 101.987 238.666 102.371 239.626 102.371C240.754 102.371 241.654 101.663 241.666 100.535C241.666 98.4709 238.63 98.9029 238.63 97.5469C238.63 97.0789 238.978 96.6949 239.626 96.6949C240.154 96.6949 240.61 96.9829 240.934 97.4389L241.642 96.8389C241.222 96.2509 240.478 95.8429 239.614 95.8429C238.45 95.8429 237.646 96.6229 237.646 97.5709C237.646 99.7069 240.67 99.2269 240.67 100.583C240.67 101.111 240.286 101.519 239.614 101.519C239.002 101.519 238.498 101.219 238.078 100.691L237.358 101.303ZM243.721 100.103C243.721 101.579 244.477 102.251 245.821 102.251C246.253 102.251 246.577 102.203 246.865 102.083V101.171C246.637 101.267 246.361 101.315 245.965 101.315C245.233 101.315 244.753 101.051 244.753 100.103V97.0069H246.853V96.0829H244.753V94.5709H243.721V96.0829H242.581V97.0069H243.721V100.103ZM250.323 95.1229H251.307L250.059 93.1309H248.919L250.323 95.1229ZM253.671 101.135L252.915 100.547C252.519 101.087 251.859 101.447 251.079 101.447C249.783 101.447 248.859 100.571 248.823 99.1189H253.467C253.503 98.9509 253.539 98.7229 253.539 98.4829C253.539 96.9949 252.471 95.8429 250.827 95.8429C248.955 95.8429 247.779 97.2709 247.779 99.1069C247.779 100.871 249.039 102.371 251.079 102.371C252.207 102.371 253.107 101.891 253.671 101.135ZM250.803 96.7069C251.871 96.7069 252.483 97.4509 252.519 98.3389H248.895C249.111 97.2949 249.807 96.7069 250.803 96.7069ZM255.268 102.131H256.288V97.9429C256.636 97.3189 257.152 96.8029 257.98 96.8029C258.856 96.8029 259.408 97.3789 259.408 98.3869V102.131H260.428V98.3509C260.428 98.2069 260.416 98.0749 260.404 97.9429C260.799 97.2349 261.34 96.8029 262.108 96.8029C262.972 96.8029 263.536 97.3789 263.536 98.3869V102.131H264.556V98.3509C264.556 96.7069 263.608 95.8429 262.312 95.8429C261.268 95.8429 260.632 96.3469 260.152 97.0069C259.78 96.2389 259.06 95.8429 258.184 95.8429C257.344 95.8429 256.744 96.2149 256.288 96.7429V96.0829H255.268V102.131ZM271.987 101.135L271.231 100.547C270.835 101.087 270.175 101.447 269.395 101.447C268.099 101.447 267.175 100.571 267.139 99.1189H271.783C271.819 98.9509 271.855 98.7229 271.855 98.4829C271.855 96.9949 270.787 95.8429 269.143 95.8429C267.271 95.8429 266.095 97.2709 266.095 99.1069C266.095 100.871 267.355 102.371 269.395 102.371C270.523 102.371 271.423 101.891 271.987 101.135ZM269.119 96.7069C270.187 96.7069 270.799 97.4509 270.835 98.3389H267.211C267.427 97.2949 268.123 96.7069 269.119 96.7069ZM277.37 97.4749C277.802 97.4749 278.138 97.1269 278.138 96.7069C278.138 96.2869 277.802 95.9509 277.37 95.9509C276.938 95.9509 276.59 96.2869 276.59 96.7069C276.59 97.1269 276.938 97.4749 277.37 97.4749ZM277.37 102.263C277.802 102.263 278.138 101.927 278.138 101.507C278.138 101.087 277.802 100.739 277.37 100.739C276.938 100.739 276.59 101.087 276.59 101.507C276.59 101.927 276.938 102.263 277.37 102.263ZM109.41 116.131H110.43V107.131H109.41V116.131ZM113.029 110.947L114.265 107.731H113.101L112.081 110.947H113.029ZM117.865 109.843C115.909 109.843 114.589 111.343 114.589 113.107C114.589 114.871 115.909 116.371 117.865 116.371C119.809 116.371 121.141 114.871 121.141 113.107C121.141 111.343 119.809 109.843 117.865 109.843ZM117.877 115.411C116.581 115.411 115.657 114.367 115.657 113.107C115.657 111.847 116.581 110.803 117.877 110.803C119.137 110.803 120.061 111.847 120.061 113.107C120.061 114.355 119.137 115.411 117.877 115.411ZM122.781 116.131H123.801V111.979C124.173 111.367 124.689 110.959 125.481 110.959C125.721 110.959 125.901 110.983 126.081 111.031V110.035C125.937 109.987 125.757 109.963 125.565 109.963C124.797 109.963 124.245 110.311 123.801 110.839V110.083H122.781V116.131ZM126.738 117.223C126.738 118.435 127.914 119.131 129.702 119.131C131.514 119.131 132.786 118.183 132.786 116.911C132.786 115.831 132.042 115.051 130.446 115.051H128.718C128.346 115.051 128.214 114.871 128.214 114.619C128.214 114.391 128.358 114.175 128.61 113.995C128.862 114.067 129.15 114.115 129.45 114.115C130.902 114.115 131.802 113.131 131.802 111.979C131.802 111.619 131.718 111.271 131.55 110.971H132.858V110.083H130.614C130.29 109.927 129.894 109.831 129.45 109.831C128.01 109.831 127.098 110.815 127.098 111.979C127.098 112.651 127.41 113.263 127.938 113.659C127.47 113.959 127.218 114.355 127.218 114.835C127.218 115.159 127.362 115.483 127.638 115.699C127.038 116.119 126.738 116.611 126.738 117.223ZM129.462 113.311C128.562 113.311 128.07 112.723 128.07 111.979C128.07 111.235 128.562 110.635 129.462 110.635C130.338 110.635 130.842 111.235 130.842 111.979C130.842 112.711 130.338 113.311 129.462 113.311ZM127.734 117.103C127.734 116.623 127.986 116.263 128.406 115.951H130.362C131.442 115.951 131.766 116.407 131.766 116.983C131.766 117.775 130.962 118.279 129.69 118.279C128.49 118.279 127.734 117.835 127.734 117.103ZM135.453 116.299C136.233 116.299 137.025 115.951 137.481 115.363V116.131H138.501V112.075C138.501 110.743 137.589 109.843 136.053 109.843C134.997 109.843 134.145 110.287 133.617 111.007L134.385 111.595C134.757 111.079 135.321 110.755 136.017 110.755C136.881 110.755 137.481 111.235 137.481 112.075V112.495L135.441 112.831C134.157 113.047 133.461 113.695 133.461 114.607C133.461 115.639 134.265 116.299 135.453 116.299ZM134.493 114.571C134.493 114.055 134.865 113.683 135.693 113.539L137.481 113.239V114.427C137.085 115.075 136.425 115.459 135.621 115.459C134.913 115.459 134.493 115.087 134.493 114.571ZM140.547 116.131H141.567V111.943C141.951 111.307 142.503 110.803 143.379 110.803C144.315 110.803 144.927 111.427 144.927 112.507V116.131H145.947V112.471C145.947 110.755 144.939 109.843 143.583 109.843C142.683 109.843 142.059 110.227 141.567 110.767V110.083H140.547V116.131ZM148.516 108.511C148.912 108.511 149.224 108.187 149.224 107.791C149.224 107.407 148.912 107.083 148.516 107.083C148.12 107.083 147.796 107.407 147.796 107.791C147.796 108.187 148.12 108.511 148.516 108.511ZM148 116.131H149.02V110.083H148V116.131ZM150.481 115.303C151.033 115.987 151.789 116.371 152.749 116.371C153.877 116.371 154.777 115.663 154.789 114.535C154.789 112.471 151.753 112.903 151.753 111.547C151.753 111.079 152.101 110.695 152.749 110.695C153.277 110.695 153.733 110.983 154.057 111.439L154.765 110.839C154.345 110.251 153.601 109.843 152.737 109.843C151.573 109.843 150.769 110.623 150.769 111.571C150.769 113.707 153.793 113.227 153.793 114.583C153.793 115.111 153.409 115.519 152.737 115.519C152.125 115.519 151.621 115.219 151.201 114.691L150.481 115.303ZM158.07 116.299C158.85 116.299 159.642 115.951 160.098 115.363V116.131H161.118V112.075C161.118 110.743 160.206 109.843 158.67 109.843C157.614 109.843 156.762 110.287 156.234 111.007L157.002 111.595C157.374 111.079 157.938 110.755 158.634 110.755C159.498 110.755 160.098 111.235 160.098 112.075V112.495L158.058 112.831C156.774 113.047 156.078 113.695 156.078 114.607C156.078 115.639 156.882 116.299 158.07 116.299ZM157.11 114.571C157.11 114.055 157.482 113.683 158.31 113.539L160.098 113.239V114.427C159.702 115.075 159.042 115.459 158.238 115.459C157.53 115.459 157.11 115.087 157.11 114.571ZM163.512 114.103C163.512 115.579 164.268 116.251 165.612 116.251C166.044 116.251 166.368 116.203 166.656 116.083V115.171C166.428 115.267 166.152 115.315 165.756 115.315C165.024 115.315 164.544 115.051 164.544 114.103V111.007H166.644V110.083H164.544V108.571H163.512V110.083H162.372V111.007H163.512V114.103ZM168.719 108.511C169.115 108.511 169.427 108.187 169.427 107.791C169.427 107.407 169.115 107.083 168.719 107.083C168.323 107.083 167.999 107.407 167.999 107.791C167.999 108.187 168.323 108.511 168.719 108.511ZM168.203 116.131H169.223V110.083H168.203V116.131ZM174.139 109.843C172.183 109.843 170.863 111.343 170.863 113.107C170.863 114.871 172.183 116.371 174.139 116.371C176.083 116.371 177.415 114.871 177.415 113.107C177.415 111.343 176.083 109.843 174.139 109.843ZM174.151 115.411C172.855 115.411 171.931 114.367 171.931 113.107C171.931 111.847 172.855 110.803 174.151 110.803C175.411 110.803 176.335 111.847 176.335 113.107C176.335 114.355 175.411 115.411 174.151 115.411ZM179.055 116.131H180.075V111.943C180.459 111.307 181.011 110.803 181.887 110.803C182.823 110.803 183.435 111.427 183.435 112.507V116.131H184.455V112.471C184.455 110.755 183.447 109.843 182.091 109.843C181.191 109.843 180.567 110.227 180.075 110.767V110.083H179.055V116.131ZM195.118 115.135L194.362 114.547C193.966 115.087 193.306 115.447 192.526 115.447C191.23 115.447 190.306 114.571 190.27 113.119H194.914C194.95 112.951 194.986 112.723 194.986 112.483C194.986 110.995 193.918 109.843 192.274 109.843C190.402 109.843 189.226 111.271 189.226 113.107C189.226 114.871 190.486 116.371 192.526 116.371C193.654 116.371 194.554 115.891 195.118 115.135ZM192.25 110.707C193.318 110.707 193.93 111.451 193.966 112.339H190.342C190.558 111.295 191.254 110.707 192.25 110.707ZM196.02 115.303C196.572 115.987 197.328 116.371 198.288 116.371C199.416 116.371 200.316 115.663 200.328 114.535C200.328 112.471 197.292 112.903 197.292 111.547C197.292 111.079 197.64 110.695 198.288 110.695C198.816 110.695 199.272 110.983 199.596 111.439L200.304 110.839C199.884 110.251 199.14 109.843 198.276 109.843C197.112 109.843 196.308 110.623 196.308 111.571C196.308 113.707 199.332 113.227 199.332 114.583C199.332 115.111 198.948 115.519 198.276 115.519C197.664 115.519 197.16 115.219 196.74 114.691L196.02 115.303ZM202.383 114.103C202.383 115.579 203.139 116.251 204.483 116.251C204.915 116.251 205.239 116.203 205.527 116.083V115.171C205.299 115.267 205.023 115.315 204.627 115.315C203.895 115.315 203.415 115.051 203.415 114.103V111.007H205.515V110.083H203.415V108.571H202.383V110.083H201.243V111.007H202.383V114.103ZM205.847 112.567V113.551H209.087V112.567H205.847ZM216.013 115.135L215.257 114.547C214.861 115.087 214.201 115.447 213.421 115.447C212.125 115.447 211.201 114.571 211.165 113.119H215.809C215.845 112.951 215.881 112.723 215.881 112.483C215.881 110.995 214.813 109.843 213.169 109.843C211.297 109.843 210.121 111.271 210.121 113.107C210.121 114.871 211.381 116.371 213.421 116.371C214.549 116.371 215.449 115.891 216.013 115.135ZM213.145 110.707C214.213 110.707 214.825 111.451 214.861 112.339H211.237C211.453 111.295 212.149 110.707 213.145 110.707ZM217.609 116.131H218.629V107.131H217.609V116.131ZM220.785 116.131H221.805V107.131H220.785V116.131ZM229.337 115.135L228.581 114.547C228.185 115.087 227.525 115.447 226.745 115.447C225.449 115.447 224.525 114.571 224.489 113.119H229.133C229.169 112.951 229.205 112.723 229.205 112.483C229.205 110.995 228.137 109.843 226.493 109.843C224.621 109.843 223.445 111.271 223.445 113.107C223.445 114.871 224.705 116.371 226.745 116.371C227.873 116.371 228.773 115.891 229.337 115.135ZM226.469 110.707C227.537 110.707 228.149 111.451 228.185 112.339H224.561C224.777 111.295 225.473 110.707 226.469 110.707ZM239.544 115.135L238.788 114.547C238.392 115.087 237.732 115.447 236.952 115.447C235.656 115.447 234.732 114.571 234.696 113.119H239.34C239.376 112.951 239.412 112.723 239.412 112.483C239.412 110.995 238.344 109.843 236.7 109.843C234.828 109.843 233.652 111.271 233.652 113.107C233.652 114.871 234.912 116.371 236.952 116.371C238.08 116.371 238.98 115.891 239.544 115.135ZM236.676 110.707C237.744 110.707 238.356 111.451 238.392 112.339H234.768C234.984 111.295 235.68 110.707 236.676 110.707ZM241.141 116.131H242.161V111.943C242.545 111.307 243.097 110.803 243.973 110.803C244.909 110.803 245.521 111.427 245.521 112.507V116.131H246.541V112.471C246.541 110.755 245.533 109.843 244.177 109.843C243.277 109.843 242.653 110.227 242.161 110.767V110.083H241.141V116.131ZM248.594 116.131H249.614V111.979C249.986 111.367 250.502 110.959 251.294 110.959C251.534 110.959 251.714 110.983 251.894 111.031V110.035C251.75 109.987 251.57 109.963 251.378 109.963C250.61 109.963 250.058 110.311 249.614 110.839V110.083H248.594V116.131ZM258.376 115.135L257.62 114.547C257.224 115.087 256.564 115.447 255.784 115.447C254.488 115.447 253.564 114.571 253.528 113.119H258.172C258.208 112.951 258.244 112.723 258.244 112.483C258.244 110.995 257.176 109.843 255.532 109.843C253.66 109.843 252.484 111.271 252.484 113.107C252.484 114.871 253.744 116.371 255.784 116.371C256.912 116.371 257.812 115.891 258.376 115.135ZM255.508 110.707C256.576 110.707 257.188 111.451 257.224 112.339H253.6C253.816 111.295 254.512 110.707 255.508 110.707ZM259.253 117.223C259.253 118.435 260.429 119.131 262.217 119.131C264.029 119.131 265.301 118.183 265.301 116.911C265.301 115.831 264.557 115.051 262.961 115.051H261.233C260.861 115.051 260.729 114.871 260.729 114.619C260.729 114.391 260.873 114.175 261.125 113.995C261.377 114.067 261.665 114.115 261.965 114.115C263.417 114.115 264.317 113.131 264.317 111.979C264.317 111.619 264.233 111.271 264.065 110.971H265.373V110.083H263.129C262.805 109.927 262.409 109.831 261.965 109.831C260.525 109.831 259.613 110.815 259.613 111.979C259.613 112.651 259.925 113.263 260.453 113.659C259.985 113.959 259.733 114.355 259.733 114.835C259.733 115.159 259.877 115.483 260.153 115.699C259.553 116.119 259.253 116.611 259.253 117.223ZM261.977 113.311C261.077 113.311 260.585 112.723 260.585 111.979C260.585 111.235 261.077 110.635 261.977 110.635C262.853 110.635 263.357 111.235 263.357 111.979C263.357 112.711 262.853 113.311 261.977 113.311ZM260.249 117.103C260.249 116.623 260.501 116.263 260.921 115.951H262.877C263.957 115.951 264.281 116.407 264.281 116.983C264.281 117.775 263.477 118.279 262.205 118.279C261.005 118.279 260.249 117.835 260.249 117.103ZM267.063 108.511C267.459 108.511 267.771 108.187 267.771 107.791C267.771 107.407 267.459 107.083 267.063 107.083C266.667 107.083 266.343 107.407 266.343 107.791C266.343 108.187 266.667 108.511 267.063 108.511ZM266.547 116.131H267.567V110.083H266.547V116.131ZM269.028 115.303C269.58 115.987 270.336 116.371 271.296 116.371C272.424 116.371 273.324 115.663 273.336 114.535C273.336 112.471 270.3 112.903 270.3 111.547C270.3 111.079 270.648 110.695 271.296 110.695C271.824 110.695 272.28 110.983 272.604 111.439L273.312 110.839C272.892 110.251 272.148 109.843 271.284 109.843C270.12 109.843 269.316 110.623 269.316 111.571C269.316 113.707 272.34 113.227 272.34 114.583C272.34 115.111 271.956 115.519 271.284 115.519C270.672 115.519 270.168 115.219 269.748 114.691L269.028 115.303ZM275.391 114.103C275.391 115.579 276.147 116.251 277.491 116.251C277.923 116.251 278.247 116.203 278.535 116.083V115.171C278.307 115.267 278.031 115.315 277.635 115.315C276.903 115.315 276.423 115.051 276.423 114.103V111.007H278.523V110.083H276.423V108.571H275.391V110.083H274.251V111.007H275.391V114.103ZM280.082 116.131H281.102V111.979C281.474 111.367 281.99 110.959 282.782 110.959C283.022 110.959 283.202 110.983 283.382 111.031V110.035C283.238 109.987 283.058 109.963 282.866 109.963C282.098 109.963 281.546 110.311 281.102 110.839V110.083H280.082V116.131ZM287.56 109.123L288.964 107.131H287.812L286.564 109.123H287.56ZM289.864 115.135L289.108 114.547C288.712 115.087 288.052 115.447 287.272 115.447C285.976 115.447 285.052 114.571 285.016 113.119H289.66C289.696 112.951 289.732 112.723 289.732 112.483C289.732 110.995 288.664 109.843 287.02 109.843C285.148 109.843 283.972 111.271 283.972 113.107C283.972 114.871 285.232 116.371 287.272 116.371C288.4 116.371 289.3 115.891 289.864 115.135ZM286.996 110.707C288.064 110.707 288.676 111.451 288.712 112.339H285.088C285.304 111.295 286 110.707 286.996 110.707ZM296.813 115.135L296.057 114.547C295.661 115.087 295.001 115.447 294.221 115.447C292.925 115.447 292.001 114.571 291.965 113.119H296.609C296.645 112.951 296.681 112.723 296.681 112.483C296.681 110.995 295.613 109.843 293.969 109.843C292.097 109.843 290.921 111.271 290.921 113.107C290.921 114.871 292.181 116.371 294.221 116.371C295.349 116.371 296.249 115.891 296.813 115.135ZM293.945 110.707C295.013 110.707 295.625 111.451 295.661 112.339H292.037C292.253 111.295 292.949 110.707 293.945 110.707ZM302.712 113.683H303.504L303.564 112.603C305.172 112.327 306.312 111.415 306.312 109.939C306.312 108.523 305.16 107.491 303.72 107.491C302.484 107.491 301.668 108.043 301.044 108.931L301.932 109.483C302.436 108.787 302.94 108.439 303.684 108.439C304.56 108.439 305.208 109.087 305.208 109.951C305.208 111.091 304.284 111.667 302.592 111.859L302.712 113.683ZM303.12 116.263C303.54 116.263 303.888 115.915 303.888 115.495C303.888 115.087 303.54 114.739 303.12 114.739C302.7 114.739 302.352 115.087 302.352 115.495C302.352 115.915 302.7 116.263 303.12 116.263Z" fill="black"/>
<rect x="93" y="81.1309" width="229" height="46" stroke="#3A3A3A" stroke-width="2" stroke-dasharray="4 4"/>
<path fill-rule="evenodd" clip-rule="evenodd" d="M118 328.131C117.449 328.131 117 327.682 117 327.131C117 326.579 117.449 326.131 118 326.131C118.551 326.131 119 326.579 119 327.131C119 327.682 118.551 328.131 118 328.131Z" fill="#CACAFB"/>
<path fill-rule="evenodd" clip-rule="evenodd" d="M91 391.131C90.4486 391.131 90 390.682 90 390.131C90 389.579 90.4486 389.131 91 389.131C91.5514 389.131 92 389.579 92 390.131C92 390.682 91.5514 391.131 91 391.131Z" fill="#CACAFB"/>
<path fill-rule="evenodd" clip-rule="evenodd" d="M65 325.131C64.4486 325.131 64 324.682 64 324.131C64 323.579 64.4486 323.131 65 323.131C65.5514 323.131 66 323.579 66 324.131C66 324.682 65.5514 325.131 65 325.131Z" fill="#CACAFB"/>
<path fill-rule="evenodd" clip-rule="evenodd" d="M87.339 361.71L80.9569 354.165L80.8344 354.034C80.0717 353.297 78.9148 353.283 78.1534 353.994C77.3498 354.745 77.278 356.026 77.9905 356.869L86.1866 366.556C86.2388 366.618 86.296 366.675 86.3575 366.728C86.9874 367.266 87.9342 367.191 88.4723 366.561L106.003 346.038L106.114 345.895C106.712 345.035 106.599 343.866 105.854 343.163C105.039 342.395 103.778 342.467 103.049 343.32L87.339 361.71Z" fill="#E1000F"/>
<path d="M61.4405 360.167C58.6593 344.394 69.1912 329.353 84.9642 326.571C94.9852 324.804 105.029 328.399 111.674 335.857C112.041 336.269 112.005 336.902 111.592 337.269C111.18 337.636 110.548 337.6 110.18 337.187C103.992 330.242 94.6425 326.896 85.3115 328.541C70.6263 331.13 60.8208 345.134 63.4102 359.819C65.9995 374.504 80.0033 384.31 94.6885 381.721C109.374 379.131 119.179 365.127 116.59 350.442C116.494 349.898 116.857 349.38 117.401 349.284C117.945 349.188 118.463 349.551 118.559 350.095C121.341 365.868 110.809 380.909 95.0358 383.69C79.2628 386.471 64.2217 375.94 61.4405 360.167Z" fill="#000091"/>
<path d="M120.224 362.055C120.347 361.517 120.883 361.18 121.421 361.303C121.96 361.425 122.297 361.961 122.174 362.5C120.829 368.396 117.882 373.781 113.693 378.101C113.308 378.498 112.675 378.508 112.279 378.123C111.882 377.739 111.873 377.106 112.257 376.709C116.193 372.65 118.961 367.592 120.224 362.055Z" fill="#000091"/>
<path d="M122 357.131C121.448 357.131 121 357.579 121 358.131C121 358.683 121.448 359.131 122 359.131C122.552 359.131 123 358.683 123 358.131C123 357.579 122.552 357.131 122 357.131Z" fill="#000091"/>
<path d="M324 405.668L328.773 395.668H317.227L322 405.668H324ZM323 426.131V427.131H324V426.131H323ZM210.038 426.131H209.038V427.131H210.038V426.131ZM210.038 262.131H211.038V261.131H210.038V262.131ZM180 262.131L190 267.904V256.357L180 262.131ZM185.632 263.131H189.387V261.131H185.632V263.131ZM193.141 263.131H196.896V261.131H193.141V263.131ZM200.651 263.131H204.406V261.131H200.651V263.131ZM208.16 263.131H210.038V261.131H208.16V263.131ZM209.038 262.131V264.083H211.038V262.131H209.038ZM209.038 267.988V271.893H211.038V267.988H209.038ZM209.038 275.798V279.702H211.038V275.798H209.038ZM209.038 283.607V287.512H211.038V283.607H209.038ZM209.038 291.417V295.321H211.038V291.417H209.038ZM209.038 299.226V303.131H211.038V299.226H209.038ZM209.038 307.036V310.94H211.038V307.036H209.038ZM209.038 314.845V318.75H211.038V314.845H209.038ZM209.038 322.655V326.559H211.038V322.655H209.038ZM209.038 330.464V334.369H211.038V330.464H209.038ZM209.038 338.274V342.178H211.038V338.274H209.038ZM209.038 346.083V349.988H211.038V346.083H209.038ZM209.038 353.893V357.798H211.038V353.893H209.038ZM209.038 361.702V365.607H211.038V361.702H209.038ZM209.038 369.512V373.417H211.038V369.512H209.038ZM209.038 377.321V381.226H211.038V377.321H209.038ZM209.038 385.131V389.036H211.038V385.131H209.038ZM209.038 392.94V396.845H211.038V392.94H209.038ZM209.038 400.75V404.655H211.038V400.75H209.038ZM209.038 408.559V412.464H211.038V408.559H209.038ZM209.038 416.369V420.274H211.038V416.369H209.038ZM209.038 424.178V426.131H211.038V424.178H209.038ZM210.038 427.131H212.055V425.131H210.038V427.131ZM216.089 427.131H220.124V425.131H216.089V427.131ZM224.158 427.131H228.192V425.131H224.158V427.131ZM232.227 427.131H236.261V425.131H232.227V427.131ZM240.295 427.131H244.33V425.131H240.295V427.131ZM248.364 427.131H252.399V425.131H248.364V427.131ZM256.433 427.131H260.467V425.131H256.433V427.131ZM264.502 427.131H268.536V425.131H264.502V427.131ZM272.57 427.131H276.605V425.131H272.57V427.131ZM280.639 427.131H284.674V425.131H280.639V427.131ZM288.708 427.131H292.742V425.131H288.708V427.131ZM296.777 427.131H300.811V425.131H296.777V427.131ZM304.845 427.131H308.88V425.131H304.845V427.131ZM312.914 427.131H316.948V425.131H312.914V427.131ZM320.983 427.131H323V425.131H320.983V427.131ZM324 426.131V424.227H322V426.131H324ZM324 420.419V416.611H322V420.419H324ZM324 412.803V408.995H322V412.803H324ZM324 405.187V401.38H322V405.187H324Z" fill="#666666"/>
<path fill-rule="evenodd" clip-rule="evenodd" d="M342 322.131C341.449 322.131 341 321.682 341 321.131C341 320.579 341.449 320.131 342 320.131C342.551 320.131 343 320.579 343 321.131C343 321.682 342.551 322.131 342 322.131Z" fill="#CACAFB"/>
<path fill-rule="evenodd" clip-rule="evenodd" d="M306 394.131C305.449 394.131 305 393.682 305 393.131C305 392.579 305.449 392.131 306 392.131C306.551 392.131 307 392.579 307 393.131C307 393.682 306.551 394.131 306 394.131Z" fill="#CACAFB"/>
<path fill-rule="evenodd" clip-rule="evenodd" d="M296 330.131C295.449 330.131 295 329.682 295 329.131C295 328.579 295.449 328.131 296 328.131C296.551 328.131 297 328.579 297 329.131C297 329.682 296.551 330.131 296 330.131Z" fill="#CACAFB"/>
<path d="M325 330.131C325.552 330.131 326 330.579 326 331.131C326 331.683 325.552 332.131 325 332.131C318.373 332.131 313 337.503 313 344.131C313 350.758 318.373 356.131 325 356.131C331.627 356.131 337 350.758 337 344.131C337 342.108 336.5 340.159 335.557 338.421C335.294 337.935 335.474 337.328 335.96 337.065C336.445 336.802 337.052 336.982 337.315 337.467C338.415 339.497 339 341.773 339 344.131C339 351.863 332.732 358.131 325 358.131C317.268 358.131 311 351.863 311 344.131C311 336.399 317.268 330.131 325 330.131Z" fill="#E1000F"/>
<path fill-rule="evenodd" clip-rule="evenodd" d="M317.917 344.822L318.002 344.754L328.601 337.227C329.326 336.713 330.312 337.329 330.167 338.206L328.048 351.032C327.904 351.906 326.778 352.175 326.254 351.46L323.31 347.437L318.404 346.554C317.568 346.404 317.302 345.36 317.917 344.822ZM326.463 348.357L327.802 340.248L321.101 345.007L323.391 345.419L324.092 344.297C324.385 343.829 325.002 343.686 325.47 343.979C325.905 344.251 326.059 344.802 325.844 345.254L325.788 345.357L325.087 346.478L326.463 348.357Z" fill="#E1000F"/>
<path d="M351 383.131C351.552 383.131 352 383.579 352 384.131C352 384.644 351.614 385.066 351.117 385.124L351 385.131H343C342.448 385.131 342 384.683 342 384.131C342 383.618 342.386 383.195 342.883 383.138L343 383.131H351Z" fill="#000091"/>
<path d="M316.067 363.241C316.476 362.87 317.108 362.9 317.48 363.308C317.823 363.686 317.823 364.253 317.5 364.631L317.412 364.721L293.673 384.871C293.264 385.242 292.632 385.212 292.26 384.804C291.917 384.426 291.916 383.858 292.24 383.481L292.327 383.391L316.067 363.241Z" fill="#000091"/>
<path d="M355 343.131C355.513 343.131 355.936 343.517 355.993 344.014L356 344.131V380.131C356 380.683 355.552 381.131 355 381.131C354.487 381.131 354.064 380.745 354.007 380.247L354 380.131V345.131H343C342.487 345.131 342.064 344.745 342.007 344.247L342 344.131C342 343.618 342.386 343.195 342.883 343.138L343 343.131H355Z" fill="#000091"/>
<path d="M307 343.131C307.552 343.131 308 343.579 308 344.131C308 344.644 307.614 345.066 307.117 345.124L307 345.131H294V383.131H331C331.513 383.131 331.936 383.517 331.993 384.014L332 384.131C332 384.644 331.614 385.066 331.117 385.124L331 385.131H293C292.487 385.131 292.064 384.745 292.007 384.247L292 384.131V344.131C292 343.618 292.386 343.195 292.883 343.138L293 343.131H307Z" fill="#000091"/>
<path d="M354 384.131C354 383.579 354.448 383.131 355 383.131C355.552 383.131 356 383.579 356 384.131C356 384.683 355.552 385.131 355 385.131C354.448 385.131 354 384.683 354 384.131Z" fill="#000091"/>
<path d="M354.345 343.375C354.762 343.013 355.394 343.059 355.756 343.476C356.09 343.861 356.077 344.429 355.745 344.799L355.655 344.887L325.655 370.887C325.322 371.176 324.843 371.209 324.476 370.983L324.369 370.907L292.369 344.907C291.941 344.559 291.876 343.929 292.224 343.5C292.545 343.105 293.107 343.019 293.528 343.282L293.631 343.355L324.979 368.825L354.345 343.375Z" fill="#000091"/>
<path d="M333.664 363.383C333.252 363.017 332.62 363.054 332.253 363.466C331.914 363.848 331.92 364.415 332.247 364.789L332.336 364.878L350.336 380.878C350.748 381.245 351.381 381.208 351.747 380.795C352.086 380.414 352.08 379.846 351.753 379.473L351.664 379.383L333.664 363.383Z" fill="#000091"/>
<path d="M207 80.1309L212.774 70.1309L201.226 70.1309L207 80.1309ZM206 44.1309L206 71.1309L208 71.1309L208 44.1309L206 44.1309Z" fill="#000091"/>
<path d="M207 128.131L207 151.631" stroke="#000091" stroke-width="2"/>
<path d="M89 323.131L94.7735 313.131L83.2265 313.131L89 323.131ZM88 299.131L88 314.131L90 314.131L90 299.131L88 299.131Z" fill="#000091"/>
<path d="M323 323.131L328.774 313.131L317.226 313.131L323 323.131ZM322 299.131L322 314.131L324 314.131L324 299.131L322 299.131Z" fill="#000091"/>
<path d="M23.971 250.203V239.931H21.699V250.315C21.699 251.467 21.171 251.899 20.163 251.899C19.939 251.899 19.747 251.883 19.587 251.851V253.851C19.811 253.915 20.115 253.915 20.483 253.915C22.819 253.915 23.971 252.683 23.971 250.203ZM34.1556 249.819L32.6996 248.667C32.2676 249.243 31.4996 249.627 30.6196 249.627C29.3556 249.627 28.4276 249.019 28.2356 247.515H33.8836C33.9476 247.243 34.0116 246.827 34.0116 246.379C34.0116 244.267 32.5396 242.747 30.2996 242.747C27.6596 242.747 26.1556 244.715 26.1556 247.099C26.1556 249.451 27.7716 251.451 30.6356 251.451C32.1556 251.451 33.4036 250.827 34.1556 249.819ZM30.2516 244.411C31.3876 244.411 31.9796 245.227 32.0116 246.043H28.2996C28.5236 244.987 29.2116 244.411 30.2516 244.411ZM40.3098 251.131H42.3418V245.867C42.6458 245.355 43.1258 244.667 44.0538 244.667C44.9658 244.667 45.4938 245.275 45.4938 246.251V251.131H47.5417V246.171C47.5417 246.043 47.5417 245.931 47.5258 245.819C47.8458 245.275 48.3258 244.667 49.2058 244.667C50.1178 244.667 50.6458 245.275 50.6458 246.251V251.131H52.6938V246.171C52.6938 243.899 51.3818 242.747 49.7178 242.747C48.3578 242.747 47.5898 243.355 47.0138 244.059C46.4858 243.195 45.5898 242.747 44.5658 242.747C43.5738 242.747 42.8858 243.147 42.3418 243.675V243.067H40.3098V251.131ZM62.4369 249.819L60.9809 248.667C60.5489 249.243 59.7809 249.627 58.9009 249.627C57.6369 249.627 56.7089 249.019 56.5169 247.515H62.1649C62.2289 247.243 62.2929 246.827 62.2929 246.379C62.2929 244.267 60.8209 242.747 58.5809 242.747C55.9409 242.747 54.4369 244.715 54.4369 247.099C54.4369 249.451 56.0529 251.451 58.9169 251.451C60.4369 251.451 61.6849 250.827 62.4369 249.819ZM58.5329 244.411C59.6689 244.411 60.2609 245.227 60.2929 246.043H56.5809C56.8049 244.987 57.4929 244.411 58.5329 244.411ZM72.463 249.531C71.103 249.531 70.127 248.523 70.127 247.099C70.127 245.691 71.103 244.667 72.431 244.667C73.263 244.667 73.903 245.035 74.287 245.595L75.871 244.379C75.119 243.387 73.935 242.747 72.463 242.747C69.679 242.747 68.015 244.747 68.015 247.099C68.015 249.451 69.679 251.451 72.463 251.451C73.935 251.451 75.119 250.811 75.871 249.819L74.287 248.603C73.903 249.163 73.263 249.531 72.463 249.531ZM80.9154 242.747C78.2914 242.747 76.4994 244.683 76.4994 247.099C76.4994 249.515 78.2914 251.451 80.9154 251.451C83.5394 251.451 85.3314 249.515 85.3314 247.099C85.3314 244.683 83.5394 242.747 80.9154 242.747ZM80.9474 249.531C79.6034 249.531 78.6114 248.507 78.6114 247.099C78.6114 245.691 79.6034 244.667 80.9474 244.667C82.2434 244.667 83.2194 245.691 83.2194 247.099C83.2194 248.491 82.2434 249.531 80.9474 249.531ZM87.1848 251.131H89.2168V245.867C89.5208 245.355 90.0648 244.667 91.0888 244.667C92.0808 244.667 92.6888 245.339 92.6888 246.411V251.131H94.7368V246.331C94.7368 243.947 93.3448 242.747 91.6008 242.747C90.5288 242.747 89.7768 243.163 89.2168 243.707V243.067H87.1848V251.131ZM97.0441 251.131H99.0761V245.867C99.3801 245.355 99.9241 244.667 100.948 244.667C101.94 244.667 102.548 245.339 102.548 246.411V251.131H104.596V246.331C104.596 243.947 103.204 242.747 101.46 242.747C100.388 242.747 99.6361 243.163 99.0761 243.707V243.067H97.0441V251.131ZM114.328 249.819L112.872 248.667C112.44 249.243 111.672 249.627 110.792 249.627C109.528 249.627 108.6 249.019 108.408 247.515H114.056C114.12 247.243 114.184 246.827 114.184 246.379C114.184 244.267 112.712 242.747 110.472 242.747C107.832 242.747 106.328 244.715 106.328 247.099C106.328 249.451 107.944 251.451 110.808 251.451C112.328 251.451 113.576 250.827 114.328 249.819ZM110.424 244.411C111.56 244.411 112.152 245.227 112.184 246.043H108.472C108.696 244.987 109.384 244.411 110.424 244.411ZM119.979 249.531C118.619 249.531 117.643 248.523 117.643 247.099C117.643 245.691 118.619 244.667 119.947 244.667C120.779 244.667 121.419 245.035 121.803 245.595L123.387 244.379C122.635 243.387 121.451 242.747 119.979 242.747C117.195 242.747 115.531 244.747 115.531 247.099C115.531 249.451 117.195 251.451 119.979 251.451C121.451 251.451 122.635 250.811 123.387 249.819L121.803 248.603C121.419 249.163 120.779 249.531 119.979 249.531ZM125.494 248.187C125.494 250.155 126.454 251.291 128.47 251.291C129.142 251.291 129.622 251.211 130.022 251.035V249.259C129.75 249.371 129.382 249.435 128.822 249.435C128.022 249.435 127.542 249.083 127.542 248.187V244.891H130.006V243.067H127.542V241.051H125.494V243.067H123.99V244.891H125.494V248.187ZM139.093 249.819L137.637 248.667C137.205 249.243 136.437 249.627 135.557 249.627C134.293 249.627 133.365 249.019 133.173 247.515H138.821C138.885 247.243 138.949 246.827 138.949 246.379C138.949 244.267 137.477 242.747 135.237 242.747C132.597 242.747 131.093 244.715 131.093 247.099C131.093 249.451 132.709 251.451 135.573 251.451C137.093 251.451 138.341 250.827 139.093 249.819ZM135.189 244.411C136.325 244.411 136.917 245.227 136.949 246.043H133.237C133.461 244.987 134.149 244.411 135.189 244.411ZM152.671 249.819L151.215 248.667C150.783 249.243 150.015 249.627 149.135 249.627C147.871 249.627 146.943 249.019 146.751 247.515H152.399C152.463 247.243 152.527 246.827 152.527 246.379C152.527 244.267 151.055 242.747 148.815 242.747C146.175 242.747 144.671 244.715 144.671 247.099C144.671 249.451 146.287 251.451 149.151 251.451C150.671 251.451 151.919 250.827 152.671 249.819ZM148.767 244.411C149.903 244.411 150.495 245.227 150.527 246.043H146.815C147.039 244.987 147.727 244.411 148.767 244.411ZM155.009 248.187C155.009 250.155 155.969 251.291 157.985 251.291C158.657 251.291 159.137 251.211 159.537 251.035V249.259C159.265 249.371 158.897 249.435 158.337 249.435C157.537 249.435 157.057 249.083 157.057 248.187V244.891H159.521V243.067H157.057V241.051H155.009V243.067H153.505V244.891H155.009V248.187ZM50.1521 269.371C51.0961 269.371 52.0561 268.971 52.5681 268.347V269.131H54.6001V263.915C54.6001 262.139 53.4001 260.747 51.0641 260.747C49.5921 260.747 48.4081 261.355 47.6881 262.347L49.1761 263.483C49.6081 262.891 50.2161 262.523 51.0001 262.523C51.9281 262.523 52.5681 263.067 52.5681 263.915V264.123L50.1041 264.539C48.3761 264.827 47.4321 265.739 47.4321 266.955C47.4321 268.443 48.5361 269.371 50.1521 269.371ZM49.4481 266.859C49.4481 266.363 49.8001 266.011 50.6481 265.867L52.5681 265.547V266.683C52.1681 267.323 51.4961 267.755 50.5681 267.755C49.8801 267.755 49.4481 267.403 49.4481 266.859ZM60.7989 267.531C59.4389 267.531 58.4629 266.523 58.4629 265.099C58.4629 263.691 59.4389 262.667 60.7669 262.667C61.5989 262.667 62.2389 263.035 62.6229 263.595L64.2069 262.379C63.4549 261.387 62.2709 260.747 60.7989 260.747C58.0149 260.747 56.3509 262.747 56.3509 265.099C56.3509 267.451 58.0149 269.451 60.7989 269.451C62.2709 269.451 63.4549 268.811 64.2069 267.819L62.6229 266.603C62.2389 267.163 61.5989 267.531 60.7989 267.531ZM69.2833 267.531C67.9233 267.531 66.9473 266.523 66.9473 265.099C66.9473 263.691 67.9233 262.667 69.2513 262.667C70.0833 262.667 70.7233 263.035 71.1073 263.595L72.6913 262.379C71.9393 261.387 70.7553 260.747 69.2833 260.747C66.4993 260.747 64.8353 262.747 64.8353 265.099C64.8353 267.451 66.4993 269.451 69.2833 269.451C70.7553 269.451 71.9393 268.811 72.6913 267.819L71.1073 266.603C70.7233 267.163 70.0833 267.531 69.2833 267.531ZM76.4717 259.787H78.4077L76.7597 257.131H74.5517L76.4717 259.787ZM81.3197 267.819L79.8637 266.667C79.4317 267.243 78.6637 267.627 77.7837 267.627C76.5197 267.627 75.5917 267.019 75.3997 265.515H81.0477C81.1117 265.243 81.1757 264.827 81.1757 264.379C81.1757 262.267 79.7037 260.747 77.4637 260.747C74.8237 260.747 73.3197 262.715 73.3197 265.099C73.3197 267.451 74.9357 269.451 77.7997 269.451C79.3197 269.451 80.5677 268.827 81.3197 267.819ZM77.4157 262.411C78.5517 262.411 79.1437 263.227 79.1757 264.043H75.4637C75.6877 262.987 76.3757 262.411 77.4157 262.411ZM82.5228 265.099C82.5228 267.451 84.0748 269.451 86.6188 269.451C87.7068 269.451 88.4908 269.115 89.1148 268.491V269.131H91.1628V257.131H89.1148V261.707C88.4908 261.083 87.7068 260.747 86.6188 260.747C84.0748 260.747 82.5228 262.747 82.5228 265.099ZM84.6508 265.099C84.6508 263.691 85.5308 262.667 86.9068 262.667C87.8188 262.667 88.5708 263.051 89.1148 263.787V266.411C88.5708 267.147 87.8188 267.531 86.9068 267.531C85.5308 267.531 84.6508 266.507 84.6508 265.099ZM101.023 267.819L99.5668 266.667C99.1348 267.243 98.3668 267.627 97.4868 267.627C96.2228 267.627 95.2948 267.019 95.1028 265.515H100.751C100.815 265.243 100.879 264.827 100.879 264.379C100.879 262.267 99.4068 260.747 97.1668 260.747C94.5268 260.747 93.0228 262.715 93.0228 265.099C93.0228 267.451 94.6388 269.451 97.5028 269.451C99.0228 269.451 100.271 268.827 101.023 267.819ZM97.1188 262.411C98.2548 262.411 98.8468 263.227 98.8788 264.043H95.1668C95.3908 262.987 96.0788 262.411 97.1188 262.411ZM109.449 269.371C110.393 269.371 111.353 268.971 111.865 268.347V269.131H113.897V263.915C113.897 262.139 112.697 260.747 110.361 260.747C108.889 260.747 107.705 261.355 106.985 262.347L108.473 263.483C108.905 262.891 109.513 262.523 110.297 262.523C111.225 262.523 111.865 263.067 111.865 263.915V264.123L109.401 264.539C107.673 264.827 106.729 265.739 106.729 266.955C106.729 268.443 107.833 269.371 109.449 269.371ZM108.745 266.859C108.745 266.363 109.097 266.011 109.945 265.867L111.865 265.547V266.683C111.465 267.323 110.793 267.755 109.865 267.755C109.177 267.755 108.745 267.403 108.745 266.859ZM121.536 265.643C121.536 266.811 120.928 267.531 119.824 267.531C118.704 267.531 118.096 266.811 118.096 265.643V261.067H116.048V265.547C116.048 267.963 117.44 269.451 119.808 269.451C122.176 269.451 123.584 267.963 123.584 265.547V261.067H121.536V265.643ZM127.055 269.131L128.863 266.427L130.687 269.131H133.007L130.159 264.987L132.863 261.067H130.527L128.863 263.547L127.199 261.067H124.879L127.567 264.987L124.719 269.131H127.055ZM53.5568 285.531C52.1968 285.531 51.2208 284.523 51.2208 283.099C51.2208 281.691 52.1968 280.667 53.5248 280.667C54.3568 280.667 54.9968 281.035 55.3808 281.595L56.9648 280.379C56.2128 279.387 55.0288 278.747 53.5568 278.747C50.7728 278.747 49.1088 280.747 49.1088 283.099C49.1088 285.451 50.7728 287.451 53.5568 287.451C55.0288 287.451 56.2128 286.811 56.9648 285.819L55.3808 284.603C54.9968 285.163 54.3568 285.531 53.5568 285.531ZM60.613 287.371C61.557 287.371 62.517 286.971 63.029 286.347V287.131H65.061V281.915C65.061 280.139 63.861 278.747 61.525 278.747C60.053 278.747 58.869 279.355 58.149 280.347L59.637 281.483C60.069 280.891 60.677 280.523 61.461 280.523C62.389 280.523 63.029 281.067 63.029 281.915V282.123L60.565 282.539C58.837 282.827 57.893 283.739 57.893 284.955C57.893 286.443 58.997 287.371 60.613 287.371ZM59.909 284.859C59.909 284.363 60.261 284.011 61.109 283.867L63.029 283.547V284.683C62.629 285.323 61.957 285.755 61.029 285.755C60.341 285.755 59.909 285.403 59.909 284.859ZM67.8999 284.187C67.8999 286.155 68.8599 287.291 70.8759 287.291C71.5479 287.291 72.0279 287.211 72.4279 287.035V285.259C72.1559 285.371 71.7879 285.435 71.2279 285.435C70.4279 285.435 69.9479 285.083 69.9479 284.187V280.891H72.4119V279.067H69.9479V277.051H67.8999V279.067H66.3959V280.891H67.8999V284.187ZM76.5036 287.371C77.4476 287.371 78.4076 286.971 78.9196 286.347V287.131H80.9516V281.915C80.9516 280.139 79.7516 278.747 77.4156 278.747C75.9436 278.747 74.7596 279.355 74.0396 280.347L75.5276 281.483C75.9596 280.891 76.5676 280.523 77.3516 280.523C78.2796 280.523 78.9196 281.067 78.9196 281.915V282.123L76.4556 282.539C74.7276 282.827 73.7836 283.739 73.7836 284.955C73.7836 286.443 74.8876 287.371 76.5036 287.371ZM75.7996 284.859C75.7996 284.363 76.1516 284.011 76.9996 283.867L78.9196 283.547V284.683C78.5196 285.323 77.8476 285.755 76.9196 285.755C76.2316 285.755 75.7996 285.403 75.7996 284.859ZM83.2785 287.131H85.3105V275.131H83.2785V287.131ZM91.5873 278.747C88.9633 278.747 87.1713 280.683 87.1713 283.099C87.1713 285.515 88.9633 287.451 91.5873 287.451C94.2113 287.451 96.0033 285.515 96.0033 283.099C96.0033 280.683 94.2113 278.747 91.5873 278.747ZM91.6193 285.531C90.2753 285.531 89.2833 284.507 89.2833 283.099C89.2833 281.691 90.2753 280.667 91.6193 280.667C92.9153 280.667 93.8913 281.691 93.8913 283.099C93.8913 284.491 92.9153 285.531 91.6193 285.531ZM96.9473 288.539C96.9473 290.235 98.4673 291.131 101.043 291.131C103.555 291.131 105.267 289.755 105.267 287.963C105.267 286.459 104.163 285.371 102.131 285.371H100.099C99.7313 285.371 99.5553 285.211 99.5553 284.891C99.5553 284.715 99.6513 284.539 99.8273 284.379C100.067 284.427 100.323 284.443 100.595 284.443C102.675 284.443 103.859 283.163 103.859 281.579C103.859 281.307 103.827 281.051 103.747 280.795H105.171V279.067H102.227C101.763 278.859 101.219 278.747 100.595 278.747C98.5793 278.747 97.3633 280.011 97.3633 281.579C97.3633 282.475 97.7473 283.275 98.4513 283.803C97.8433 284.251 97.5713 284.763 97.5713 285.403C97.5713 285.819 97.7473 286.251 98.0673 286.571C97.3473 287.099 96.9473 287.739 96.9473 288.539ZM100.627 282.907C99.7473 282.907 99.2193 282.379 99.2193 281.579C99.2193 280.795 99.7473 280.267 100.627 280.267C101.475 280.267 102.019 280.779 102.019 281.579C102.019 282.379 101.475 282.907 100.627 282.907ZM98.8673 288.251C98.8673 287.755 99.1073 287.403 99.4113 287.115H101.907C102.883 287.115 103.251 287.547 103.251 288.155C103.251 288.955 102.499 289.499 101.027 289.499C99.6033 289.499 98.8673 289.019 98.8673 288.251ZM111.981 283.643C111.981 284.811 111.373 285.531 110.269 285.531C109.149 285.531 108.541 284.811 108.541 283.643V279.067H106.493V283.547C106.493 285.963 107.885 287.451 110.253 287.451C112.621 287.451 114.029 285.963 114.029 283.547V279.067H111.981V283.643ZM123.703 285.819L122.247 284.667C121.815 285.243 121.047 285.627 120.167 285.627C118.903 285.627 117.975 285.019 117.783 283.515H123.431C123.495 283.243 123.559 282.827 123.559 282.379C123.559 280.267 122.087 278.747 119.847 278.747C117.207 278.747 115.703 280.715 115.703 283.099C115.703 285.451 117.319 287.451 120.183 287.451C121.703 287.451 122.951 286.827 123.703 285.819ZM119.799 280.411C120.935 280.411 121.527 281.227 121.559 282.043H117.847C118.071 280.987 118.759 280.411 119.799 280.411ZM124.731 285.963C125.499 286.875 126.523 287.451 127.963 287.451C129.483 287.451 130.843 286.523 130.875 284.827C130.875 282.043 127.019 282.523 127.019 281.147C127.019 280.731 127.323 280.379 127.963 280.379C128.587 280.379 129.115 280.795 129.531 281.307L130.875 280.123C130.299 279.339 129.179 278.747 127.947 278.747C126.267 278.747 125.067 279.819 125.067 281.243C125.067 284.075 128.923 283.547 128.923 284.955C128.923 285.435 128.587 285.819 127.931 285.819C127.163 285.819 126.571 285.371 126.075 284.747L124.731 285.963Z" fill="black"/>
<rect x="1" y="226.131" width="178" height="72" stroke="#000091" stroke-width="2"/>
<path d="M249.909 250.203V239.931H247.637V250.315C247.637 251.467 247.109 251.899 246.101 251.899C245.877 251.899 245.684 251.883 245.524 251.851V253.851C245.748 253.915 246.053 253.915 246.421 253.915C248.757 253.915 249.909 252.683 249.909 250.203ZM260.093 249.819L258.637 248.667C258.205 249.243 257.437 249.627 256.557 249.627C255.293 249.627 254.365 249.019 254.173 247.515H259.821C259.885 247.243 259.949 246.827 259.949 246.379C259.949 244.267 258.477 242.747 256.237 242.747C253.597 242.747 252.093 244.715 252.093 247.099C252.093 249.451 253.709 251.451 256.573 251.451C258.093 251.451 259.341 250.827 260.093 249.819ZM256.189 244.411C257.325 244.411 257.917 245.227 257.949 246.043H254.237C254.461 244.987 255.149 244.411 256.189 244.411ZM265.255 243.067V244.891H266.759V251.131H268.807V244.891H271.271V243.067H268.807V242.171C268.807 241.435 269.255 240.955 269.943 240.955C270.359 240.955 270.679 241.099 270.919 241.275L271.783 239.579C271.271 239.307 270.647 239.131 269.911 239.131C267.895 239.131 266.759 240.507 266.759 242.219V243.067H265.255ZM274.457 251.371C275.401 251.371 276.361 250.971 276.873 250.347V251.131H278.905V245.915C278.905 244.139 277.705 242.747 275.369 242.747C273.897 242.747 272.713 243.355 271.993 244.347L273.481 245.483C273.913 244.891 274.521 244.523 275.305 244.523C276.233 244.523 276.873 245.067 276.873 245.915V246.123L274.409 246.539C272.681 246.827 271.737 247.739 271.737 248.955C271.737 250.443 272.841 251.371 274.457 251.371ZM273.753 248.859C273.753 248.363 274.105 248.011 274.953 247.867L276.873 247.547V248.683C276.473 249.323 275.801 249.755 274.873 249.755C274.185 249.755 273.753 249.403 273.753 248.859ZM282.256 241.659C282.976 241.659 283.568 241.051 283.568 240.331C283.568 239.611 282.976 239.003 282.256 239.003C281.536 239.003 280.928 239.611 280.928 240.331C280.928 241.051 281.536 241.659 282.256 241.659ZM281.232 251.131H283.264V243.067H281.232V251.131ZM284.887 249.963C285.655 250.875 286.679 251.451 288.119 251.451C289.639 251.451 290.999 250.523 291.031 248.827C291.031 246.043 287.175 246.523 287.175 245.147C287.175 244.731 287.479 244.379 288.119 244.379C288.743 244.379 289.271 244.795 289.687 245.307L291.031 244.123C290.455 243.339 289.335 242.747 288.103 242.747C286.423 242.747 285.223 243.819 285.223 245.243C285.223 248.075 289.079 247.547 289.079 248.955C289.079 249.435 288.743 249.819 288.087 249.819C287.319 249.819 286.727 249.371 286.231 248.747L284.887 249.963ZM302.528 247.643C302.528 248.811 301.92 249.531 300.816 249.531C299.696 249.531 299.088 248.811 299.088 247.643V243.067H297.04V247.547C297.04 249.963 298.432 251.451 300.8 251.451C303.168 251.451 304.576 249.963 304.576 247.547V243.067H302.528V247.643ZM306.825 251.131H308.857V245.867C309.161 245.355 309.705 244.667 310.729 244.667C311.721 244.667 312.329 245.339 312.329 246.411V251.131H314.377V246.331C314.377 243.947 312.985 242.747 311.241 242.747C310.169 242.747 309.417 243.163 308.857 243.707V243.067H306.825V251.131ZM324.109 249.819L322.653 248.667C322.221 249.243 321.453 249.627 320.573 249.627C319.309 249.627 318.381 249.019 318.189 247.515H323.837C323.901 247.243 323.965 246.827 323.965 246.379C323.965 244.267 322.493 242.747 320.253 242.747C317.613 242.747 316.109 244.715 316.109 247.099C316.109 249.451 317.725 251.451 320.589 251.451C322.109 251.451 323.357 250.827 324.109 249.819ZM320.205 244.411C321.341 244.411 321.933 245.227 321.965 246.043H318.253C318.477 244.987 319.165 244.411 320.205 244.411ZM329.687 247.099C329.687 249.451 331.239 251.451 333.783 251.451C334.871 251.451 335.655 251.115 336.279 250.491V251.131H338.327V239.131H336.279V243.707C335.655 243.083 334.871 242.747 333.783 242.747C331.239 242.747 329.687 244.747 329.687 247.099ZM331.815 247.099C331.815 245.691 332.695 244.667 334.071 244.667C334.983 244.667 335.735 245.051 336.279 245.787V248.411C335.735 249.147 334.983 249.531 334.071 249.531C332.695 249.531 331.815 248.507 331.815 247.099ZM348.187 249.819L346.731 248.667C346.299 249.243 345.531 249.627 344.651 249.627C343.387 249.627 342.459 249.019 342.267 247.515H347.915C347.979 247.243 348.043 246.827 348.043 246.379C348.043 244.267 346.571 242.747 344.331 242.747C341.691 242.747 340.187 244.715 340.187 247.099C340.187 249.451 341.803 251.451 344.667 251.451C346.187 251.451 347.435 250.827 348.187 249.819ZM344.283 244.411C345.419 244.411 346.011 245.227 346.043 246.043H342.331C342.555 244.987 343.243 244.411 344.283 244.411ZM350.029 251.131H352.061V245.867C352.365 245.355 352.845 244.667 353.773 244.667C354.685 244.667 355.213 245.275 355.213 246.251V251.131H357.26V246.171C357.26 246.043 357.26 245.931 357.245 245.819C357.565 245.275 358.045 244.667 358.925 244.667C359.837 244.667 360.365 245.275 360.365 246.251V251.131H362.413V246.171C362.413 243.899 361.101 242.747 359.437 242.747C358.077 242.747 357.309 243.355 356.733 244.059C356.205 243.195 355.309 242.747 354.285 242.747C353.293 242.747 352.605 243.147 352.061 243.675V243.067H350.029V251.131ZM367.004 251.371C367.948 251.371 368.908 250.971 369.42 250.347V251.131H371.452V245.915C371.452 244.139 370.252 242.747 367.916 242.747C366.444 242.747 365.26 243.355 364.54 244.347L366.028 245.483C366.46 244.891 367.068 244.523 367.852 244.523C368.78 244.523 369.42 245.067 369.42 245.915V246.123L366.956 246.539C365.228 246.827 364.284 247.739 364.284 248.955C364.284 250.443 365.388 251.371 367.004 251.371ZM366.3 248.859C366.3 248.363 366.652 248.011 367.5 247.867L369.42 247.547V248.683C369.02 249.323 368.348 249.755 367.42 249.755C366.732 249.755 366.3 249.403 366.3 248.859ZM373.779 251.131H375.811V245.867C376.115 245.355 376.659 244.667 377.683 244.667C378.675 244.667 379.283 245.339 379.283 246.411V251.131H381.331V246.331C381.331 243.947 379.939 242.747 378.195 242.747C377.123 242.747 376.371 243.163 375.811 243.707V243.067H373.779V251.131ZM383.062 247.099C383.062 249.451 384.614 251.451 387.158 251.451C388.246 251.451 389.03 251.115 389.654 250.491V251.131H391.702V239.131H389.654V243.707C389.03 243.083 388.246 242.747 387.158 242.747C384.614 242.747 383.062 244.747 383.062 247.099ZM385.19 247.099C385.19 245.691 386.07 244.667 387.446 244.667C388.358 244.667 389.11 245.051 389.654 245.787V248.411C389.11 249.147 388.358 249.531 387.446 249.531C386.07 249.531 385.19 248.507 385.19 247.099ZM401.562 249.819L400.106 248.667C399.674 249.243 398.906 249.627 398.026 249.627C396.762 249.627 395.834 249.019 395.642 247.515H401.29C401.354 247.243 401.418 246.827 401.418 246.379C401.418 244.267 399.946 242.747 397.706 242.747C395.066 242.747 393.562 244.715 393.562 247.099C393.562 249.451 395.178 251.451 398.042 251.451C399.562 251.451 400.81 250.827 401.562 249.819ZM397.658 244.411C398.794 244.411 399.386 245.227 399.418 246.043H395.706C395.93 244.987 396.618 244.411 397.658 244.411ZM246.476 265.099C246.476 267.451 248.028 269.451 250.572 269.451C251.66 269.451 252.444 269.115 253.068 268.491V269.131H255.116V257.131H253.068V261.707C252.444 261.083 251.66 260.747 250.572 260.747C248.028 260.747 246.476 262.747 246.476 265.099ZM248.604 265.099C248.604 263.691 249.484 262.667 250.86 262.667C251.772 262.667 252.524 263.051 253.068 263.787V266.411C252.524 267.147 251.772 267.531 250.86 267.531C249.484 267.531 248.604 266.507 248.604 265.099ZM258.637 262.539L260.493 257.931H258.189L256.749 262.539H258.637ZM268.617 267.819L267.161 266.667C266.729 267.243 265.961 267.627 265.081 267.627C263.817 267.627 262.889 267.019 262.697 265.515H268.345C268.409 265.243 268.473 264.827 268.473 264.379C268.473 262.267 267.001 260.747 264.761 260.747C262.121 260.747 260.617 262.715 260.617 265.099C260.617 267.451 262.233 269.451 265.097 269.451C266.617 269.451 267.865 268.827 268.617 267.819ZM264.713 262.411C265.849 262.411 266.441 263.227 266.473 264.043H262.761C262.985 262.987 263.673 262.411 264.713 262.411ZM270.458 269.131H272.49V263.867C272.794 263.355 273.338 262.667 274.362 262.667C275.354 262.667 275.962 263.339 275.962 264.411V269.131H278.01V264.331C278.01 261.947 276.618 260.747 274.874 260.747C273.802 260.747 273.05 261.163 272.49 261.707V261.067H270.458V269.131ZM280.318 269.131H282.35V263.963C282.654 263.451 283.294 262.907 284.286 262.907C284.654 262.907 284.926 262.955 285.182 263.019V261.019C284.99 260.955 284.75 260.907 284.478 260.907C283.566 260.907 282.878 261.323 282.35 261.867V261.067H280.318V269.131ZM293.898 267.819L292.442 266.667C292.01 267.243 291.242 267.627 290.362 267.627C289.098 267.627 288.17 267.019 287.978 265.515H293.626C293.69 265.243 293.754 264.827 293.754 264.379C293.754 262.267 292.282 260.747 290.042 260.747C287.402 260.747 285.898 262.715 285.898 265.099C285.898 267.451 287.514 269.451 290.378 269.451C291.898 269.451 293.146 268.827 293.898 267.819ZM289.994 262.411C291.13 262.411 291.722 263.227 291.754 264.043H288.042C288.266 262.987 288.954 262.411 289.994 262.411ZM294.877 270.539C294.877 272.235 296.397 273.131 298.973 273.131C301.485 273.131 303.197 271.755 303.197 269.963C303.197 268.459 302.093 267.371 300.061 267.371H298.029C297.661 267.371 297.485 267.211 297.485 266.891C297.485 266.715 297.581 266.539 297.757 266.379C297.997 266.427 298.253 266.443 298.525 266.443C300.605 266.443 301.789 265.163 301.789 263.579C301.789 263.307 301.757 263.051 301.677 262.795H303.101V261.067H300.157C299.693 260.859 299.149 260.747 298.525 260.747C296.509 260.747 295.293 262.011 295.293 263.579C295.293 264.475 295.677 265.275 296.381 265.803C295.773 266.251 295.501 266.763 295.501 267.403C295.501 267.819 295.677 268.251 295.997 268.571C295.277 269.099 294.877 269.739 294.877 270.539ZM298.557 264.907C297.677 264.907 297.149 264.379 297.149 263.579C297.149 262.795 297.677 262.267 298.557 262.267C299.405 262.267 299.949 262.779 299.949 263.579C299.949 264.379 299.405 264.907 298.557 264.907ZM296.797 270.251C296.797 269.755 297.037 269.403 297.341 269.115H299.837C300.813 269.115 301.181 269.547 301.181 270.155C301.181 270.955 300.429 271.499 298.957 271.499C297.533 271.499 296.797 271.019 296.797 270.251ZM305.592 259.659C306.312 259.659 306.904 259.051 306.904 258.331C306.904 257.611 306.312 257.003 305.592 257.003C304.872 257.003 304.264 257.611 304.264 258.331C304.264 259.051 304.872 259.659 305.592 259.659ZM304.568 269.131H306.6V261.067H304.568V269.131ZM308.223 267.963C308.991 268.875 310.015 269.451 311.455 269.451C312.975 269.451 314.335 268.523 314.367 266.827C314.367 264.043 310.511 264.523 310.511 263.147C310.511 262.731 310.815 262.379 311.455 262.379C312.079 262.379 312.607 262.795 313.023 263.307L314.367 262.123C313.791 261.339 312.671 260.747 311.439 260.747C309.759 260.747 308.559 261.819 308.559 263.243C308.559 266.075 312.415 265.547 312.415 266.955C312.415 267.435 312.079 267.819 311.423 267.819C310.655 267.819 310.063 267.371 309.567 266.747L308.223 267.963ZM316.876 266.187C316.876 268.155 317.836 269.291 319.852 269.291C320.524 269.291 321.004 269.211 321.404 269.035V267.259C321.132 267.371 320.764 267.435 320.204 267.435C319.404 267.435 318.924 267.083 318.924 266.187V262.891H321.388V261.067H318.924V259.051H316.876V261.067H315.372V262.891H316.876V266.187ZM323.208 269.131H325.24V263.963C325.544 263.451 326.184 262.907 327.176 262.907C327.544 262.907 327.816 262.955 328.072 263.019V261.019C327.88 260.955 327.64 260.907 327.368 260.907C326.456 260.907 325.768 261.323 325.24 261.867V261.067H323.208V269.131ZM336.788 267.819L335.332 266.667C334.9 267.243 334.132 267.627 333.252 267.627C331.988 267.627 331.06 267.019 330.868 265.515H336.516C336.58 265.243 336.644 264.827 336.644 264.379C336.644 262.267 335.172 260.747 332.932 260.747C330.292 260.747 328.788 262.715 328.788 265.099C328.788 267.451 330.404 269.451 333.268 269.451C334.788 269.451 336.036 268.827 336.788 267.819ZM332.884 262.411C334.02 262.411 334.612 263.227 334.644 264.043H330.932C331.156 262.987 331.844 262.411 332.884 262.411ZM338.63 269.131H340.662V263.867C340.966 263.355 341.446 262.667 342.374 262.667C343.286 262.667 343.814 263.275 343.814 264.251V269.131H345.862V264.171C345.862 264.043 345.862 263.931 345.846 263.819C346.166 263.275 346.646 262.667 347.526 262.667C348.438 262.667 348.966 263.275 348.966 264.251V269.131H351.014V264.171C351.014 261.899 349.702 260.747 348.038 260.747C346.678 260.747 345.91 261.355 345.334 262.059C344.806 261.195 343.91 260.747 342.886 260.747C341.894 260.747 341.206 261.147 340.662 261.675V261.067H338.63V269.131ZM360.757 267.819L359.301 266.667C358.869 267.243 358.101 267.627 357.221 267.627C355.957 267.627 355.029 267.019 354.837 265.515H360.485C360.549 265.243 360.613 264.827 360.613 264.379C360.613 262.267 359.141 260.747 356.901 260.747C354.261 260.747 352.757 262.715 352.757 265.099C352.757 267.451 354.373 269.451 357.237 269.451C358.757 269.451 360.005 268.827 360.757 267.819ZM356.853 262.411C357.989 262.411 358.581 263.227 358.613 264.043H354.901C355.125 262.987 355.813 262.411 356.853 262.411ZM362.599 269.131H364.631V263.867C364.935 263.355 365.479 262.667 366.503 262.667C367.495 262.667 368.103 263.339 368.103 264.411V269.131H370.151V264.331C370.151 261.947 368.759 260.747 367.015 260.747C365.943 260.747 365.191 261.163 364.631 261.707V261.067H362.599V269.131ZM372.97 266.187C372.97 268.155 373.93 269.291 375.946 269.291C376.618 269.291 377.098 269.211 377.498 269.035V267.259C377.226 267.371 376.858 267.435 376.298 267.435C375.498 267.435 375.018 267.083 375.018 266.187V262.891H377.482V261.067H375.018V259.051H372.97V261.067H371.466V262.891H372.97V266.187ZM383.038 265.099C383.038 267.451 384.59 269.451 387.134 269.451C388.222 269.451 389.006 269.115 389.63 268.491V269.131H391.678V257.131H389.63V261.707C389.006 261.083 388.222 260.747 387.134 260.747C384.59 260.747 383.038 262.747 383.038 265.099ZM385.166 265.099C385.166 263.691 386.046 262.667 387.422 262.667C388.334 262.667 389.086 263.051 389.63 263.787V266.411C389.086 267.147 388.334 267.531 387.422 267.531C386.046 267.531 385.166 266.507 385.166 265.099ZM401.538 267.819L400.082 266.667C399.65 267.243 398.882 267.627 398.002 267.627C396.738 267.627 395.81 267.019 395.618 265.515H401.266C401.33 265.243 401.394 264.827 401.394 264.379C401.394 262.267 399.922 260.747 397.682 260.747C395.042 260.747 393.538 262.715 393.538 265.099C393.538 267.451 395.154 269.451 398.018 269.451C399.538 269.451 400.786 268.827 401.538 267.819ZM397.634 262.411C398.77 262.411 399.362 263.227 399.394 264.043H395.682C395.906 262.987 396.594 262.411 397.634 262.411ZM257.763 287.131H259.795V281.867C260.099 281.355 260.579 280.667 261.507 280.667C262.419 280.667 262.947 281.275 262.947 282.251V287.131H264.995V282.171C264.995 282.043 264.995 281.931 264.979 281.819C265.299 281.275 265.779 280.667 266.659 280.667C267.571 280.667 268.099 281.275 268.099 282.251V287.131H270.147V282.171C270.147 279.899 268.835 278.747 267.171 278.747C265.811 278.747 265.043 279.355 264.467 280.059C263.939 279.195 263.043 278.747 262.019 278.747C261.027 278.747 260.339 279.147 259.795 279.675V279.067H257.763V287.131ZM276.306 278.747C273.682 278.747 271.89 280.683 271.89 283.099C271.89 285.515 273.682 287.451 276.306 287.451C278.93 287.451 280.722 285.515 280.722 283.099C280.722 280.683 278.93 278.747 276.306 278.747ZM276.338 285.531C274.994 285.531 274.002 284.507 274.002 283.099C274.002 281.691 274.994 280.667 276.338 280.667C277.634 280.667 278.61 281.691 278.61 283.099C278.61 284.491 277.634 285.531 276.338 285.531ZM282.575 287.131H284.607V281.867C284.911 281.355 285.455 280.667 286.479 280.667C287.471 280.667 288.079 281.339 288.079 282.411V287.131H290.127V282.331C290.127 279.947 288.735 278.747 286.991 278.747C285.919 278.747 285.167 279.163 284.607 279.707V279.067H282.575V287.131ZM300.587 278.747C297.963 278.747 296.171 280.683 296.171 283.099C296.171 285.515 297.963 287.451 300.587 287.451C303.211 287.451 305.003 285.515 305.003 283.099C305.003 280.683 303.211 278.747 300.587 278.747ZM300.619 285.531C299.275 285.531 298.283 284.507 298.283 283.099C298.283 281.691 299.275 280.667 300.619 280.667C301.915 280.667 302.891 281.691 302.891 283.099C302.891 284.491 301.915 285.531 300.619 285.531ZM306.857 287.131H308.889V281.963C309.193 281.451 309.833 280.907 310.825 280.907C311.193 280.907 311.465 280.955 311.721 281.019V279.019C311.529 278.955 311.289 278.907 311.017 278.907C310.105 278.907 309.417 279.323 308.889 279.867V279.067H306.857V287.131ZM312.4 288.539C312.4 290.235 313.92 291.131 316.496 291.131C319.008 291.131 320.72 289.755 320.72 287.963C320.72 286.459 319.616 285.371 317.584 285.371H315.552C315.184 285.371 315.008 285.211 315.008 284.891C315.008 284.715 315.104 284.539 315.28 284.379C315.52 284.427 315.776 284.443 316.048 284.443C318.128 284.443 319.312 283.163 319.312 281.579C319.312 281.307 319.28 281.051 319.2 280.795H320.624V279.067H317.68C317.216 278.859 316.672 278.747 316.048 278.747C314.032 278.747 312.816 280.011 312.816 281.579C312.816 282.475 313.2 283.275 313.904 283.803C313.296 284.251 313.024 284.763 313.024 285.403C313.024 285.819 313.2 286.251 313.52 286.571C312.8 287.099 312.4 287.739 312.4 288.539ZM316.08 282.907C315.2 282.907 314.672 282.379 314.672 281.579C314.672 280.795 315.2 280.267 316.08 280.267C316.928 280.267 317.472 280.779 317.472 281.579C317.472 282.379 316.928 282.907 316.08 282.907ZM314.32 288.251C314.32 287.755 314.56 287.403 314.864 287.115H317.36C318.336 287.115 318.704 287.547 318.704 288.155C318.704 288.955 317.952 289.499 316.48 289.499C315.056 289.499 314.32 289.019 314.32 288.251ZM324.097 287.371C325.041 287.371 326.001 286.971 326.513 286.347V287.131H328.545V281.915C328.545 280.139 327.345 278.747 325.009 278.747C323.537 278.747 322.353 279.355 321.633 280.347L323.121 281.483C323.553 280.891 324.161 280.523 324.945 280.523C325.873 280.523 326.513 281.067 326.513 281.915V282.123L324.049 282.539C322.321 282.827 321.377 283.739 321.377 284.955C321.377 286.443 322.481 287.371 324.097 287.371ZM323.393 284.859C323.393 284.363 323.745 284.011 324.593 283.867L326.513 283.547V284.683C326.113 285.323 325.441 285.755 324.513 285.755C323.825 285.755 323.393 285.403 323.393 284.859ZM330.872 287.131H332.904V281.867C333.208 281.355 333.752 280.667 334.776 280.667C335.768 280.667 336.376 281.339 336.376 282.411V287.131H338.424V282.331C338.424 279.947 337.032 278.747 335.288 278.747C334.216 278.747 333.464 279.163 332.904 279.707V279.067H330.872V287.131ZM341.756 277.659C342.476 277.659 343.068 277.051 343.068 276.331C343.068 275.611 342.476 275.003 341.756 275.003C341.036 275.003 340.428 275.611 340.428 276.331C340.428 277.051 341.036 277.659 341.756 277.659ZM340.732 287.131H342.764V279.067H340.732V287.131ZM344.387 285.963C345.155 286.875 346.179 287.451 347.619 287.451C349.139 287.451 350.499 286.523 350.531 284.827C350.531 282.043 346.675 282.523 346.675 281.147C346.675 280.731 346.979 280.379 347.619 280.379C348.243 280.379 348.771 280.795 349.187 281.307L350.531 280.123C349.955 279.339 348.835 278.747 347.603 278.747C345.923 278.747 344.723 279.819 344.723 281.243C344.723 284.075 348.579 283.547 348.579 284.955C348.579 285.435 348.243 285.819 347.587 285.819C346.819 285.819 346.227 285.371 345.731 284.747L344.387 285.963ZM354.613 287.371C355.557 287.371 356.517 286.971 357.029 286.347V287.131H359.061V281.915C359.061 280.139 357.861 278.747 355.525 278.747C354.053 278.747 352.869 279.355 352.149 280.347L353.637 281.483C354.069 280.891 354.677 280.523 355.461 280.523C356.389 280.523 357.029 281.067 357.029 281.915V282.123L354.565 282.539C352.837 282.827 351.893 283.739 351.893 284.955C351.893 286.443 352.997 287.371 354.613 287.371ZM353.909 284.859C353.909 284.363 354.261 284.011 355.109 283.867L357.029 283.547V284.683C356.629 285.323 355.957 285.755 355.029 285.755C354.341 285.755 353.909 285.403 353.909 284.859ZM361.9 284.187C361.9 286.155 362.86 287.291 364.876 287.291C365.548 287.291 366.028 287.211 366.428 287.035V285.259C366.156 285.371 365.788 285.435 365.228 285.435C364.428 285.435 363.948 285.083 363.948 284.187V280.891H366.412V279.067H363.948V277.051H361.9V279.067H360.396V280.891H361.9V284.187ZM369.256 277.659C369.976 277.659 370.568 277.051 370.568 276.331C370.568 275.611 369.976 275.003 369.256 275.003C368.536 275.003 367.928 275.611 367.928 276.331C367.928 277.051 368.536 277.659 369.256 277.659ZM368.232 287.131H370.264V279.067H368.232V287.131ZM376.54 278.747C373.916 278.747 372.124 280.683 372.124 283.099C372.124 285.515 373.916 287.451 376.54 287.451C379.164 287.451 380.956 285.515 380.956 283.099C380.956 280.683 379.164 278.747 376.54 278.747ZM376.572 285.531C375.228 285.531 374.236 284.507 374.236 283.099C374.236 281.691 375.228 280.667 376.572 280.667C377.868 280.667 378.844 281.691 378.844 283.099C378.844 284.491 377.868 285.531 376.572 285.531ZM382.81 287.131H384.842V281.867C385.146 281.355 385.69 280.667 386.714 280.667C387.706 280.667 388.314 281.339 388.314 282.411V287.131H390.362V282.331C390.362 279.947 388.97 278.747 387.226 278.747C386.154 278.747 385.402 279.163 384.842 279.707V279.067H382.81V287.131Z" fill="black"/>
<rect x="235" y="226.131" width="178" height="72" stroke="#000091" stroke-width="2"/>
<path d="M90 152.131L90 151.131L89 151.131L89 152.131L90 152.131ZM90 226.131L95.7735 216.131L84.2265 216.131L90 226.131ZM324 152.131L325 152.131L325 151.131L324 151.131L324 152.131ZM324 226.131L329.774 216.131L318.226 216.131L324 226.131ZM89 152.131L89 217.131L91 217.131L91 152.131L89 152.131ZM90 153.131L324 153.131L324 151.131L90 151.131L90 153.131ZM323 152.131L323 217.131L325 217.131L325 152.131L323 152.131Z" fill="#000091"/>
<rect x="66" y="165.131" width="45" height="36" fill="white"/>
<path d="M82.237 179.491C79.609 179.491 77.821 181.531 77.821 183.931C77.821 186.331 79.609 188.371 82.237 188.371C84.853 188.371 86.641 186.331 86.641 183.931C86.641 181.531 84.853 179.491 82.237 179.491ZM82.237 187.315C80.341 187.315 78.985 185.803 78.985 183.931C78.985 182.059 80.341 180.547 82.237 180.547C84.121 180.547 85.477 182.059 85.477 183.931C85.477 185.803 84.121 187.315 82.237 187.315ZM93.7788 185.035C93.7788 186.487 92.9388 187.315 91.6548 187.315C90.3588 187.315 89.5188 186.487 89.5188 185.035V179.731H88.3908V184.963C88.3908 187.123 89.6868 188.371 91.6548 188.371C93.6228 188.371 94.9068 187.123 94.9068 184.963V179.731H93.7788V185.035ZM97.3261 188.131H98.4541V179.731H97.3261V188.131Z" fill="black"/>
<rect x="66" y="165.131" width="45" height="36" stroke="#000091" stroke-width="2"/>
<rect x="297" y="165.131" width="53" height="36" fill="white"/>
<path d="M309.791 188.131H310.919V181.111L315.671 188.131H317.147V179.731H316.019V186.751L311.267 179.731H309.791V188.131ZM323.507 179.491C320.879 179.491 319.091 181.531 319.091 183.931C319.091 186.331 320.879 188.371 323.507 188.371C326.123 188.371 327.911 186.331 327.911 183.931C327.911 181.531 326.123 179.491 323.507 179.491ZM323.507 187.315C321.611 187.315 320.255 185.803 320.255 183.931C320.255 182.059 321.611 180.547 323.507 180.547C325.391 180.547 326.747 182.059 326.747 183.931C326.747 185.803 325.391 187.315 323.507 187.315ZM329.853 188.131H330.981V181.111L335.733 188.131H337.209V179.731H336.081V186.751L331.329 179.731H329.853V188.131Z" fill="black"/>
<rect x="297" y="165.131" width="53" height="36" stroke="#000091" stroke-width="2"/>
</g>
<defs>
<clipPath id="clip0_2619_98882">
<rect width="414" height="428" fill="white" transform="translate(0 0.130859)"/>
</clipPath>
</defs>
</svg>
